<?xml version="1.0" encoding="UTF-8"?>
<!-- Generator: visioncortex VTracer 0.6.3 -->
<svg version="1.1" xmlns="http://www.w3.org/2000/svg" width="1280" height="550">
<path d="M0 0 C1.04 -0 2.08 -0.01 3.16 -0.01 C4.79 0.01 4.79 0.01 6.45 0.02 C7.53 0.01 8.6 0 9.7 -0.01 C18.19 0.02 24.4 1.27 30.7 7.4 C31.75 9.37 32.76 11.37 33.7 13.4 C34.36 13.73 35.02 14.06 35.7 14.4 C36.33 17.46 36.33 17.46 36.7 20.4 C37.03 20.4 37.36 20.4 37.7 20.4 C38.04 23.27 38.37 26.15 38.7 29.02 C38.8 29.83 38.89 30.64 38.99 31.47 C39.49 35.81 39.82 40.03 39.7 44.4 C40.03 44.4 40.36 44.4 40.7 44.4 C40.76 45.12 40.81 45.84 40.87 46.59 C41.12 49.84 41.38 53.09 41.64 56.34 C41.77 58.04 41.77 58.04 41.9 59.78 C42.03 61.4 42.03 61.4 42.17 63.05 C42.29 64.55 42.29 64.55 42.41 66.08 C42.46 68.36 42.46 68.36 43.7 69.4 C43.92 71.07 44.07 72.74 44.2 74.42 C44.29 75.44 44.37 76.46 44.45 77.52 C44.54 78.59 44.62 79.67 44.7 80.77 C44.87 82.89 45.03 85 45.2 87.11 C45.31 88.52 45.31 88.52 45.42 89.96 C45.63 92.53 45.63 92.53 46.7 95.4 C46.74 97.73 46.75 100.07 46.7 102.4 C49.81 101.71 49.81 101.71 51.05 99.29 C51.47 98.42 51.9 97.55 52.33 96.65 C52.75 95.79 53.18 94.93 53.62 94.04 C54.67 91.48 55.26 89.12 55.7 86.4 C56.36 86.4 57.02 86.4 57.7 86.4 C58.03 84.42 58.36 82.44 58.7 80.4 C59.36 80.4 60.02 80.4 60.7 80.4 C60.82 79.69 60.93 78.98 61.05 78.25 C61.75 75.19 62.82 72.62 64.14 69.77 C64.57 68.83 65 67.89 65.45 66.92 C66.7 64.4 66.7 64.4 68.7 61.4 C68.37 60.74 68.04 60.08 67.7 59.4 C68.69 58.74 69.68 58.08 70.7 57.4 C70.7 56.08 70.7 54.76 70.7 53.4 C71.36 53.4 72.02 53.4 72.7 53.4 C74.6 49.82 75.76 46.19 76.92 42.32 C77.7 40.4 77.7 40.4 79.7 39.4 C80.36 36.87 80.36 36.87 80.7 34.4 C81.36 34.4 82.02 34.4 82.7 34.4 C83.03 32.42 83.36 30.44 83.7 28.4 C84.36 28.4 85.02 28.4 85.7 28.4 C85.89 27.35 85.89 27.35 86.08 26.27 C86.74 23.22 87.68 20.35 88.7 17.4 C89.36 17.4 90.02 17.4 90.7 17.4 C90.99 16.53 91.28 15.67 91.58 14.77 C92.13 13.1 92.13 13.1 92.7 11.4 C93.17 9.85 93.17 9.85 93.64 8.27 C94.68 5.46 95.67 3.59 97.7 1.4 C101.73 0.06 105.43 0.21 109.64 0.21 C110.45 0.2 111.26 0.19 112.1 0.17 C113.28 0.17 113.28 0.17 114.48 0.17 C115.19 0.16 115.91 0.16 116.64 0.16 C119.01 0.44 120.64 1.23 122.7 2.4 C122.7 3.06 122.7 3.72 122.7 4.4 C123.36 4.4 124.02 4.4 124.7 4.4 C125.03 5.39 125.36 6.38 125.7 7.4 C125.37 8.06 125.04 8.72 124.7 9.4 C125.69 9.73 126.68 10.06 127.7 10.4 C128.98 20.05 130.07 29.67 130.7 39.4 C131.03 39.4 131.36 39.4 131.7 39.4 C132.69 51.28 132.69 51.28 133.7 63.4 C134.03 63.4 134.36 63.4 134.7 63.4 C134.76 64.59 134.82 65.78 134.89 67.01 C134.97 68.58 135.06 70.14 135.14 71.71 C135.18 72.5 135.22 73.28 135.26 74.09 C135.32 75.23 135.32 75.23 135.39 76.39 C135.42 77.08 135.46 77.78 135.5 78.5 C135.66 80.62 135.66 80.62 136.7 83.4 C136.43 85.74 136.1 88.07 135.7 90.4 C136.69 90.73 137.68 91.06 138.7 91.4 C139.69 96.84 139.69 96.84 140.7 102.4 C141.91 100.05 141.91 100.05 143.14 97.65 C143.82 96.33 143.82 96.33 144.51 94.98 C145.54 92.76 146.22 90.78 146.7 88.4 C147.36 88.4 148.02 88.4 148.7 88.4 C148.64 87.64 148.58 86.87 148.52 86.09 C148.74 82.87 149.42 82.5 151.7 80.4 C152.06 79.07 152.4 77.74 152.7 76.4 C153.36 75.74 154.02 75.08 154.7 74.4 C154.37 73.74 154.04 73.08 153.7 72.4 C154.36 72.4 155.02 72.4 155.7 72.4 C155.7 71.74 155.7 71.08 155.7 70.4 C156.36 70.4 157.02 70.4 157.7 70.4 C157.7 69.74 157.7 69.08 157.7 68.4 C157.04 68.07 156.38 67.74 155.7 67.4 C156.36 67.4 157.02 67.4 157.7 67.4 C158.85 65.11 159.77 62.77 160.7 60.4 C161.36 60.4 162.02 60.4 162.7 60.4 C163.03 58.09 163.36 55.78 163.7 53.4 C164.36 53.4 165.02 53.4 165.7 53.4 C165.83 52.68 165.95 51.97 166.07 51.23 C166.71 48.35 167.64 45.81 168.77 43.09 C169.13 42.2 169.49 41.32 169.86 40.41 C170.14 39.75 170.42 39.08 170.7 38.4 C170.04 38.07 169.38 37.74 168.7 37.4 C169.43 37.11 170.15 36.82 170.89 36.52 C175.68 32.9 177.55 27.31 179.72 21.83 C180.9 18.9 182.33 16.16 183.8 13.36 C184.77 11.42 184.77 11.42 185.21 9.32 C186.27 5.2 189.28 2.68 192.7 0.4 C200.18 -0.28 208.22 -0.82 214.7 3.4 C215.89 5.46 215.89 5.46 216.7 7.4 C218.03 8.08 219.36 8.75 220.7 9.4 C221.96 13.16 221.81 16.67 221.77 20.59 C221.76 21.34 221.76 22.09 221.75 22.86 C221.74 24.7 221.72 26.55 221.7 28.4 C219.72 28.89 219.72 28.89 217.7 29.4 C217.93 30.16 218.16 30.92 218.39 31.71 C218.55 33.04 218.55 33.04 218.7 34.4 C217.27 36.09 217.27 36.09 215.7 37.4 C215.7 38.06 215.7 38.72 215.7 39.4 C214.71 39.4 213.72 39.4 212.7 39.4 C213.03 40.39 213.36 41.38 213.7 42.4 C212.85 44.8 211.94 47.03 210.89 49.34 C210.62 49.96 210.34 50.58 210.06 51.22 C208.68 54.32 207.23 57.37 205.7 60.4 C205.39 61.03 205.07 61.67 204.74 62.32 C202.4 67.01 200.05 71.71 197.7 76.4 C197.04 76.4 196.38 76.4 195.7 76.4 C195.61 77.24 195.52 78.08 195.42 78.95 C194.6 82.87 193.06 86.08 191.2 89.59 C190.47 91.01 189.74 92.43 189.01 93.85 C188.44 94.96 188.44 94.96 187.86 96.1 C185.91 99.97 184.1 103.91 182.27 107.84 C179.04 114.72 175.63 121.47 172.02 128.16 C168.97 133.84 166.08 139.6 163.27 145.4 C161.94 148.09 160.84 150.26 158.7 152.4 C158.09 153.99 157.54 155.59 157.02 157.21 C154.26 165.08 150.33 172.46 145.7 179.4 C141.33 180.1 136.88 179.91 132.45 179.9 C130.61 179.94 130.61 179.94 128.73 179.98 C118.61 180.01 118.61 180.01 115.03 177.3 C110.36 171.48 109.15 165.55 108.24 158.33 C108.12 157.46 108 156.59 107.88 155.7 C107.5 152.89 107.13 150.08 106.77 147.27 C106.51 145.34 106.24 143.4 105.98 141.47 C105.33 136.67 104.69 131.87 104.06 127.07 C103.35 121.75 102.63 116.43 101.91 111.12 C101.57 108.65 101.24 106.18 100.91 103.7 C100.76 102.62 100.62 101.54 100.46 100.43 C100.34 99.49 100.22 98.56 100.09 97.61 C99.81 95.37 99.81 95.37 98.7 93.4 C98.66 91.07 98.66 88.73 98.7 86.4 C97.22 85.9 97.22 85.9 95.7 85.4 C95.62 86.06 95.54 86.72 95.45 87.4 C94.46 91.35 92.85 94.93 90.7 98.4 C89.71 98.89 89.71 98.89 88.7 99.4 C88.05 101.42 88.05 101.42 87.7 103.4 C87.04 103.4 86.38 103.4 85.7 103.4 C85.61 104.82 85.61 104.82 85.52 106.27 C84.79 111.49 82.16 115.82 79.7 120.4 C78.36 123.03 77.12 125.69 75.94 128.39 C73.4 134.14 70.68 139.8 67.95 145.46 C67.45 146.52 66.94 147.57 66.42 148.66 C65.18 151.24 63.94 153.82 62.7 156.4 C62.04 156.4 61.38 156.4 60.7 156.4 C60.61 157.57 60.61 157.57 60.52 158.77 C59.17 164.77 56.92 170.92 51.7 174.4 C51.7 175.39 51.7 176.38 51.7 177.4 C50.38 177.4 49.06 177.4 47.7 177.4 C47.7 178.06 47.7 178.72 47.7 179.4 C43.79 179.46 39.87 179.49 35.95 179.52 C34.84 179.54 33.73 179.56 32.59 179.57 C30.98 179.58 30.98 179.58 29.34 179.59 C28.36 179.6 27.37 179.61 26.36 179.63 C23.64 179.39 22.02 178.79 19.7 177.4 C19.7 176.74 19.7 176.08 19.7 175.4 C19.04 175.4 18.38 175.4 17.7 175.4 C14.94 171.66 14.04 168.2 13.24 163.66 C13.12 162.98 13 162.3 12.87 161.6 C11.02 150.83 9.62 139.98 8.14 129.15 C7.68 125.81 7.23 122.48 6.76 119.14 C6.48 117.09 6.2 115.03 5.92 112.97 C5.1 106.99 4.17 101.04 3.14 95.09 C2.49 91.1 2.05 87.1 1.64 83.09 C0.9 76 -0.04 68.98 -1.16 61.94 C-3.19 49.21 -4.96 36.49 -6.35 23.68 C-6.46 22.65 -6.57 21.62 -6.68 20.56 C-6.78 19.66 -6.87 18.76 -6.97 17.83 C-7.27 15.62 -7.73 13.55 -8.3 11.4 C-8.99 4.41 -8.99 4.41 -7.11 1.68 C-4.65 -0.05 -2.99 0.01 0 0 Z M35.7 33.4 C36.7 36.4 36.7 36.4 36.7 36.4 Z M209.7 44.4 C210.7 46.4 210.7 46.4 210.7 46.4 Z M132.7 65.4 C132.7 70.02 132.7 74.64 132.7 79.4 C133.03 79.4 133.36 79.4 133.7 79.4 C133.7 74.78 133.7 70.16 133.7 65.4 C133.37 65.4 133.04 65.4 132.7 65.4 Z M41.7 73.4 C42.7 77.4 42.7 77.4 42.7 77.4 Z " fill="#A9C937" transform="translate(59.296875,152.6015625)"/>
<path d="M0 0 C7.19 0.11 14.38 0.22 21.57 0.34 C24.91 0.39 28.25 0.45 31.59 0.5 C35.45 0.56 39.31 0.62 43.16 0.68 C44.34 0.7 45.51 0.72 46.72 0.73 C87.28 1.44 87.28 1.44 101.36 14.13 C105.7 19 108.58 23.55 110 30 C109.62 33.44 109.62 33.44 109 36 C109.66 36 110.32 36 111 36 C111.53 49.3 110.45 61.22 102 72 C97.16 76.99 91.95 81.4 86 85 C86.54 85.38 87.09 85.75 87.64 86.14 C91.75 89.07 94.7 91.4 97 96 C97.66 96.66 98.32 97.32 99 98 C103.66 105.9 104.79 112.87 104.62 121.94 C104.64 123.03 104.66 124.12 104.68 125.24 C104.62 135.6 101.72 144.07 95 152 C94.45 152.67 93.89 153.34 93.32 154.03 C84.14 164.74 74.65 170.34 61 174 C59.82 174.35 58.65 174.7 57.44 175.06 C56.3 175.37 55.17 175.68 54 176 C53.36 176.18 52.72 176.35 52.06 176.53 C39.63 179.64 26.47 179.15 13.73 179.13 C12.12 179.13 10.51 179.13 8.9 179.14 C5.55 179.14 2.21 179.14 -1.14 179.13 C-5.43 179.12 -9.72 179.13 -14.01 179.13 C-17.32 179.14 -20.63 179.14 -23.95 179.13 C-25.53 179.13 -27.11 179.13 -28.7 179.14 C-30.9 179.14 -33.09 179.13 -35.29 179.13 C-36.54 179.13 -37.79 179.13 -39.08 179.13 C-42 179 -42 179 -44 178 C-45.19 174.44 -45.1 171.56 -45.06 167.81 C-45.05 166.54 -45.04 165.27 -45.04 163.96 C-45.02 162.98 -45.01 162.01 -45 161 C-44.67 161 -44.34 161 -44 161 C-40.18 141.29 -40.18 141.29 -37.36 121.43 C-37 119 -37 119 -36 118 C-35.57 115.73 -35.2 113.44 -34.84 111.16 C-34.74 110.47 -34.63 109.79 -34.52 109.08 C-34.18 106.89 -33.84 104.69 -33.5 102.5 C-33.06 99.61 -32.61 96.73 -32.16 93.84 C-31.96 92.56 -31.76 91.27 -31.56 89.94 C-31 87 -31 87 -30 86 C-29.63 84.03 -29.3 82.05 -29 80.06 C-28.11 74.22 -28.11 74.22 -27 72 C-27.66 71.67 -28.32 71.34 -29 71 C-28.56 69.77 -28.12 68.55 -27.66 67.28 C-25.72 61.45 -24.54 55.52 -23.38 49.5 C-23.16 48.42 -22.94 47.35 -22.72 46.24 C-21.77 41.43 -20.91 36.66 -20.41 31.78 C-20 28 -20 28 -19 27 C-18.65 25.11 -18.35 23.21 -18.06 21.31 C-16.72 12.99 -16.72 12.99 -15 9 C-14.34 8.67 -13.68 8.34 -13 8 C-12.67 7.01 -12.34 6.02 -12 5 C-9.48 2.48 -7.42 1.89 -4 1 C-1.62 1.38 -1.62 1.38 0 2 C0 1.34 0 0.68 0 0 Z M21 39 C19.12 43.51 17.97 47.58 17.5 52.44 C17.08 56.41 16.58 60.26 15.31 64.06 C14.9 66.61 15.79 67.78 17 70 C17.6 69.92 18.21 69.84 18.83 69.76 C25.09 69.03 30.98 69.1 37.25 69.56 C52.27 70.82 52.27 70.82 65.81 65.56 C68.16 63.13 68.16 63.13 69 60 C69.33 60 69.66 60 70 60 C70.75 51.85 70.75 51.85 68.25 44.31 C66.06 42.06 65.09 41.22 62 41 C62 40.34 62 39.68 62 39 C60.08 39.03 60.08 39.03 58.12 39.06 C54.25 39.12 54.25 39.12 52 38 C50.52 37.9 49.04 37.87 47.56 37.87 C46.22 37.87 46.22 37.87 44.85 37.86 C43.44 37.87 43.44 37.87 42 37.88 C41.09 37.87 40.18 37.87 39.25 37.86 C33.11 37.87 27.09 38.27 21 39 Z M19 40 C20 42 20 42 20 42 Z M16 53 C17 55 17 55 17 55 Z M8 106 C7.3 107.87 7.3 107.87 7 110.12 C6.85 111.01 6.69 111.89 6.54 112.8 C6.36 113.86 6.18 114.91 6 116 C5.62 118.04 5.23 120.09 4.84 122.13 C4.22 125.42 3.6 128.71 3 132 C2.76 133.11 2.53 134.22 2.29 135.36 C2.19 136.23 2.1 137.1 2 138 C3.76 140.17 3.76 140.17 5.91 140.24 C6.69 140.24 7.47 140.23 8.27 140.23 C9.15 140.23 10.03 140.23 10.94 140.23 C11.89 140.22 12.84 140.21 13.82 140.2 C15.28 140.19 15.28 140.19 16.77 140.19 C19.89 140.18 23.01 140.15 26.12 140.12 C28.24 140.11 30.35 140.11 32.46 140.1 C37.64 140.08 42.82 140.04 48 140 C48 139.34 48 138.68 48 138 C49.83 137.91 49.83 137.91 51.69 137.81 C54.96 137.39 56 137 58.75 134.94 C63.15 129.2 65.81 124.43 65 117 C64.88 115.8 64.75 114.61 64.62 113.38 C62.49 108.95 60.05 107.96 55.7 105.95 C50.11 103.99 44.52 103.84 38.64 103.83 C37.86 103.83 37.08 103.83 36.27 103.82 C34.62 103.82 32.98 103.81 31.33 103.81 C28.81 103.81 26.29 103.79 23.77 103.78 C22.16 103.77 20.56 103.77 18.96 103.77 C18.2 103.76 17.45 103.76 16.67 103.75 C12.9 103.76 11.22 103.85 8 106 Z M-25 177 C-25 177.33 -25 177.66 -25 178 C-22.03 178 -19.06 178 -16 178 C-16 177.67 -16 177.34 -16 177 C-18.97 177 -21.94 177 -25 177 Z M-15 177 C-15 177.33 -15 177.66 -15 178 C-12.69 178 -10.38 178 -8 178 C-8 177.67 -8 177.34 -8 177 C-10.31 177 -12.62 177 -15 177 Z M23 175 C23 175.33 23 175.66 23 176 C12.61 176.5 12.61 176.5 2 177 C2 177.33 2 177.66 2 178 C9.59 178 17.18 178 25 178 C25 177.01 25 176.02 25 175 C24.34 175 23.68 175 23 175 Z " fill="#0177F9" transform="translate(697,156)"/>
<path d="M0 0 C2.72 1.76 2.72 1.76 5.65 1.37 C8.01 0.73 8.01 0.73 8.84 -1.49 C10.4 -2.56 10.4 -2.56 12.28 -3.61 C12.89 -3.97 13.51 -4.32 14.15 -4.68 C15.84 -5.49 15.84 -5.49 17.84 -5.49 C17.84 -6.15 17.84 -6.81 17.84 -7.49 C35.05 -10.75 35.05 -10.75 41.84 -8.49 C42.17 -3.21 42.5 2.07 42.84 7.51 C42.18 7.51 41.52 7.51 40.84 7.51 C40.88 8.75 40.92 9.99 40.96 11.26 C40.98 17.13 39.93 22.76 38.84 28.51 C38.51 28.51 38.18 28.51 37.84 28.51 C37.72 29.62 37.6 30.73 37.47 31.87 C37.3 33.33 37.13 34.8 36.96 36.26 C36.89 36.99 36.81 37.72 36.73 38.47 C36.28 42.24 35.64 45.18 33.84 48.51 C34.17 49.17 34.5 49.83 34.84 50.51 C34.54 52.75 34.54 52.75 33.96 55.39 C33.78 56.25 33.6 57.11 33.41 58 C33.07 59.48 32.72 60.95 32.34 62.41 C31.85 64.49 31.55 66.5 31.3 68.62 C31.17 69.75 31.17 69.75 31.04 70.91 C30.91 72.07 30.91 72.07 30.78 73.26 C30.69 74.05 30.6 74.85 30.5 75.66 C30.28 77.61 30.06 79.56 29.84 81.51 C29.51 81.51 29.18 81.51 28.84 81.51 C28.78 82.14 28.72 82.76 28.66 83.41 C28.57 84.23 28.49 85.04 28.4 85.89 C28.28 87.1 28.28 87.1 28.16 88.35 C27.84 90.51 27.84 90.51 26.84 92.51 C26.63 94.26 26.47 96.01 26.34 97.76 C26.01 101.72 25.58 105.6 24.84 109.51 C24.18 109.51 23.52 109.51 22.84 109.51 C22.85 110.27 22.86 111.03 22.88 111.81 C22.88 112.81 22.89 113.8 22.9 114.82 C22.91 115.81 22.93 116.8 22.94 117.81 C22.84 120.51 22.84 120.51 21.84 123.51 C21.84 124.5 21.84 125.49 21.84 126.51 C21.18 126.51 20.52 126.51 19.84 126.51 C19.9 127.17 19.96 127.83 20.03 128.51 C19.64 134.64 16.65 140.14 13.84 145.51 C13.53 146.23 13.22 146.96 12.9 147.7 C11.84 149.51 11.84 149.51 9.78 150.95 C7.24 153 7.43 154.36 6.84 157.51 C4.9 160.82 4.9 160.82 2.84 163.51 C2.18 163.51 1.52 163.51 0.84 163.51 C0.18 164.83 -0.48 166.15 -1.16 167.51 C-1.82 167.51 -2.48 167.51 -3.16 167.51 C-3.49 168.5 -3.82 169.49 -4.16 170.51 C-4.82 170.51 -5.48 170.51 -6.16 170.51 C-6.16 171.17 -6.16 171.83 -6.16 172.51 C-8.14 172.18 -10.12 171.85 -12.16 171.51 C-11.83 172.83 -11.5 174.15 -11.16 175.51 C-12.15 175.84 -13.14 176.17 -14.16 176.51 C-14.16 177.17 -14.16 177.83 -14.16 178.51 C-15.81 178.84 -17.46 179.17 -19.16 179.51 C-19.49 180.5 -19.82 181.49 -20.16 182.51 C-22.28 183.85 -24.29 184.98 -26.54 186.07 C-27.16 186.38 -27.79 186.69 -28.43 187.01 C-33.79 189.55 -39.19 191.25 -45.16 191.51 C-45.82 191.18 -46.48 190.85 -47.16 190.51 C-47.49 191.83 -47.82 193.15 -48.16 194.51 C-49.04 194.73 -49.04 194.73 -49.93 194.95 C-51.91 195.45 -53.88 195.98 -55.85 196.51 C-63.03 198.27 -70.16 198.63 -77.54 198.76 C-78.24 198.78 -78.94 198.8 -79.66 198.83 C-84.66 198.86 -84.66 198.86 -87.08 197.17 C-88.76 194.59 -89.04 192.58 -89.16 189.51 C-88.35 186.32 -88.35 186.32 -86.16 183.51 C-82.93 182.08 -79.59 181.33 -76.16 180.51 C-74.47 180.03 -72.78 179.54 -71.1 179.01 C-70.36 178.8 -69.63 178.58 -68.88 178.36 C-68.31 178.08 -67.74 177.8 -67.16 177.51 C-66.83 176.52 -66.5 175.53 -66.16 174.51 C-64.31 173.56 -64.31 173.56 -62.1 172.82 C-61 172.45 -61 172.45 -59.88 172.06 C-59.31 171.88 -58.74 171.7 -58.16 171.51 C-58.16 170.85 -58.16 170.19 -58.16 169.51 C-57.25 169.26 -56.35 169.02 -55.41 168.76 C-51.88 167.4 -50.69 166.27 -48.16 163.51 C-46.94 162.49 -45.71 161.47 -44.47 160.45 C-39.36 156.04 -35.3 150.81 -31.16 145.51 C-31.82 145.51 -32.48 145.51 -33.16 145.51 C-32.13 143.11 -31.25 141.59 -29.29 139.82 C-24.15 134.23 -22.53 126.8 -21.16 119.51 C-22.16 119.84 -23.15 120.16 -24.18 120.5 C-30.27 122.02 -36.49 121.81 -42.73 121.77 C-44.85 121.76 -46.97 121.77 -49.09 121.79 C-50.45 121.78 -51.81 121.78 -53.17 121.78 C-54.39 121.78 -55.62 121.77 -56.87 121.77 C-60.11 121.52 -62.24 120.86 -65.16 119.51 C-67.02 118.92 -67.02 118.92 -68.91 118.32 C-81.8 113.45 -89.92 101.82 -95.71 89.94 C-100.59 78.37 -101.96 65.87 -100.16 53.51 C-100.04 52.37 -99.91 51.22 -99.78 50.04 C-98.92 42.8 -97.55 36.94 -94.16 30.51 C-93.08 28.32 -91.99 26.14 -90.91 23.95 C-90 22.14 -89.08 20.32 -88.16 18.51 C-87.5 18.51 -86.84 18.51 -86.16 18.51 C-85.82 17.71 -85.82 17.71 -85.47 16.89 C-80.92 8.65 -73.27 1.78 -64.47 -1.49 C-62.01 -2.26 -62.01 -2.26 -61.16 -4.49 C-59.83 -4.82 -58.49 -5.15 -57.16 -5.49 C-56.83 -6.15 -56.5 -6.81 -56.16 -7.49 C-36.38 -13.04 -17.07 -11.99 0 0 Z M-51.72 35.09 C-52.76 36.72 -52.76 36.72 -53.38 38.48 C-54.16 40.51 -54.16 40.51 -55.16 42.5 C-58.03 48.27 -58.83 53.1 -58.72 59.51 C-58.71 60.83 -58.71 60.83 -58.69 62.18 C-58.44 69.7 -57.07 74.8 -51.52 80.07 C-45.71 84.68 -39.08 86.05 -31.79 85.89 C-24.81 84.88 -18.55 80.96 -14.16 75.51 C-12.45 72.51 -12.45 72.51 -11.16 69.51 C-10.54 68.46 -10.54 68.46 -9.91 67.39 C-8.96 65.02 -9.54 63.92 -10.16 61.51 C-9.5 60.52 -8.84 59.53 -8.16 58.51 C-7.96 55.82 -7.88 53.26 -7.91 50.57 C-7.9 49.5 -7.9 49.5 -7.89 48.4 C-7.9 44.62 -8.05 41.72 -10.16 38.51 C-10.82 38.51 -11.48 38.51 -12.16 38.51 C-12.22 37.93 -12.28 37.36 -12.35 36.76 C-13.52 33.52 -15.32 32.41 -18.16 30.51 C-28.42 26.51 -43.47 26.77 -51.72 35.09 Z M34.84 33.51 C35.84 36.51 35.84 36.51 35.84 36.51 Z M33.84 37.51 C33.84 39.82 33.84 42.13 33.84 44.51 C34.17 44.51 34.5 44.51 34.84 44.51 C34.84 42.2 34.84 39.89 34.84 37.51 C34.51 37.51 34.18 37.51 33.84 37.51 Z M31.84 48.51 C32.84 50.51 32.84 50.51 32.84 50.51 Z M-60.16 51.51 C-59.16 55.51 -59.16 55.51 -59.16 55.51 Z M30.84 51.51 C31.84 53.51 31.84 53.51 31.84 53.51 Z M30.84 57.51 C31.84 60.51 31.84 60.51 31.84 60.51 Z M-60.16 65.51 C-59.16 69.51 -59.16 69.51 -59.16 69.51 Z " fill="#A9C937" transform="translate(568.16015625,210.48828125)"/>
<path d="M0 0 C0.86 -0.02 1.72 -0.04 2.6 -0.06 C8.94 -0.1 8.94 -0.1 12 1.62 C12.52 2.16 13.03 2.7 13.56 3.25 C14.39 4.01 15.21 4.78 16.06 5.56 C21.96 11.9 23 15.74 22.9 24.32 C22.56 27.25 22.56 27.25 20.56 30.25 C20.1 32.99 19.73 35.68 19.44 38.44 C19.35 39.19 19.26 39.94 19.18 40.71 C18.96 42.56 18.76 44.4 18.56 46.25 C18.23 46.25 17.9 46.25 17.56 46.25 C17.57 45.61 17.59 44.97 17.6 44.32 C17.61 43.49 17.62 42.66 17.62 41.81 C17.64 40.99 17.65 40.17 17.66 39.32 C17.8 37.26 17.8 37.26 16.56 36.25 C16.58 37.14 16.58 37.14 16.59 38.05 C16.64 40.78 16.66 43.52 16.69 46.25 C16.7 47.18 16.72 48.12 16.74 49.08 C16.78 54.83 16.37 59.78 14.56 65.25 C13.57 65.75 13.57 65.75 12.56 66.25 C12.56 72.52 12.56 78.79 12.56 85.25 C14.38 83.48 16.19 81.7 18.06 79.88 C18.64 79.32 19.21 78.76 19.8 78.19 C21.09 76.91 22.33 75.58 23.56 74.25 C23.56 73.59 23.56 72.93 23.56 72.25 C24.88 71.92 26.2 71.59 27.56 71.25 C27.56 70.59 27.56 69.93 27.56 69.25 C30.06 67.62 30.06 67.62 32.56 66.25 C30.58 65.26 30.58 65.26 28.56 64.25 C30.23 64.1 30.23 64.1 31.94 63.94 C33.13 63.71 34.33 63.48 35.56 63.25 C36.22 62.26 36.88 61.27 37.56 60.25 C37.23 59.59 36.9 58.93 36.56 58.25 C37.81 57.14 39.06 56.04 40.31 54.94 C41.36 54.02 41.36 54.02 42.42 53.07 C44.41 51.38 46.45 49.8 48.56 48.25 C48.89 48.91 49.22 49.57 49.56 50.25 C50.74 49.94 51.91 49.62 53.12 49.3 C59.25 47.94 65.41 47.71 71.67 47.51 C73.69 47.44 75.71 47.34 77.72 47.24 C90.03 46.81 90.03 46.81 95.56 50.25 C95.89 50.91 96.22 51.57 96.56 52.25 C95.19 54.25 95.19 54.25 93.56 56.25 C92.9 56.25 92.24 56.25 91.56 56.25 C91.25 57.07 91.25 57.07 90.93 57.91 C89.07 61.1 86.48 63.32 83.75 65.75 C83.23 66.22 82.71 66.7 82.17 67.18 C73.22 75.25 73.22 75.25 70.56 75.25 C70.07 76.74 70.07 76.74 69.56 78.25 C68.9 78.25 68.24 78.25 67.56 78.25 C67.07 79.74 67.07 79.74 66.56 81.25 C64.35 83.29 64.35 83.29 61.62 85.44 C60.73 86.15 59.83 86.87 58.91 87.61 C56.56 89.25 56.56 89.25 54.56 89.25 C54.56 89.91 54.56 90.57 54.56 91.25 C52.59 93.04 50.51 94.66 48.41 96.3 C46.16 98.68 45.74 100 45.56 103.25 C46.15 105.69 46.15 105.69 47.25 108.06 C47.62 108.93 47.99 109.79 48.38 110.68 C49.75 113.65 51.19 116.58 52.73 119.46 C53.56 121.25 53.56 121.25 54.03 123.19 C54.66 125.64 55.7 127.63 56.88 129.88 C63.88 143.66 63.88 143.66 63.56 150.25 C64.22 150.25 64.88 150.25 65.56 150.25 C65.78 150.83 66 151.42 66.23 152.02 C68.58 158.1 71.34 163.78 74.49 169.49 C75.71 172.63 75.69 174.11 74.56 177.25 C71.53 178.77 68.37 178.41 65.04 178.42 C64.29 178.42 63.55 178.42 62.78 178.43 C61.2 178.43 59.63 178.44 58.05 178.44 C55.64 178.44 53.23 178.46 50.81 178.47 C49.28 178.48 47.75 178.48 46.22 178.48 C45.5 178.49 44.78 178.49 44.03 178.5 C40.32 178.49 38.74 178.37 35.56 176.25 C34.9 175.92 34.24 175.59 33.56 175.25 C33.56 174.59 33.56 173.93 33.56 173.25 C32.57 172.92 31.58 172.59 30.56 172.25 C25.82 164.9 22.99 156.36 20.02 148.18 C18.33 143.55 16.4 139.03 14.45 134.51 C13.56 132.25 13.56 132.25 13.56 130.25 C9.22 132.59 6 134.68 2.56 138.25 C1.9 138.25 1.24 138.25 0.56 138.25 C0.42 139.38 0.27 140.52 0.12 141.69 C-0.44 145.25 -0.44 145.25 -1.44 146.25 C-1.86 150.08 -2.21 153.91 -2.51 157.75 C-3.05 163.62 -4.38 168.74 -6.44 174.25 C-6.77 175.24 -7.1 176.23 -7.44 177.25 C-11.01 179.04 -15.12 178.52 -19.06 178.56 C-19.94 178.59 -20.82 178.62 -21.72 178.65 C-29.04 178.72 -34.2 176.97 -39.81 172.25 C-44.56 166.4 -44.72 160 -44 152.75 C-43.82 151.25 -43.64 149.75 -43.44 148.25 C-43.11 148.25 -42.78 148.25 -42.44 148.25 C-42.25 147.14 -42.06 146.03 -41.86 144.88 C-41.13 140.65 -40.4 136.43 -39.67 132.2 C-39.35 130.39 -39.04 128.58 -38.73 126.77 C-36.94 116.36 -35.05 105.99 -32.76 95.68 C-31.39 89.42 -30.65 83.18 -29.93 76.82 C-29.37 72.75 -28.35 68.99 -27.16 65.06 C-25.97 60.45 -25.45 55.75 -24.87 51.02 C-24.44 48.25 -24.44 48.25 -23.44 47.25 C-23.07 44.92 -22.74 42.59 -22.44 40.25 C-21.55 33.36 -21.55 33.36 -20.44 32.25 C-20.11 30.19 -19.82 28.13 -19.56 26.06 C-18.84 20.86 -18.02 15.71 -17 10.56 C-16.66 8.86 -16.66 8.86 -16.32 7.11 C-15.43 4.21 -14.85 3.02 -12.44 1.25 C-8.28 -0.14 -4.36 0.03 0 0 Z M14.56 52.25 C14.56 53.9 14.56 55.55 14.56 57.25 C14.89 57.25 15.22 57.25 15.56 57.25 C15.56 55.6 15.56 53.95 15.56 52.25 C15.23 52.25 14.9 52.25 14.56 52.25 Z M-5.44 161.25 C-4.44 165.25 -4.44 165.25 -4.44 165.25 Z " fill="#0077F9" transform="translate(1133.4375,155.75)"/>
<path d="M0 0 C0.82 0 1.65 0 2.5 0 C13.18 0.11 23.57 1.64 33.94 4.19 C33.94 4.85 33.94 5.51 33.94 6.19 C34.62 6.27 35.3 6.35 36 6.44 C39.81 7.41 42.58 9.15 45.94 11.19 C45.94 11.85 45.94 12.51 45.94 13.19 C46.54 13.41 47.13 13.64 47.75 13.88 C51.07 15.86 52.25 18.81 53.94 22.19 C54.93 23.67 54.93 23.67 55.94 25.19 C56.2 27.16 56.2 27.16 56.2 29.39 C56.21 30.21 56.21 31.02 56.21 31.86 C56.2 32.71 56.2 33.56 56.19 34.44 C56.2 35.27 56.2 36.11 56.21 36.96 C56.19 42.07 55.49 46.28 53.94 51.19 C53.68 52.99 53.46 54.81 53.31 56.62 C53.24 57.49 53.16 58.35 53.09 59.25 C53.01 60.21 53.01 60.21 52.94 61.19 C52.61 61.19 52.28 61.19 51.94 61.19 C51.86 62.69 51.86 62.69 51.79 64.21 C51.71 65.51 51.64 66.8 51.56 68.12 C51.46 70.06 51.46 70.06 51.35 72.03 C51.21 73.07 51.08 74.11 50.94 75.19 C49.95 75.68 49.95 75.68 48.94 76.19 C48.98 77.49 49.02 78.79 49.06 80.12 C49.08 85.02 48.19 89.47 46.94 94.19 C46.61 94.19 46.28 94.19 45.94 94.19 C45.94 97.16 45.94 100.13 45.94 103.19 C43.96 102.69 43.96 102.69 41.94 102.19 C41.94 102.83 41.95 103.48 41.95 104.14 C41.97 107.07 41.99 110.01 42 112.94 C42.01 113.95 42.02 114.97 42.03 116.02 C42.03 117 42.03 117.98 42.04 118.98 C42.04 119.89 42.05 120.79 42.05 121.71 C41.94 124.05 41.58 125.96 40.94 128.19 C40.63 129.4 40.32 130.62 40 131.88 C39.65 132.97 39.3 134.06 38.94 135.19 C33.63 137.84 24.8 136.86 18.94 136.19 C15.37 134.93 13.77 133.78 10.94 131.19 C10.94 130.53 10.94 129.87 10.94 129.19 C10.28 129.19 9.62 129.19 8.94 129.19 C7.56 127.56 6.22 125.89 4.94 124.19 C3.45 124.68 3.45 124.68 1.94 125.19 C1.94 125.85 1.94 126.51 1.94 127.19 C-10.12 136.05 -24.39 139.28 -39.19 137.75 C-46.89 136.43 -53.34 133.01 -60.06 129.19 C-60.06 128.53 -60.06 127.87 -60.06 127.19 C-61.05 126.86 -62.04 126.53 -63.06 126.19 C-63.06 125.53 -63.06 124.87 -63.06 124.19 C-63.72 124.19 -64.38 124.19 -65.06 124.19 C-72.83 111.7 -74.91 99.82 -72.06 85.25 C-71.74 83.89 -71.42 82.54 -71.06 81.19 C-70.4 81.19 -69.74 81.19 -69.06 81.19 C-68.84 80.32 -68.61 79.45 -68.38 78.56 C-66.27 73.15 -63.36 69.7 -58.06 67.19 C-56.89 66.4 -55.72 65.61 -54.56 64.81 C-45.55 59.2 -35.8 57.64 -25.43 56.58 C-22.08 56.31 -22.08 56.31 -19.06 55.19 C-16.85 54.97 -14.64 54.8 -12.43 54.65 C-10.48 54.52 -10.48 54.52 -8.49 54.39 C-7.12 54.3 -5.75 54.21 -4.38 54.12 C-2.99 54.03 -1.61 53.94 -0.22 53.85 C3.16 53.63 6.55 53.4 9.94 53.19 C9.94 52.53 9.94 51.87 9.94 51.19 C10.91 50.88 11.88 50.57 12.88 50.25 C16.05 48.57 16.05 48.57 16.59 46.12 C17.04 42.34 17.36 38.79 15.94 35.19 C11.06 30.32 3.86 31.2 -2.6 31.18 C-8.25 31.51 -11.96 33.3 -16.06 37.19 C-16.92 38.21 -17.75 39.25 -18.56 40.31 C-22.29 44.6 -25.64 45.97 -31.19 46.47 C-34.88 46.59 -38.56 46.6 -42.25 46.56 C-43.52 46.57 -44.79 46.59 -46.1 46.6 C-47.32 46.59 -48.54 46.59 -49.79 46.59 C-50.9 46.58 -52.01 46.58 -53.15 46.58 C-56.37 46.15 -57.75 45.44 -60.06 43.19 C-61.56 37.62 -59.76 32.62 -57.13 27.72 C-56.06 26.19 -56.06 26.19 -54.06 25.19 C-53.96 24.61 -53.86 24.03 -53.75 23.44 C-52.74 20.14 -50.54 18.55 -48.06 16.19 C-45.23 12.98 -42.58 9.64 -40.06 6.19 C-39.4 6.52 -38.74 6.85 -38.06 7.19 C-38.06 7.52 -38.06 7.85 -38.06 8.19 C-37.57 7.74 -37.08 7.29 -36.58 6.82 C-33.2 4.63 -29.69 3.91 -25.81 3.06 C-25.09 2.89 -24.36 2.72 -23.61 2.55 C-15.73 0.77 -8.08 -0.01 0 0 Z M3.65 78.16 C0.41 79.39 -2.36 79.53 -5.81 79.69 C-15.87 80.31 -22.88 81.28 -30.44 88.44 C-32.62 92.13 -32.65 95 -32.06 99.19 C-31.18 102.07 -31.18 102.07 -30.06 104.19 C-29.4 104.19 -28.74 104.19 -28.06 104.19 C-27.73 105.18 -27.4 106.17 -27.06 107.19 C-21.4 109.94 -14.67 110.19 -8.64 108.51 C-6.75 107.81 -4.9 107.01 -3.06 106.19 C-3.06 105.53 -3.06 104.87 -3.06 104.19 C-2.46 104.09 -1.87 104 -1.25 103.9 C2.88 102.55 4.8 98.79 6.94 95.19 C9.59 89.35 11.37 83.58 11.94 77.19 C8.86 77.04 6.51 76.94 3.65 78.16 Z M44.94 88.19 C45.94 91.19 45.94 91.19 45.94 91.19 Z M-32.06 133.19 C-32.06 133.52 -32.06 133.85 -32.06 134.19 C-29.09 134.52 -26.12 134.85 -23.06 135.19 C-23.06 134.53 -23.06 133.87 -23.06 133.19 C-26.03 133.19 -29 133.19 -32.06 133.19 Z M-35.06 135.19 C-35.06 135.52 -35.06 135.85 -35.06 136.19 C-31.76 136.19 -28.46 136.19 -25.06 136.19 C-25.06 135.86 -25.06 135.53 -25.06 135.19 C-28.36 135.19 -31.66 135.19 -35.06 135.19 Z " fill="#0077F9" transform="translate(885.0625,197.8125)"/>
<path d="M0 0 C0 0.66 0 1.32 0 2 C0.9 2.19 0.9 2.19 1.81 2.38 C4 3 4 3 7 5 C7 5.66 7 6.32 7 7 C7.99 7.33 8.98 7.66 10 8 C20.81 20.66 22.24 36.05 21 52 C19.91 60 18.25 67.91 16.63 75.82 C15.72 80.43 14.94 85.05 14.19 89.69 C14 90.82 14 90.82 13.81 91.97 C13.54 93.65 13.27 95.32 13 97 C12.34 97 11.68 97 11 97 C11.23 97.99 11.45 98.98 11.69 100 C12.27 103.93 11.23 106.39 9.69 109.96 C8.94 112.18 8.92 113.74 9.06 116.06 C8.98 121.02 7.55 122.84 5 127 C1.5 127.12 -2 127.19 -5.5 127.25 C-6.48 127.28 -7.46 127.32 -8.48 127.35 C-14.88 127.44 -19.7 126.77 -25 123 C-28.72 119.24 -30.75 114.42 -31.04 109.16 C-31 106.97 -30.66 105.15 -30.12 103.03 C-28.77 97.23 -27.93 91.38 -27.06 85.5 C-26.02 78.53 -24.96 71.58 -23.6 64.67 C-21.7 54.93 -21.12 46.55 -25.87 37.56 C-27.61 35.16 -29.53 34.12 -32.35 33.39 C-39.82 32.3 -48.34 31.91 -54.84 36.22 C-65.84 44.94 -66.76 58.31 -68.57 71.42 C-69 74 -69 74 -70 76 C-70.35 78.35 -70.65 80.7 -70.94 83.06 C-71.57 88.13 -72.36 93.09 -73.56 98.06 C-74.23 101.02 -74.62 103.99 -75 107 C-75.66 107 -76.32 107 -77 107 C-76.81 107.86 -76.62 108.72 -76.42 109.61 C-75.97 113.25 -76.34 115.71 -77.25 119.25 C-77.63 120.8 -77.63 120.8 -78.02 122.39 C-79 125 -79 125 -82 127 C-84.27 127.23 -84.27 127.23 -86.89 127.2 C-88.29 127.19 -88.29 127.19 -89.73 127.18 C-91.19 127.15 -91.19 127.15 -92.69 127.12 C-93.68 127.12 -94.66 127.11 -95.68 127.1 C-98.12 127.07 -100.56 127.04 -103 127 C-103 126.34 -103 125.68 -103 125 C-104.58 124.66 -104.58 124.66 -106.19 124.31 C-110.27 123.1 -112.44 121.51 -115 118 C-118.64 109.83 -116.16 101.07 -114.52 92.69 C-113.55 87.64 -112.69 82.57 -111.81 77.5 C-111.63 76.49 -111.46 75.48 -111.27 74.44 C-111.11 73.5 -110.94 72.56 -110.77 71.59 C-110.62 70.76 -110.47 69.92 -110.32 69.05 C-109.95 67.02 -109.95 67.02 -110 65 C-109.34 65 -108.68 65 -108 65 C-107.94 63.78 -107.88 62.57 -107.82 61.32 C-107.73 59.73 -107.65 58.15 -107.56 56.56 C-107.52 55.76 -107.48 54.96 -107.44 54.13 C-107.11 48.11 -107.11 48.11 -106 47 C-105.65 44.99 -105.36 42.96 -105.09 40.93 C-104.09 33.63 -102.99 26.36 -101.82 19.08 C-101.61 17.72 -101.39 16.36 -101.18 15 C-100.86 12.99 -100.54 10.98 -100.22 8.97 C-100.03 7.8 -99.85 6.63 -99.65 5.42 C-98.97 1.85 -98.05 -1.52 -97 -5 C-87.87 -7.06 -78.64 -6.75 -70 -3 C-65.48 0.05 -65.48 0.05 -64 3 C-59.51 3.43 -59.51 3.43 -55.76 1.15 C-52.55 -1.35 -49.34 -2.51 -45.5 -3.69 C-44.85 -3.9 -44.2 -4.11 -43.53 -4.33 C-28.98 -8.99 -13.01 -8.58 0 0 Z M-78 104 C-77 107 -77 107 -77 107 Z " fill="#0077F9" transform="translate(1062,207)"/>
<path d="M0 0 C1.31 0.91 1.31 0.91 2.65 1.84 C4.67 3.33 6.44 4.71 8.06 6.62 C8.06 7.28 8.06 7.94 8.06 8.62 C8.72 8.62 9.38 8.62 10.06 8.62 C10.06 9.62 10.06 10.6 10.06 11.62 C10.72 11.95 11.38 12.28 12.06 12.62 C12.06 13.62 12.06 14.6 12.06 15.62 C12.7 15.86 13.33 16.1 13.99 16.34 C16.06 17.62 16.06 17.62 16.86 19.75 C16.99 20.56 17.12 21.36 17.25 22.19 C17.57 25.2 17.57 25.2 19.06 27.62 C21.78 43.92 18.25 59.85 15.56 75.94 C15.35 77.23 15.14 78.52 14.92 79.85 C13.81 86.5 12.61 93.07 11.06 99.62 C10.4 99.62 9.74 99.62 9.06 99.62 C9.27 100.76 9.48 101.89 9.69 103.06 C10.23 107.25 9.6 110.68 8.54 114.74 C7.98 116.62 7.98 116.62 8.06 118.62 C7.4 118.62 6.74 118.62 6.06 118.62 C6.27 119.24 6.48 119.86 6.69 120.5 C6.81 121.2 6.94 121.9 7.06 122.62 C5.06 124.62 5.06 124.62 2.39 124.87 C1.28 124.86 0.17 124.86 -0.97 124.86 C-2.77 124.85 -2.77 124.85 -4.61 124.85 C-6.51 124.83 -6.51 124.83 -8.44 124.81 C-10.33 124.81 -10.33 124.81 -12.26 124.81 C-21.66 124.77 -21.66 124.77 -23.94 123.62 C-23.94 122.97 -23.94 122.31 -23.94 121.62 C-24.55 121.53 -25.16 121.44 -25.8 121.34 C-28.47 120.45 -28.93 119.67 -30.19 117.19 C-32.43 112.37 -32.32 107.84 -31.94 102.62 C-31.28 102.62 -30.62 102.62 -29.94 102.62 C-29.98 101.33 -30.02 100.03 -30.06 98.69 C-30.19 94.67 -29.42 91.15 -28.51 87.26 C-27.39 82.09 -26.66 76.85 -25.88 71.62 C-25.7 70.5 -25.53 69.38 -25.35 68.22 C-22.96 56.38 -22.96 56.38 -23.94 44.62 C-24.13 43.89 -24.33 43.15 -24.54 42.39 C-24.89 41.18 -24.89 41.18 -25.25 39.94 C-25.47 39.17 -25.7 38.4 -25.93 37.61 C-27.23 35.05 -28.26 34.59 -30.94 33.62 C-39.68 31.4 -47.96 32.03 -55.94 36.19 C-59.94 39.44 -62.27 43.27 -64.94 47.62 C-65.6 48.62 -66.26 49.61 -66.94 50.62 C-67.39 52.65 -67.39 52.65 -67.57 54.86 C-67.65 55.66 -67.74 56.46 -67.82 57.29 C-67.9 58.12 -67.98 58.95 -68.06 59.81 C-68.15 60.66 -68.24 61.5 -68.32 62.37 C-68.54 64.46 -68.74 66.54 -68.94 68.62 C-69.6 68.62 -70.26 68.62 -70.94 68.62 C-70.93 69.24 -70.91 69.85 -70.9 70.49 C-70.89 71.3 -70.88 72.1 -70.88 72.94 C-70.86 73.74 -70.85 74.54 -70.84 75.36 C-70.94 77.62 -70.94 77.62 -71.94 80.62 C-72.11 82.21 -72.25 83.79 -72.38 85.38 C-72.77 89.67 -73.75 93.47 -74.94 97.62 C-75.22 100.28 -75.43 102.92 -75.59 105.59 C-75.71 106.26 -75.82 106.93 -75.94 107.62 C-76.93 108.12 -76.93 108.12 -77.94 108.62 C-77.93 109.3 -77.91 109.98 -77.9 110.67 C-77.89 111.56 -77.88 112.46 -77.88 113.38 C-77.86 114.26 -77.85 115.14 -77.84 116.05 C-77.93 118.41 -78.27 120.37 -78.94 122.62 C-79.93 122.62 -80.92 122.62 -81.94 122.62 C-81.94 123.28 -81.94 123.94 -81.94 124.62 C-90.85 124.62 -99.76 124.62 -108.94 124.62 C-108.94 123.97 -108.94 123.31 -108.94 122.62 C-109.54 122.58 -110.13 122.54 -110.75 122.5 C-114.08 121.17 -114.56 118.82 -115.94 115.62 C-116.29 115.02 -116.65 114.42 -117.01 113.8 C-118.22 110.96 -118.17 108.64 -118.12 105.56 C-118.12 104.52 -118.11 103.48 -118.11 102.4 C-117.94 99.62 -117.94 99.62 -116.94 96.62 C-116.28 96.62 -115.62 96.62 -114.94 96.62 C-115.23 95.82 -115.23 95.82 -115.52 95 C-116.07 91.86 -115.38 89.64 -114.56 86.56 C-113.29 81.42 -112.52 76.54 -112.25 71.26 C-111.94 68.62 -111.25 66.25 -110.48 63.71 C-109.32 59.28 -108.75 54.71 -108.06 50.19 C-107.72 47.96 -107.37 45.73 -107.02 43.5 C-106.84 42.36 -106.67 41.23 -106.48 40.06 C-105.46 33.62 -104.36 27.19 -103.24 20.77 C-102.34 15.46 -101.64 10.19 -101.22 4.81 C-100.76 1.27 -99.69 -1.25 -97.94 -4.38 C-92.33 -8.26 -83.67 -6.97 -77.27 -5.95 C-71.4 -4.31 -67.83 -0.95 -63.94 3.62 C-60.95 2.51 -58.13 1.22 -55.31 -0.25 C-38.07 -8.99 -16.58 -11.54 0 0 Z M-73.94 81.62 C-72.94 83.62 -72.94 83.62 -72.94 83.62 Z " fill="#A9C937" transform="translate(438.9375,207.375)"/>
<path d="M0 0 C2.54 -0.15 4.81 -0.11 7.33 0.07 C8.44 0.14 8.44 0.14 9.57 0.21 C11.99 0.35 14.4 0.52 16.81 0.69 C18.46 0.79 20.11 0.9 21.76 1 C31.44 1.61 41.1 2.34 50.74 3.39 C55.19 3.87 59.52 4.08 64 4 C67.2 4 68.24 4.57 71 6 C72.49 6.47 73.99 6.9 75.5 7.31 C79.58 8.51 83.54 9.89 87.5 11.44 C88.5 11.83 89.5 12.22 90.53 12.62 C93.3 14.17 93.83 15.14 95 18 C96.97 19.15 96.97 19.15 99 20 C99.99 20.99 99.99 20.99 101 22 C103.58 22.17 103.58 22.17 106 22 C106 21.34 106 20.68 106 20 C107.32 20 108.64 20 110 20 C110 19.34 110 18.68 110 18 C112.23 17.47 114.46 16.95 116.69 16.44 C118.55 16 118.55 16 120.45 15.56 C123.8 15.03 125.83 14.86 129 16 C131 19 131 19 131 23 C130.34 23 129.68 23 129 23 C129.33 23.99 129.66 24.98 130 26 C128.19 29.19 128.19 29.19 126 32 C125.34 32 124.68 32 124 32 C124 32.99 124 33.98 124 35 C123.34 35 122.68 35 122 35 C122.14 36.89 122.14 36.89 123 39 C125.2 40.83 125.2 40.83 127.88 42.44 C131.8 44.91 133.79 46.93 136 51 C136.66 51.66 137.32 52.32 138 53 C141.37 58.08 144.41 63.07 146 69 C146.33 69.99 146.66 70.98 147 72 C146.67 72.66 146.34 73.32 146 74 C146.66 74 147.32 74 148 74 C150.47 83.69 152.72 93.42 154.93 103.17 C155.18 104.28 155.43 105.39 155.7 106.54 C155.92 107.54 156.15 108.54 156.38 109.58 C156.91 111.99 156.91 111.99 158 114 C158.07 115.54 158.08 117.08 158.06 118.62 C158.05 119.44 158.04 120.26 158.04 121.1 C158.02 122.04 158.02 122.04 158 123 C156.68 123.33 155.36 123.66 154 124 C150.97 119.54 148 115.06 145.25 110.42 C138.9 99.81 132.1 91.33 123 83 C122.11 82.08 121.22 81.16 120.31 80.21 C118.12 77.8 118.12 77.8 115 77 C114.31 74.94 114.31 74.94 114 73 C112.94 72.83 112.94 72.83 111.86 72.66 C108.75 71.94 106.19 70.79 103.31 69.44 C96.96 66.76 91.45 65.34 84.81 67.82 C73.48 73.98 67.41 90.01 62.82 101.39 C62 103 62 103 60 104 C59.09 106.8 59.09 106.8 58.38 110.06 C58.11 111.17 57.85 112.27 57.59 113.41 C57.39 114.26 57.2 115.12 57 116 C56.67 116 56.34 116 56 116 C56.02 115.03 56.04 114.06 56.06 113.06 C56.36 110.13 56.36 110.13 55 109 C55 112.3 55 115.6 55 119 C54.01 119 53.02 119 52 119 C49.88 106.25 49.88 106.25 52 102 C52.12 99.36 52.19 96.76 52.19 94.12 C52.21 93.04 52.21 93.04 52.22 91.94 C52.28 86.63 52.28 86.63 50 82 C49.01 81.67 48.02 81.34 47 81 C47 80.34 47 79.68 47 79 C37.42 77.99 27.86 77.67 18.24 77.39 C16.49 77.34 16.49 77.34 14.71 77.28 C13.66 77.25 12.61 77.22 11.53 77.19 C9 77 9 77 7 76 C7 74.35 7 72.7 7 71 C8.22 70.87 9.43 70.73 10.68 70.6 C12.27 70.42 13.85 70.24 15.44 70.06 C16.24 69.98 17.04 69.89 17.87 69.8 C21.76 69.69 21.76 69.69 25 68 C28.36 67.42 31.72 66.97 35.09 66.5 C37.88 66.31 37.88 66.31 39 65 C41.84 64.72 44.68 64.55 47.53 64.38 C48.35 64.25 49.16 64.13 50 64 C50.5 63.01 50.5 63.01 51 62 C53.33 60.98 55.66 59.99 58 59 C58.66 58.34 59.32 57.68 60 57 C60.66 57 61.32 57 62 57 C62.66 56.01 63.32 55.02 64 54 C64.66 53.01 65.32 52.02 66 51 C66.66 51 67.32 51 68 51 C67.21 43.1 64.95 38.31 59 33 C57.88 32.2 56.73 31.42 55.56 30.69 C54.72 30.13 53.87 29.57 53 29 C53 28.01 53 27.02 53 26 C52.26 25.86 51.51 25.71 50.75 25.56 C48.48 25.1 46.24 24.58 44 24 C44 23.34 44 22.68 44 22 C42.02 21.67 40.04 21.34 38 21 C38.5 19.52 38.5 19.52 39 18 C38.09 18.23 37.19 18.45 36.25 18.69 C32.3 19.07 32.01 18.31 29 16 C26.81 15.21 26.81 15.21 24.38 14.69 C19.01 13.3 13.72 11.74 8.44 10.06 C7.24 9.7 7.24 9.7 6.02 9.33 C5.27 9.09 4.52 8.85 3.75 8.6 C3.07 8.39 2.4 8.18 1.7 7.96 C-0.52 6.71 -1.06 5.33 -2 3 C-1.34 2.01 -0.68 1.02 0 0 Z M129 19 C130 21 130 21 130 21 Z M151 93 C152 97 152 97 152 97 Z " fill="#0277F8" transform="translate(272,64)"/>
<path d="M0 0 C1.03 -0.01 2.07 -0.02 3.13 -0.04 C8.37 -0.05 12.79 0.06 17.69 2.19 C17.69 3.18 17.69 4.17 17.69 5.19 C18.68 5.52 19.67 5.85 20.69 6.19 C23.53 11.48 22.71 16.46 21.69 22.19 C20.98 24.15 20.98 24.15 20.19 25.94 C18.04 30.96 18.13 36.32 17.9 41.7 C17.61 46.51 16.86 50.84 14.69 55.19 C14.36 55.19 14.03 55.19 13.69 55.19 C13.71 56.09 13.73 56.99 13.76 57.93 C13.78 59.11 13.79 60.28 13.81 61.5 C13.84 62.67 13.86 63.84 13.88 65.05 C13.69 68.19 13.69 68.19 11.69 71.19 C11.42 73.55 11.24 75.93 11.12 78.31 C10.79 85.09 10.79 85.09 9.69 86.19 C9.5 87.52 9.36 88.85 9.25 90.19 C8.85 94.22 8.09 98.04 7.16 101.98 C6.69 104.18 6.42 106.33 6.19 108.56 C5.69 112.19 5.69 112.19 3.69 115.19 C3.72 117.1 3.76 119.02 3.82 120.93 C3.67 123.5 3.04 125.54 2.18 127.96 C1.91 128.76 1.63 129.55 1.34 130.37 C1.02 131.27 1.02 131.27 0.69 132.19 C-3.52 132.11 -7.73 131.99 -11.94 131.88 C-13.72 131.84 -13.72 131.84 -15.54 131.81 C-26.69 131.46 -26.69 131.46 -31.31 128.19 C-35.3 123.2 -37.31 118.58 -37.31 112.19 C-36.65 112.19 -35.99 112.19 -35.31 112.19 C-35.35 111.28 -35.38 110.38 -35.42 109.44 C-35.56 103.08 -35.54 97.8 -33.18 91.88 C-31.91 87.93 -31.25 83.9 -30.56 79.81 C-30.42 79.01 -30.28 78.22 -30.14 77.39 C-29.38 72.75 -29.38 72.75 -30.31 68.19 C-29.66 66.97 -29.66 66.97 -29 65.72 C-26.66 60.82 -26.13 55.97 -25.38 50.62 C-25.04 48.38 -24.7 46.14 -24.36 43.9 C-24.19 42.78 -24.02 41.66 -23.84 40.5 C-22.91 34.7 -21.78 28.94 -20.62 23.18 C-19.69 18.51 -19.02 13.91 -18.65 9.16 C-18.09 5.86 -16.44 3.69 -14.31 1.19 C-9.63 -0.37 -4.91 0 0 0 Z M17.69 27.19 C18.69 29.19 18.69 29.19 18.69 29.19 Z M9.69 75.19 C10.69 78.19 10.69 78.19 10.69 78.19 Z M8.69 81.19 C9.69 83.19 9.69 83.19 9.69 83.19 Z M6.69 85.19 C6.69 88.49 6.69 91.79 6.69 95.19 C7.02 95.19 7.35 95.19 7.69 95.19 C7.69 91.89 7.69 88.59 7.69 85.19 C7.36 85.19 7.03 85.19 6.69 85.19 Z M4.69 99.19 C5.69 101.19 5.69 101.19 5.69 101.19 Z M0.69 122.19 C0.69 123.84 0.69 125.49 0.69 127.19 C1.02 127.19 1.35 127.19 1.69 127.19 C1.69 125.54 1.69 123.89 1.69 122.19 C1.36 122.19 1.03 122.19 0.69 122.19 Z " fill="#A9C938" transform="translate(298.3125,200.8125)"/>
<path d="M0 0 C1.73 0.01 3.46 0.01 5.18 0.01 C9.37 0.02 13.56 0.04 17.75 0.06 C17.75 0.72 17.75 1.38 17.75 2.06 C12.36 3.21 7.23 3.1 1.76 2.94 C0.81 2.92 -0.13 2.89 -1.11 2.87 C-4.11 2.79 -7.12 2.71 -10.12 2.62 C-12.17 2.57 -14.21 2.52 -16.26 2.47 C-21.26 2.34 -26.25 2.2 -31.25 2.06 C-31.25 1.73 -31.25 1.4 -31.25 1.06 C-20.83 -0.1 -10.47 -0.05 0 0 Z " fill="#0034EA" transform="translate(736.25,156.9375)"/>
<path d="M0 0 C0.99 0 1.98 0 3 0 C3 0.66 3 1.32 3 2 C3.6 2.23 4.2 2.45 4.81 2.69 C7.56 4.34 8.52 6.2 10 9 C9.34 9.66 8.68 10.32 8 11 C6.85 9.73 5.7 8.46 4.56 7.19 C3.92 6.48 3.29 5.77 2.63 5.04 C1 3 1 3 0 0 Z " fill="#3168B0" transform="translate(928,209)"/>
<path d="M0 0 C0 4.07 -1.58 5.78 -4 9 C-6.25 10.88 -6.25 10.88 -8 12 C-8.99 11.34 -9.98 10.68 -11 10 C-10.46 9.53 -9.91 9.06 -9.36 8.57 C-8.64 7.95 -7.92 7.33 -7.19 6.69 C-6.48 6.07 -5.77 5.46 -5.04 4.82 C-3.3 3.27 -1.63 1.67 0 0 Z " fill="#2566B8" transform="translate(1181,204)"/>
<path d="M0 0 C0.33 0 0.66 0 1 0 C1 5.61 1 11.22 1 17 C-0.8 13.39 -1.47 10.92 -2 7 C-1.34 7 -0.68 7 0 7 C0 4.69 0 2.38 0 0 Z " fill="#E1F374" transform="translate(263,306)"/>
<path d="M0 0 C8.91 0 17.82 0 27 0 C27 0.33 27 0.66 27 1 C18.09 1 9.18 1 0 1 C0 0.67 0 0.34 0 0 Z " fill="#52A6F5" transform="translate(702,294)"/>
<path d="M0 0 C6.93 0 13.86 0 21 0 C21 0.33 21 0.66 21 1 C14.07 1 7.14 1 0 1 C0 0.67 0 0.34 0 0 Z " fill="#E6F779" transform="translate(421,333)"/>
<path d="M0 0 C6.93 0 13.86 0 21 0 C21 0.33 21 0.66 21 1 C14.07 1 7.14 1 0 1 C0 0.67 0 0.34 0 0 Z " fill="#E6F779" transform="translate(335,333)"/>
<path d="M0 0 C6.93 0 13.86 0 21 0 C21 0.33 21 0.66 21 1 C14.07 1 7.14 1 0 1 C0 0.67 0 0.34 0 0 Z " fill="#E6F779" transform="translate(276,333)"/>
<path d="M0 0 C6.93 0 13.86 0 21 0 C21 0.33 21 0.66 21 1 C14.07 1 7.14 1 0 1 C0 0.67 0 0.34 0 0 Z " fill="#E6F779" transform="translate(182,333)"/>
<path d="M0 0 C6.93 0 13.86 0 21 0 C21 0.33 21 0.66 21 1 C14.07 1 7.14 1 0 1 C0 0.67 0 0.34 0 0 Z " fill="#E6F779" transform="translate(86,333)"/>
<path d="M0 0 C6.93 0 13.86 0 21 0 C21 0.33 21 0.66 21 1 C14.07 1 7.14 1 0 1 C0 0.67 0 0.34 0 0 Z " fill="#52A6F5" transform="translate(728,195)"/>
<path d="M0 0 C0.66 0.33 1.32 0.66 2 1 C-0.97 3.97 -3.94 6.94 -7 10 C-7 7 -7 7 -5.47 5.18 C-4.82 4.56 -4.17 3.95 -3.5 3.31 C-2.85 2.69 -2.2 2.07 -1.53 1.43 C-0.77 0.72 -0.77 0.72 0 0 Z " fill="#707E2C" transform="translate(491,214)"/>
<path d="M0 0 C5.61 0 11.22 0 17 0 C17 0.33 17 0.66 17 1 C11.39 1 5.78 1 0 1 C0 0.67 0 0.34 0 0 Z " fill="#E6F779" transform="translate(515,333)"/>
<path d="M0 0 C0.33 0 0.66 0 1 0 C1 3.96 1 7.92 1 12 C0.67 12 0.34 12 0 12 C0 8.04 0 4.08 0 0 Z " fill="#E6F779" transform="translate(281,166)"/>
<path d="M0 0 C3.96 0 7.92 0 12 0 C12 0.33 12 0.66 12 1 C8.04 1 4.08 1 0 1 C0 0.67 0 0.34 0 0 Z " fill="#E6F779" transform="translate(53,151)"/>
<path d="M0 0 C0.66 0.66 1.32 1.32 2 2 C1.97 4.73 1.44 7.3 1 10 C0.67 10 0.34 10 0 10 C0 6.7 0 3.4 0 0 Z " fill="#52A6F5" transform="translate(928,301)"/>
<path d="M0 0 C0.33 0 0.66 0 1 0 C1 2.64 1 5.28 1 8 C0.67 8 0.34 8 0 8 C0 5.36 0 2.72 0 0 Z " fill="#E6F779" transform="translate(611,204)"/>
<path d="M0 0 C0.66 0.66 1.32 1.32 2 2 C1.34 3.32 0.68 4.64 0 6 C0 4.02 0 2.04 0 0 Z " fill="#DDF06F" transform="translate(312,256)"/>
<path d="M0 0 C2.31 0 4.62 0 7 0 C7 0.33 7 0.66 7 1 C4.69 1 2.38 1 0 1 C0 0.67 0 0.34 0 0 Z " fill="#E6F779" transform="translate(160,151)"/>
<path d="M0 0 C0.66 0.33 1.32 0.66 2 1 C0.02 1.99 0.02 1.99 -2 3 C-1.34 2.01 -0.68 1.02 0 0 Z " fill="#A9C937" transform="translate(379,207)"/>
<path d="M0 0 C0.33 0 0.66 0 1 0 C1 1.98 1 3.96 1 6 C0.67 6 0.34 6 0 6 C0 4.02 0 2.04 0 0 Z " fill="#0077FA" transform="translate(765,204)"/>
<path d="M0 0 C0.33 0 0.66 0 1 0 C1 1.65 1 3.3 1 5 C0.67 5 0.34 5 0 5 C0 3.35 0 1.7 0 0 Z " fill="#E6F779" transform="translate(361,316)"/>
<path d="M0 0 C0.33 0 0.66 0 1 0 C1 1.65 1 3.3 1 5 C0.67 5 0.34 5 0 5 C0 3.35 0 1.7 0 0 Z " fill="#000102" transform="translate(195,228)"/>
<path d="M0 0 C0.66 0.33 1.32 0.66 2 1 C1.01 1.66 0.02 2.32 -1 3 C-0.67 2.01 -0.34 1.02 0 0 Z " fill="#0077FA" transform="translate(1159,223)"/>
<path d="M0 0 C0.33 0 0.66 0 1 0 C1 1.65 1 3.3 1 5 C0.67 5 0.34 5 0 5 C0 3.35 0 1.7 0 0 Z " fill="#52A6F5" transform="translate(1146,222)"/>
<path d="M0 0 C0.66 0.33 1.32 0.66 2 1 C1.01 1.66 0.02 2.32 -1 3 C-0.67 2.01 -0.34 1.02 0 0 Z " fill="#55611D" transform="translate(242,162)"/>
<path d="M0 0 C0.66 0.33 1.32 0.66 2 1 C1.01 1 0.02 1 -1 1 C-0.67 0.67 -0.34 0.34 0 0 Z " fill="#0567DA" transform="translate(755,286)"/>
<path d="M0 0 C1 4 1 4 1 4 Z " fill="#E6F779" transform="translate(317,231)"/>
<path d="M0 0 C1 4 1 4 1 4 Z " fill="#E6F779" transform="translate(609,218)"/>
<path d="M0 0 C0.33 0.66 0.66 1.32 1 2 C0.34 1.67 -0.32 1.34 -1 1 C-0.67 0.67 -0.34 0.34 0 0 Z " fill="#A9C937" transform="translate(522,369)"/>
<path d="M0 0 C3 1 3 1 3 1 Z " fill="#0077FA" transform="translate(865,305)"/>
<path d="" fill="#52A6F5" transform="translate(0,0)"/>
<path d="" fill="#D0ECF2" transform="translate(0,0)"/>
<path d="M0 0 C0.99 0.5 0.99 0.5 2 1 C1.01 1.5 1.01 1.5 0 2 C0 1.34 0 0.68 0 0 Z " fill="#0077FA" transform="translate(1156,226)"/>
<path d="M0 0 C0.99 0.5 0.99 0.5 2 1 C1.01 1.5 1.01 1.5 0 2 C0 1.34 0 0.68 0 0 Z " fill="#55611D" transform="translate(122,219)"/>
<path d="M0 0 C0.33 0.66 0.66 1.32 1 2 C0.34 1.67 -0.32 1.34 -1 1 C-0.67 0.67 -0.34 0.34 0 0 Z " fill="#17387A" transform="translate(1009,203)"/>
<path d="M0 0 C3 1 3 1 3 1 Z " fill="#A9C937" transform="translate(532,198)"/>
<path d="M0 0 C3 1 3 1 3 1 Z " fill="#52A6F5" transform="translate(755,196)"/>
<path d="M0 0 C0.33 0.66 0.66 1.32 1 2 C0.34 1.67 -0.32 1.34 -1 1 C-0.67 0.67 -0.34 0.34 0 0 Z " fill="#A9C937" transform="translate(50,151)"/>
<path d="M0 0 C0.33 0.66 0.66 1.32 1 2 C0.34 1.67 -0.32 1.34 -1 1 C-0.67 0.67 -0.34 0.34 0 0 Z " fill="#17387A" transform="translate(328,122)"/>
<path d="" fill="#A9C937" transform="translate(0,0)"/>
<path d="M0 0 C2 1 2 1 2 1 Z " fill="#55611D" transform="translate(320,302)"/>
<path d="" fill="#0077FA" transform="translate(0,0)"/>
<path d="M0 0 C2 1 2 1 2 1 Z " fill="#A9C937" transform="translate(529,294)"/>
<path d="M0 0 C2 1 2 1 2 1 Z " fill="#0077FA" transform="translate(750,291)"/>
<path d="" fill="#52A6F5" transform="translate(0,0)"/>
<path d="" fill="#A9C937" transform="translate(0,0)"/>
<path d="M0 0 C2 1 2 1 2 1 Z " fill="#55611D" transform="translate(480,225)"/>
<path d="" fill="#52A6F5" transform="translate(0,0)"/>
<path d="" fill="#7F952A" transform="translate(0,0)"/>
<path d="M0 0 C2 1 2 1 2 1 Z " fill="#A9C937" transform="translate(573,209)"/>
<path d="M0 0 C2 1 2 1 2 1 Z " fill="#A9C937" transform="translate(501,206)"/>
<path d="M0 0 C2 1 2 1 2 1 Z " fill="#0077FA" transform="translate(849,201)"/>
<path d="" fill="#E6F779" transform="translate(0,0)"/>
<path d="" fill="#A9C937" transform="translate(0,0)"/>
<path d="" fill="#A9C937" transform="translate(0,0)"/>
<path d="" fill="#52A6F5" transform="translate(0,0)"/>
<path d="" fill="#A9C937" transform="translate(0,0)"/>
<path d="M0 0 C2 1 2 1 2 1 Z " fill="#17387A" transform="translate(681,162)"/>
<path d="" fill="#A9C937" transform="translate(0,0)"/>
<path d="M0 0 C2 1 2 1 2 1 Z " fill="#E6F779" transform="translate(255,151)"/>
<path d="M0 0 C2 1 2 1 2 1 Z " fill="#A9C937" transform="translate(67,151)"/>
<path d="" fill="#0077FA" transform="translate(0,0)"/>
<path d="" fill="#0077FA" transform="translate(0,0)"/>
<path d="" fill="#0077FA" transform="translate(0,0)"/>
<path d="" fill="#E6F779" transform="translate(0,0)"/>
<path d="" fill="#55611D" transform="translate(0,0)"/>
<path d="" fill="#A9C937" transform="translate(0,0)"/>
<path d="" fill="#55611D" transform="translate(0,0)"/>
<path d="" fill="#E6F779" transform="translate(0,0)"/>
<path d="" fill="#55611D" transform="translate(0,0)"/>
<path d="" fill="#A9C937" transform="translate(0,0)"/>
<path d="" fill="#E6F779" transform="translate(0,0)"/>
<path d="" fill="#E6F779" transform="translate(0,0)"/>
<path d="" fill="#E6F779" transform="translate(0,0)"/>
<path d="" fill="#E6F779" transform="translate(0,0)"/>
<path d="" fill="#55611D" transform="translate(0,0)"/>
<path d="" fill="#A9C937" transform="translate(0,0)"/>
<path d="" fill="#55611D" transform="translate(0,0)"/>
<path d="" fill="#A9C937" transform="translate(0,0)"/>
<path d="" fill="#A9C937" transform="translate(0,0)"/>
<path d="" fill="#55611D" transform="translate(0,0)"/>
<path d="" fill="#A9C937" transform="translate(0,0)"/>
<path d="" fill="#A9C937" transform="translate(0,0)"/>
<path d="" fill="#52A6F5" transform="translate(0,0)"/>
<path d="" fill="#E6F779" transform="translate(0,0)"/>
<path d="" fill="#55611D" transform="translate(0,0)"/>
<path d="" fill="#0077FA" transform="translate(0,0)"/>
<path d="" fill="#55611D" transform="translate(0,0)"/>
<path d="" fill="#A9C937" transform="translate(0,0)"/>
<path d="" fill="#A9C937" transform="translate(0,0)"/>
<path d="" fill="#52A6F5" transform="translate(0,0)"/>
<path d="" fill="#A9C937" transform="translate(0,0)"/>
<path d="" fill="#A9C937" transform="translate(0,0)"/>
<path d="" fill="#0077FA" transform="translate(0,0)"/>
<path d="" fill="#A9C937" transform="translate(0,0)"/>
<path d="" fill="#A9C937" transform="translate(0,0)"/>
<path d="" fill="#52A6F5" transform="translate(0,0)"/>
<path d="" fill="#52A6F5" transform="translate(0,0)"/>
<path d="" fill="#52A6F5" transform="translate(0,0)"/>
<path d="" fill="#A9C937" transform="translate(0,0)"/>
<path d="" fill="#55611D" transform="translate(0,0)"/>
<path d="" fill="#A9C937" transform="translate(0,0)"/>
<path d="" fill="#0077FA" transform="translate(0,0)"/>
<path d="" fill="#0077FA" transform="translate(0,0)"/>
<path d="" fill="#52A6F5" transform="translate(0,0)"/>
<path d="" fill="#A9C937" transform="translate(0,0)"/>
<path d="" fill="#A9C937" transform="translate(0,0)"/>
<path d="" fill="#0077FA" transform="translate(0,0)"/>
<path d="" fill="#0077FA" transform="translate(0,0)"/>
<path d="" fill="#D0ECF2" transform="translate(0,0)"/>
<path d="" fill="#0077FA" transform="translate(0,0)"/>
<path d="" fill="#A9C937" transform="translate(0,0)"/>
<path d="" fill="#0077FA" transform="translate(0,0)"/>
<path d="" fill="#52A6F5" transform="translate(0,0)"/>
<path d="" fill="#0077FA" transform="translate(0,0)"/>
<path d="" fill="#0077FA" transform="translate(0,0)"/>
<path d="" fill="#0077FA" transform="translate(0,0)"/>
<path d="" fill="#E6F779" transform="translate(0,0)"/>
<path d="" fill="#55611D" transform="translate(0,0)"/>
<path d="" fill="#0077FA" transform="translate(0,0)"/>
<path d="" fill="#A9C937" transform="translate(0,0)"/>
<path d="" fill="#A9C937" transform="translate(0,0)"/>
<path d="" fill="#A9C937" transform="translate(0,0)"/>
<path d="" fill="#A9C937" transform="translate(0,0)"/>
<path d="" fill="#0077FA" transform="translate(0,0)"/>
<path d="" fill="#A9C937" transform="translate(0,0)"/>
<path d="" fill="#A9C937" transform="translate(0,0)"/>
<path d="" fill="#55611D" transform="translate(0,0)"/>
<path d="" fill="#0077FA" transform="translate(0,0)"/>
<path d="" fill="#0077FA" transform="translate(0,0)"/>
<path d="" fill="#55611D" transform="translate(0,0)"/>
<path d="" fill="#A9C937" transform="translate(0,0)"/>
<path d="" fill="#17387A" transform="translate(0,0)"/>
<path d="" fill="#55611D" transform="translate(0,0)"/>
<path d="" fill="#17387A" transform="translate(0,0)"/>
<path d="" fill="#A9C937" transform="translate(0,0)"/>
<path d="" fill="#0077FA" transform="translate(0,0)"/>
<path d="" fill="#0077FA" transform="translate(0,0)"/>
<path d="" fill="#52A6F5" transform="translate(0,0)"/>
<path d="" fill="#A9C937" transform="translate(0,0)"/>
<path d="" fill="#A9C937" transform="translate(0,0)"/>
<path d="" fill="#A9C937" transform="translate(0,0)"/>
<path d="" fill="#D0ECF2" transform="translate(0,0)"/>
<path d="" fill="#A9C937" transform="translate(0,0)"/>
<path d="" fill="#A9C937" transform="translate(0,0)"/>
<path d="" fill="#A9C937" transform="translate(0,0)"/>
<path d="" fill="#17387A" transform="translate(0,0)"/>
<path d="" fill="#A9C937" transform="translate(0,0)"/>
<path d="" fill="#0077FA" transform="translate(0,0)"/>
<path d="" fill="#A9C937" transform="translate(0,0)"/>
<path d="" fill="#55611D" transform="translate(0,0)"/>
<path d="" fill="#0077FA" transform="translate(0,0)"/>
<path d="" fill="#A9C937" transform="translate(0,0)"/>
<path d="" fill="#0077FA" transform="translate(0,0)"/>
<path d="" fill="#0077FA" transform="translate(0,0)"/>
<path d="" fill="#A9C937" transform="translate(0,0)"/>
<path d="" fill="#52A6F5" transform="translate(0,0)"/>
<path d="" fill="#52A6F5" transform="translate(0,0)"/>
<path d="" fill="#52A6F5" transform="translate(0,0)"/>
<path d="" fill="#A9C937" transform="translate(0,0)"/>
<path d="" fill="#A9C937" transform="translate(0,0)"/>
<path d="" fill="#A9C937" transform="translate(0,0)"/>
<path d="" fill="#E6F779" transform="translate(0,0)"/>
<path d="" fill="#52A6F5" transform="translate(0,0)"/>
<path d="" fill="#0077FA" transform="translate(0,0)"/>
<path d="" fill="#A9C937" transform="translate(0,0)"/>
<path d="" fill="#E6F779" transform="translate(0,0)"/>
<path d="" fill="#E6F779" transform="translate(0,0)"/>
<path d="" fill="#E6F779" transform="translate(0,0)"/>
<path d="" fill="#55611D" transform="translate(0,0)"/>
<path d="" fill="#55611D" transform="translate(0,0)"/>
<path d="" fill="#17387A" transform="translate(0,0)"/>
<path d="" fill="#0077FA" transform="translate(0,0)"/>
<path d="" fill="#17387A" transform="translate(0,0)"/>
<path d="" fill="#0077FA" transform="translate(0,0)"/>
<path d="" fill="#55611D" transform="translate(0,0)"/>
<path d="" fill="#55611D" transform="translate(0,0)"/>
<path d="" fill="#A9C937" transform="translate(0,0)"/>
<path d="" fill="#A9C937" transform="translate(0,0)"/>
<path d="" fill="#17387A" transform="translate(0,0)"/>
<path d="" fill="#D0ECF2" transform="translate(0,0)"/>
<path d="" fill="#52A6F5" transform="translate(0,0)"/>
<path d="" fill="#52A6F5" transform="translate(0,0)"/>
<path d="" fill="#52A6F5" transform="translate(0,0)"/>
<path d="" fill="#52A6F5" transform="translate(0,0)"/>
</svg>
