<?xml version="1.0" encoding="UTF-8"?>
<!-- Generator: visioncortex VTracer 0.6.3 -->
<svg version="1.1" xmlns="http://www.w3.org/2000/svg" width="1280" height="221">
<path d="M0 0 C15.18 0 30.36 0 46 0 C46.03 3.54 46.05 7.09 46.08 10.74 C46.16 22.44 46.25 34.14 46.34 45.84 C46.39 52.94 46.45 60.04 46.5 67.13 C46.54 73.98 46.6 80.83 46.65 87.67 C46.67 90.29 46.69 92.9 46.71 95.51 C46.73 99.17 46.76 102.83 46.79 106.49 C46.8 108.11 46.8 108.11 46.81 109.77 C46.86 114.62 46.98 119.23 48 124 C48.66 124 49.32 124 50 124 C50.23 123.07 50.45 122.14 50.69 121.19 C52.22 117.47 53.4 116.62 57 115 C57.66 115 58.32 115 59 115 C59.04 114.38 59.08 113.77 59.12 113.13 C60.13 104.94 63.97 101.3 70 96 C70.97 95.01 71.93 94.01 72.88 93 C75 91 75 91 78 90 C78.35 88.67 78.69 87.34 79 86 C80.38 84.25 80.38 84.25 82 83 C82.99 83 83.98 83 85 83 C85.4 81.61 85.4 81.61 85.81 80.19 C86.93 77.2 87.48 75.84 90 74 C92.19 73.31 92.19 73.31 94 73 C94.08 72.24 94.17 71.47 94.25 70.69 C95 68 95 68 96.88 66.19 C99 65 99 65 102 65 C102.23 64.09 102.45 63.19 102.69 62.25 C104.26 58.35 105.4 57.14 109 55 C117.01 52.58 125.11 52.56 133.41 52.52 C135.83 52.5 138.23 52.44 140.65 52.38 C142.19 52.36 143.73 52.35 145.27 52.34 C145.99 52.32 146.7 52.29 147.44 52.27 C149.48 52.29 149.48 52.29 153 53 C155.79 56.32 158.11 59.56 158 64 C156 66.31 156 66.31 154.6 67.55 C152.71 69.26 151.1 71.13 149.44 73.06 C147.59 75.2 145.77 77.22 143.75 79.19 C141.87 80.99 141.87 80.99 140.5 83.56 C139 86 139 86 137 87.44 C134.75 88.96 134.75 88.96 133.56 92 C131.75 95.47 130.27 96.04 127 98 C126.5 98.99 126.01 99.98 125.5 101 C124 104 124 104 121.62 105.25 C117.98 107.68 117.05 110.75 115.25 114.65 C113.67 117.62 111.66 118.99 109 121 C107.35 123.34 105.83 125.73 104.33 128.17 C103.89 128.78 103.45 129.38 103 130 C102.34 130 101.68 130 101 130 C101 130.99 101 131.98 101 133 C101.62 133.12 102.24 133.25 102.88 133.38 C105 134 105 134 107 136 C107.1 136.97 107.21 137.94 107.31 138.94 C107.54 139.95 107.77 140.96 108 142 C108.77 142.45 109.53 142.89 110.32 143.36 C113.51 145.31 114.63 147.16 116.5 150.38 C118.47 153.64 120.1 156.1 122.81 158.81 C125 161 125 161 126 164.12 C126.72 167.2 126.72 167.2 129.5 168.5 C132 170 132 170 132.94 172.88 C134.13 176.39 135.52 177.29 138.42 179.44 C141.08 182.06 142.29 185.39 143.73 188.79 C144.81 191.14 144.81 191.14 147.06 192.02 C149 193 149 193 149.87 195.09 C150.15 196.28 150.15 196.28 150.44 197.5 C151.09 199.93 151.09 199.93 152 202 C152.83 202.31 153.65 202.62 154.5 202.94 C157 204 157 204 157.99 206.08 C159.68 211.43 160 215.18 160 221 C143.5 221 127 221 110 221 C110 219.35 110 217.7 110 216 C109.4 215.94 108.8 215.88 108.19 215.81 C105.07 214.65 104.43 212.93 103 210 C102.31 207.69 102.31 207.69 102 206 C101.38 205.88 100.76 205.75 100.12 205.62 C98 205 98 205 96 203 C95.81 201.51 95.81 201.51 95.62 200 C95.42 199.01 95.21 198.02 95 197 C93.17 195.87 93.17 195.87 91 195 C88.38 192.22 86.98 189.95 85.56 186.38 C84.34 182.89 84.34 182.89 81.56 181.56 C78.23 179.53 77.54 177.33 75.97 173.85 C74.74 171.51 73.13 170.51 71 169 C68 163.75 68 163.75 68 161 C67.42 160.81 66.85 160.63 66.25 160.44 C63.03 158.38 61.4 155.53 60 152 C60 150.68 60 149.36 60 148 C58.82 147.57 58.82 147.57 57.62 147.12 C54.43 145.76 53.33 144.71 51.88 141.56 C51 139 51 139 51 136 C50.34 136 49.68 136 49 136 C46.75 139.6 46.74 142.62 46.71 146.81 C46.7 147.83 46.7 147.83 46.69 148.86 C46.68 150.33 46.67 151.8 46.66 153.27 C46.66 155.6 46.64 157.93 46.61 160.26 C46.56 165.21 46.53 170.17 46.5 175.12 C46.46 180.85 46.42 186.58 46.36 192.3 C46.34 194.58 46.34 196.86 46.33 199.14 C46.31 200.57 46.3 201.99 46.29 203.41 C46.28 204.64 46.27 205.86 46.27 207.13 C45.95 211.8 44.92 216.41 44 221 C29.81 221 15.62 221 1 221 C-0.12 212 -0.12 212 -0.12 208.69 C-0.13 207.93 -0.13 207.17 -0.13 206.39 C-0.13 205.59 -0.12 204.78 -0.12 203.95 C-0.12 203.08 -0.12 202.2 -0.12 201.3 C-0.12 198.38 -0.12 195.46 -0.11 192.54 C-0.11 190.44 -0.11 188.34 -0.11 186.24 C-0.11 180.55 -0.11 174.87 -0.1 169.18 C-0.1 163.23 -0.09 157.28 -0.09 151.33 C-0.09 140.07 -0.08 128.82 -0.07 117.56 C-0.06 104.74 -0.06 91.92 -0.05 79.1 C-0.04 52.73 -0.02 26.37 0 0 Z " fill="#FBFDFD" transform="translate(372,0)"/>
<path d="M0 0 C0.84 0.01 1.68 0.02 2.54 0.03 C4.94 0.06 7.35 0.12 9.75 0.19 C10.87 0.22 12 0.25 13.15 0.28 C18.4 0.58 22.21 1.55 26.78 4.14 C31.16 6.47 36.09 7.76 40.88 9 C44.27 10.4 46.41 12.32 49.04 14.85 C50.94 16.33 52.4 16.77 54.75 17.19 C54.75 17.85 54.75 18.51 54.75 19.19 C55.74 18.86 56.73 18.53 57.75 18.19 C58.14 19.12 58.53 20.04 58.94 21 C60.46 24.3 60.46 24.3 63.25 25.62 C66.7 27.78 67.19 30.52 68.75 34.19 C70.77 34.92 70.77 34.92 72.75 35.19 C74.46 38.05 75.42 41.07 76.38 44.25 C76.64 45.11 76.9 45.96 77.16 46.85 C77.75 49.19 77.75 49.19 77.75 52.19 C79.4 52.19 81.05 52.19 82.75 52.19 C82.75 70.01 82.75 87.83 82.75 106.19 C74.87 106.25 66.98 106.31 58.86 106.37 C53.87 106.41 48.88 106.45 43.89 106.49 C35.97 106.56 28.05 106.63 20.12 106.68 C13.74 106.73 7.35 106.78 0.96 106.84 C-1.47 106.86 -3.91 106.88 -6.35 106.9 C-9.76 106.92 -13.17 106.95 -16.58 106.98 C-17.6 106.99 -18.61 106.99 -19.65 107 C-20.58 107.01 -21.51 107.02 -22.47 107.03 C-23.68 107.04 -23.68 107.04 -24.92 107.05 C-27.43 107.2 -29.79 107.64 -32.25 108.19 C-31.51 109.14 -30.77 110.08 -30 111.06 C-27.8 114.06 -26.67 116.78 -25.56 120.31 C-23.97 124.63 -22.4 126.09 -18.25 128.06 C-17.38 128.43 -16.5 128.79 -15.6 129.17 C-12.83 130.37 -11.07 131.78 -9.25 134.19 C-9.25 134.85 -9.25 135.51 -9.25 136.19 C-7.99 136.02 -6.74 135.86 -5.45 135.69 C0.01 135.08 5.4 135.11 10.88 135.19 C19.87 135.39 19.87 135.39 28.75 134.19 C30.13 132.56 31.47 130.89 32.75 129.19 C35.5 128.38 35.5 128.38 37.75 128.19 C38.24 126.7 38.24 126.7 38.75 125.19 C39.08 125.52 39.41 125.85 39.75 126.19 C41.67 126.15 41.67 126.15 43.75 125.19 C44.35 124.36 44.95 123.54 45.56 122.69 C47.75 120.19 47.75 120.19 51.25 119.25 C56.15 119.16 56.15 119.16 58.75 121.19 C59.18 122.15 59.18 122.15 59.62 123.12 C61.26 126.12 63.74 126.71 66.75 128.19 C69.75 131.49 69.75 131.49 69.75 134.19 C70.53 134.46 71.32 134.72 72.12 135 C74.75 136.19 74.75 136.19 76.75 139.19 C77.24 142.95 77.12 144.63 75 147.81 C72.95 149.98 70.89 152.11 68.75 154.19 C68.11 154.91 67.47 155.63 66.81 156.38 C64.44 158.46 62.85 158.84 59.75 159.19 C59.6 160.12 59.6 160.12 59.44 161.06 C58.75 163.19 58.75 163.19 55.75 165.19 C53.49 165.82 53.49 165.82 51.06 166.31 C49.85 166.56 49.85 166.56 48.61 166.82 C48 166.94 47.38 167.06 46.75 167.19 C46.75 168.84 46.75 170.49 46.75 172.19 C21.34 172.19 -4.07 172.19 -30.25 172.19 C-30.25 169.88 -30.25 167.57 -30.25 165.19 C-31.47 165.25 -32.68 165.31 -33.94 165.38 C-40.96 165.34 -45.3 160.72 -50.25 156.19 C-51.55 154.86 -51.55 154.86 -52.88 153.5 C-55.08 151.13 -55.08 151.13 -57.64 149.94 C-60.98 147.7 -62.32 145.28 -64.31 141.81 C-67.04 137.08 -67.04 137.08 -70.39 132.79 C-72.89 129.29 -73.36 126.07 -74 121.88 C-74.13 121.13 -74.25 120.39 -74.38 119.63 C-74.68 117.82 -74.97 116 -75.25 114.19 C-75.91 114.19 -76.57 114.19 -77.25 114.19 C-83.36 106.8 -82.53 95.03 -82.38 86 C-82.37 84.95 -82.36 83.91 -82.35 82.83 C-82.32 80.28 -82.29 77.73 -82.25 75.19 C-81.92 75.19 -81.59 75.19 -81.25 75.19 C-81.07 74.51 -80.89 73.84 -80.7 73.14 C-80.45 72.25 -80.2 71.36 -79.94 70.44 C-79.69 69.56 -79.45 68.67 -79.2 67.77 C-78.25 65.19 -78.25 65.19 -76.72 63.19 C-74.95 60.78 -74.56 58.87 -74.06 55.94 C-73.82 54.6 -73.82 54.6 -73.58 53.23 C-73.47 52.56 -73.36 51.88 -73.25 51.19 C-73.91 50.86 -74.57 50.53 -75.25 50.19 C-74.26 50.19 -73.27 50.19 -72.25 50.19 C-72.15 49.42 -72.04 48.66 -71.94 47.88 C-71.2 45 -70.58 43.96 -68.25 42.19 C-67.59 42.19 -66.93 42.19 -66.25 42.19 C-66.12 41.63 -65.98 41.07 -65.84 40.5 C-64 33.91 -61 30.02 -56.12 25.31 C-55.5 24.66 -54.87 24.01 -54.23 23.34 C-50.15 19.32 -46.75 17.25 -41.14 15.98 C-38.61 14.92 -38.36 13.62 -37.25 11.19 C-34.25 9.19 -34.25 9.19 -31.25 9.19 C-30.92 8.53 -30.59 7.87 -30.25 7.19 C-28.36 6.91 -28.36 6.91 -26 6.81 C-21.53 6.42 -19.66 5.15 -16.25 2.19 C-10.75 0.19 -5.82 -0.1 0 0 Z M-10.35 43.96 C-12.25 45.19 -12.25 45.19 -15.62 46.19 C-19.02 47.48 -19.51 49.08 -21.25 52.19 C-22.08 52.6 -22.9 53.01 -23.75 53.44 C-27.58 56.12 -28.13 59.8 -29.25 64.19 C-29.52 64.86 -29.8 65.53 -30.08 66.22 C-30.49 68.36 -30.49 68.36 -28.64 70.28 C-25.59 72.71 -23.98 72.67 -20.1 72.64 C-18.86 72.64 -17.62 72.64 -16.34 72.64 C-14.99 72.62 -13.65 72.6 -12.3 72.58 C-10.91 72.57 -9.53 72.56 -8.14 72.56 C-4.51 72.55 -0.87 72.51 2.77 72.46 C6.48 72.42 10.19 72.4 13.91 72.38 C21.19 72.34 28.47 72.27 35.75 72.19 C37.59 67.9 38.24 65.74 36.75 61.19 C35.09 58.8 33.31 56.56 31.44 54.34 C29.75 52.19 29.75 52.19 29.03 50.14 C26.87 46.84 23.26 45.93 19.69 44.5 C11.82 41.26 11.82 41.26 10.75 40.19 C2.78 39.42 -3.59 39.46 -10.35 43.96 Z " fill="#FAFCFC" transform="translate(1197.25,48.8125)"/>
<path d="M0 0 C2.68 0.91 5.41 1.49 8.19 2.06 C16.89 3.87 16.89 3.87 19 7 C19 7.66 19 8.32 19 9 C20.76 9.34 20.76 9.34 22.56 9.69 C28.99 11.29 33.54 15.21 38 20 C38.99 20.99 38.99 20.99 40 22 C41.17 23.41 42.35 24.82 43.5 26.24 C44.56 27.48 45.65 28.68 46.78 29.86 C50.72 34.03 52.73 37.37 54.25 42.89 C55.06 45.17 56.03 46.52 57.62 48.31 C62.3 53.6 61.01 59.51 60.84 66.27 C61 69.95 61.78 72.56 63 76 C63.7 83.83 64.42 95.37 60 102 C59.79 105.41 59.92 107.75 61 111 C60.18 113.98 59.62 115.57 57.04 117.35 C54.56 119.36 54.05 120.87 53.06 123.88 C51.43 128.29 49.65 130.91 46 134 C43.38 136.24 43.38 136.24 42.62 139.56 C42.42 140.37 42.21 141.17 42 142 C40.34 142.67 38.67 143.34 37 144 C36.36 145.01 35.72 146.02 35.06 147.06 C33 150 33 150 29.75 150.88 C28.84 150.92 27.93 150.96 27 151 C27 151.66 27 152.32 27 153 C26.34 153 25.68 153 25 153 C24.79 153.6 24.59 154.2 24.38 154.81 C21.36 159.62 15.2 160.65 10 162 C9.67 163.32 9.34 164.64 9 166 C-14.76 166 -38.52 166 -63 166 C-63 164.35 -63 162.7 -63 161 C-64.18 160.9 -65.35 160.79 -66.56 160.69 C-70.88 160.14 -74.16 159.07 -78 157 C-78.68 155.67 -79.35 154.34 -80 153 C-81.98 152.28 -83.98 151.62 -86 151 C-88.5 149.02 -88.96 148.11 -90 145 C-90.95 144.57 -91.9 144.13 -92.88 143.69 C-96.7 141.62 -97.17 139.83 -99 136 C-99.83 135.55 -100.65 135.09 -101.5 134.62 C-104.8 132.48 -105.09 130.42 -106.25 126.79 C-107.27 124.35 -108.64 124.03 -111 123 C-113.96 118.62 -114.37 114.65 -114.76 109.53 C-115.18 105.13 -115.73 100.6 -118.54 97.06 C-120.27 94.62 -120.4 93.32 -120.43 90.37 C-120.44 89.48 -120.46 88.6 -120.47 87.69 C-120.46 86.76 -120.45 85.83 -120.44 84.88 C-120.43 83.45 -120.43 83.45 -120.42 82 C-120.3 76.15 -119.71 71.43 -117.02 66.15 C-115.2 62.33 -114.67 58.16 -114 54 C-114.66 53.67 -115.32 53.34 -116 53 C-114.51 52.5 -114.51 52.5 -113 52 C-112.94 51.28 -112.88 50.56 -112.81 49.81 C-112 47 -112 47 -109.5 44.69 C-106.65 41.63 -106.64 40.03 -106.35 35.98 C-105.35 30.32 -99.24 26.41 -95.1 22.93 C-92.86 20.87 -91.04 18.67 -89.12 16.31 C-85.59 12.2 -82.41 10.59 -77.32 8.9 C-74.97 7.99 -73.59 7.01 -71.75 5.31 C-68.69 2.74 -66.89 2.45 -63 2 C-62.67 1.34 -62.34 0.68 -62 0 C-62 0.66 -62 1.32 -62 2 C-55.82 1.04 -55.82 1.04 -50.5 -2 C-39.42 -10.86 -10.82 -7.26 0 0 Z M-33.98 38.13 C-36.26 38.29 -38.54 38.48 -40.81 38.69 C-41.91 38.77 -41.91 38.77 -43.03 38.85 C-48.32 39.41 -50.63 40.96 -54 45 C-56.51 47.51 -59.02 50.02 -61.56 52.5 C-62.77 53.74 -62.77 53.74 -64 55 C-64.72 55.72 -65.44 56.44 -66.19 57.19 C-68.79 61.22 -69.23 65.32 -70 70 C-70.18 70.62 -70.36 71.24 -70.54 71.88 C-72.18 79.42 -71.5 87.78 -69 95 C-68.65 96.68 -68.32 98.37 -68 100.06 C-66.86 107.62 -66.86 107.62 -62 113.06 C-60.51 114.02 -60.51 114.02 -59 115 C-58.69 115.87 -58.38 116.73 -58.06 117.62 C-57.16 120.39 -57.16 120.39 -53.62 121.31 C-49.96 122.12 -49.96 122.12 -46 122 C-46 122.66 -46 123.32 -46 124 C-45.28 124.27 -44.56 124.54 -43.81 124.81 C-41 126 -41 126 -38.89 127.55 C-34.88 129.56 -31.42 129.44 -27 129.38 C-26.21 129.39 -25.41 129.4 -24.59 129.41 C-19.85 129.39 -16.92 128.91 -13 126 C-3.06 120.19 -3.06 120.19 0.06 119.62 C2.77 118.75 3.56 117.41 5 115 C5.12 114.38 5.25 113.76 5.38 113.12 C6.7 108.63 10.21 105.53 14 103 C15.28 95.75 15.18 88.41 15.19 81.06 C15.2 79.95 15.21 78.83 15.22 77.68 C15.24 71.09 15.23 64.29 13 58 C10.57 56.21 10.57 56.21 8 55 C7.6 53.48 7.6 53.48 7.19 51.94 C6.6 50.48 6.6 50.48 6 49 C3.94 48.26 2.05 47.94 -0.12 47.71 C-0.74 47.48 -1.36 47.24 -2 47 C-2.24 46.2 -2.47 45.41 -2.72 44.59 C-3.7 41.93 -3.7 41.93 -5.68 41.22 C-7.94 40.59 -10.19 40.11 -12.5 39.69 C-13.32 39.52 -14.15 39.36 -14.99 39.19 C-21.53 37.95 -27.36 37.69 -33.98 38.13 Z " fill="#FAFCFC" transform="translate(854,55)"/>
<path d="M0 0 C0.77 0.01 1.54 0.01 2.34 0.02 C22.73 0.38 22.73 0.38 31.5 6.25 C34.82 7.34 38.24 7.94 41.67 8.58 C46.74 9.68 49.05 11.47 52.5 15.25 C54.4 16.19 54.4 16.19 56.31 16.62 C60.69 18.05 63.45 20.57 66.74 23.73 C68.53 25.47 68.53 25.47 71.5 26.25 C72.53 27.9 73.52 29.57 74.5 31.25 C76.22 33.55 78 35.81 79.78 38.07 C80.35 38.79 80.92 39.51 81.5 40.25 C82.04 40.92 82.58 41.59 83.13 42.28 C84.51 44.27 85.21 45.95 85.94 48.25 C87.18 51.8 88.74 53.67 91.5 56.25 C92.45 59.11 92.64 61.75 92.62 64.75 C92.63 65.5 92.63 66.26 92.63 67.03 C92.5 69.25 92.5 69.25 91.8 71.09 C91.4 73.98 92.58 75.71 93.78 78.27 C95.08 81.84 94.85 85.43 94.75 89.19 C94.74 89.95 94.74 90.71 94.73 91.49 C94.67 96.48 94.2 101.31 93.5 106.25 C92.84 106.25 92.18 106.25 91.5 106.25 C91.38 111.11 91.38 111.11 92.19 115.88 C92.63 119.21 91.49 120.62 89.5 123.25 C88.51 123.91 87.52 124.57 86.5 125.25 C85.45 127.76 85.45 127.76 84.62 130.62 C83.08 135.16 81.86 137.84 77.5 140.25 C76.84 140.25 76.18 140.25 75.5 140.25 C75.58 140.99 75.66 141.74 75.75 142.5 C75.42 146.14 74.23 146.89 71.5 149.25 C70.7 150.1 69.89 150.94 69.06 151.81 C63.35 157.25 63.35 157.25 59.5 157.25 C58.67 158.31 57.89 159.4 57.12 160.5 C53.55 164.93 49.39 165.89 44.01 167.23 C43.18 167.57 42.35 167.9 41.5 168.25 C41.17 169.57 40.84 170.89 40.5 172.25 C17.07 172.25 -6.36 172.25 -30.5 172.25 C-30.83 170.93 -31.16 169.61 -31.5 168.25 C-32.46 168.02 -33.43 167.79 -34.42 167.55 C-35.69 167.22 -36.95 166.9 -38.25 166.56 C-39.5 166.25 -40.76 165.94 -42.05 165.61 C-45.93 164.08 -47.13 162.59 -49.5 159.25 C-51.48 158.22 -53.48 157.21 -55.5 156.25 C-57.5 153.25 -57.5 153.25 -57.5 150.25 C-58.26 150.15 -59.03 150.04 -59.81 149.94 C-62.76 149.18 -63.75 148.7 -65.5 146.25 C-66.19 143.56 -66.19 143.56 -66.5 141.25 C-67.61 141.28 -67.61 141.28 -68.75 141.31 C-71.5 140.25 -71.5 140.25 -72.55 138.32 C-73.17 136.75 -73.76 135.17 -74.31 133.57 C-75.36 131.05 -75.36 131.05 -78 129.61 C-81.82 126.01 -81.86 121.93 -82.56 116.88 C-83.49 109.62 -83.49 109.62 -86.59 103.14 C-89.2 99.18 -89.07 96.07 -88.94 91.44 C-88.93 90.64 -88.91 89.84 -88.9 89.01 C-88.74 83.29 -87.83 78.5 -85.5 73.25 C-83.9 68.38 -83.29 64.38 -83.5 59.25 C-82.84 59.25 -82.18 59.25 -81.5 59.25 C-81.44 58.34 -81.38 57.44 -81.31 56.5 C-80.5 53.25 -80.5 53.25 -78.12 51.56 C-75.08 48.88 -75.15 48.14 -74.49 44.3 C-72.55 36.71 -67.63 32.42 -62.06 27.19 C-61.1 26.24 -60.13 25.3 -59.17 24.35 C-54.64 19.96 -50.99 16.47 -45 14.38 C-42.38 13.4 -42.38 13.4 -40.62 11.19 C-37.76 8.57 -35.27 8.68 -31.5 8.25 C-31.17 7.59 -30.84 6.93 -30.5 6.25 C-30.5 6.91 -30.5 7.57 -30.5 8.25 C-24.6 7.27 -21.17 6.08 -16.5 2.25 C-10.89 0.53 -5.84 -0.07 0 0 Z M-4.56 44.32 C-12.56 44.65 -18.12 45.56 -23.75 51.56 C-25.36 53.44 -26.94 55.33 -28.5 57.25 C-30.15 58.93 -31.81 60.6 -33.5 62.25 C-36.25 65 -36.32 67.4 -37.06 71.19 C-38.43 78.04 -38.43 78.04 -39.5 81.25 C-40.08 88.51 -39.41 94.86 -37.16 101.78 C-36.46 104.39 -36.47 106.56 -36.5 109.25 C-35.91 112.15 -35.06 114.73 -33.5 117.25 C-31.52 117.98 -29.52 118.65 -27.5 119.25 C-27.25 120.2 -27 121.15 -26.75 122.12 C-25.84 125.35 -25.84 125.35 -23.38 126.43 C-20.77 127.43 -18.14 128.35 -15.5 129.25 C-12.59 130.62 -9.97 131.9 -7.39 133.82 C-3.38 135.8 0.08 135.69 4.5 135.62 C5.29 135.64 6.09 135.65 6.91 135.66 C11.64 135.64 14.6 135.18 18.5 132.25 C21.76 130.21 24.9 128.59 28.5 127.25 C28.5 126.59 28.5 125.93 28.5 125.25 C29.37 125.62 29.37 125.62 30.25 126 C32.65 126.53 32.65 126.53 34.69 124.62 C36.66 122.41 36.66 122.41 36.94 119.81 C37.72 116.23 39.89 114.73 42.5 112.25 C42.5 111.59 42.5 110.93 42.5 110.25 C43.49 109.92 44.48 109.59 45.5 109.25 C47.35 97.17 48.03 85.87 46.69 73.69 C46.62 73 46.55 72.3 46.48 71.59 C46.12 68.74 45.82 66.66 44.05 64.35 C42.48 63.18 42.48 63.18 40.5 62.25 C39.91 60.58 39.91 60.58 39.31 58.88 C37.95 55.45 37.62 55.31 34 53.56 C32.85 53.13 31.69 52.7 30.5 52.25 C29.9 51.29 29.9 51.29 29.28 50.31 C26.62 47.24 23.32 46.81 19.5 46 C18.35 45.75 18.35 45.75 17.17 45.49 C9.74 43.95 2.96 44.19 -4.56 44.32 Z " fill="#FAFCFC" transform="translate(250.5,48.75)"/>
<path d="M0 0 C3.43 1.5 6.73 2.44 10.38 3.25 C15.15 4.5 17.88 6.17 21.37 9.59 C23.13 11.12 24.63 11.78 26.81 12.56 C30.68 14.31 30.55 15.24 32 19 C34 19.68 36 20.35 38 21 C41 25 41 25 41 28 C42.32 28.33 43.64 28.66 45 29 C47 35.75 47 35.75 47 38 C48.11 38.09 48.11 38.09 49.25 38.19 C52.95 39.28 53.87 40.81 56 44 C56.91 47.34 56.91 47.34 57.5 50.94 C58.53 56.35 59.56 59.76 63 64 C64.76 69.28 64.19 74.98 64.19 80.51 C64.19 82.73 64.21 84.94 64.22 87.16 C64.23 88.58 64.23 90 64.23 91.42 C64.23 92.71 64.24 93.99 64.24 95.32 C63.88 100.88 63.11 105.16 59 109 C58.22 111.26 58.22 111.26 57.81 113.69 C57.65 114.5 57.5 115.3 57.33 116.14 C57.22 116.75 57.11 117.37 57 118 C56.34 118 55.68 118 55 118 C54.92 119.09 54.84 120.19 54.75 121.31 C53.86 125.67 53.34 125.52 50 128 C48.87 130.24 47.94 132.51 47.03 134.84 C45.95 137.1 44.94 138.43 43 140 C42.34 140 41.68 140 41 140 C40.66 140.8 40.66 140.8 40.31 141.62 C37.19 147.28 34.01 150.57 28 153 C27.28 153.12 26.56 153.25 25.81 153.38 C23.72 153.86 23.72 153.86 22.74 156.41 C20.57 159.64 19.06 160.02 15.38 161.06 C12.45 161.82 12.45 161.82 10 163 C9.67 164.32 9.34 165.64 9 167 C-15.09 167 -39.18 167 -64 167 C-64.33 165.68 -64.66 164.36 -65 163 C-65.66 162.67 -66.32 162.34 -67 162 C-67 161.34 -67 160.68 -67 160 C-67.59 160.03 -68.18 160.07 -68.79 160.11 C-73.76 160.28 -76.98 160.24 -81 157 C-82.69 155.35 -84.35 153.69 -86 152 C-87.27 151.01 -87.27 151.01 -88.56 150 C-91.14 147.89 -92.93 145.59 -95 143 C-95.78 142.42 -96.57 141.84 -97.38 141.25 C-100.51 138.56 -102.39 135.63 -104.58 132.16 C-106.02 129.85 -106.02 129.85 -108.25 127.5 C-110.4 124.43 -110.82 121.77 -111.51 118.14 C-112.35 114.48 -114.38 111.81 -116.62 108.88 C-120.44 100.9 -119.18 90.1 -119.19 81.44 C-119.2 80.28 -119.21 79.13 -119.22 77.94 C-119.26 59.84 -119.26 59.84 -114 54 C-113.34 54 -112.68 54 -112 54 C-111.34 51.36 -110.68 48.72 -110 46 C-110.66 45.67 -111.32 45.34 -112 45 C-111.01 44.5 -111.01 44.5 -110 44 C-109.73 43.26 -109.46 42.52 -109.19 41.75 C-107.72 38.35 -105.64 36.57 -103 34 C-101.98 32.39 -101.98 32.39 -100.94 30.75 C-98.76 27.66 -98.39 27.79 -95 27 C-93.89 24.61 -93.89 24.61 -93 22 C-91 19.56 -90.09 19.03 -87 18 C-86.63 17.22 -86.26 16.43 -85.88 15.62 C-83.4 12.16 -81.09 11.83 -77.06 10.87 C-74.4 9.75 -74.21 8.54 -73 6 C-71.23 4.99 -71.23 4.99 -69.19 4.31 C-68.48 4.07 -67.77 3.83 -67.04 3.59 C-65 3 -65 3 -62.12 2.44 C-59.79 2.16 -59.79 2.16 -58 0 C-58 0.66 -58 1.32 -58 2 C-57.09 1.49 -57.09 1.49 -56.16 0.98 C-40.53 -7.34 -15.88 -8.53 0 0 Z M-44.94 40.62 C-45.67 40.77 -46.41 40.91 -47.16 41.05 C-51.2 41.98 -52.81 42.75 -55.35 46.09 C-56.17 47.53 -56.17 47.53 -57 49 C-57.83 49.29 -58.65 49.58 -59.5 49.88 C-62.98 51.44 -63.52 53.66 -65.03 57.04 C-66.26 59.52 -68.02 61.09 -70 63 C-72.83 68.85 -72.66 74.93 -72.94 81.31 C-73.02 82.51 -73.1 83.71 -73.18 84.94 C-73.51 92.38 -73.02 97.31 -68 103 C-67.34 103.66 -66.68 104.32 -66 105 C-65.67 106.47 -65.41 107.95 -65.19 109.44 C-64.49 113.23 -64.49 113.23 -61.62 115.75 C-60.76 116.16 -59.89 116.57 -59 117 C-58.16 118.24 -58.16 118.24 -57.31 119.5 C-54.31 122.75 -51.6 123.17 -47.41 124.25 C-44.33 125.21 -42.36 126.85 -40 129 C-35.74 130.42 -31.65 130.26 -27.19 130.31 C-26.3 130.34 -25.41 130.37 -24.49 130.4 C-17.39 130.47 -14.45 128.9 -9.06 124.38 C-7 123 -7 123 -3.56 122.12 C0.52 120.84 2.3 119.27 5 116 C5 115.34 5 114.68 5 114 C5.63 113.92 6.25 113.85 6.9 113.77 C9.17 113.21 9.17 113.21 9.98 111.07 C10.19 110.29 10.4 109.5 10.62 108.69 C12.81 100.92 12.81 100.92 15.62 98.75 C17.94 95.8 17.17 92.66 17 89 C17 87 17 87 18 86 C18.6 79.85 18.2 75.38 15 70 C14.34 68.57 13.69 67.13 13.06 65.69 C12.72 64.92 12.37 64.16 12.02 63.37 C11.34 61.8 10.72 60.21 10.14 58.6 C8.11 53.23 6.13 50.85 1.04 48.19 C-1.09 46.95 -2.3 45.63 -3.94 43.81 C-9.42 38.91 -17.99 39.41 -25 39 C-25.97 38.92 -26.95 38.84 -27.95 38.75 C-33.76 38.46 -39.28 39.44 -44.94 40.62 Z " fill="#FAFCFB" transform="translate(654,54)"/>
<path d="M0 0 C2.59 0.87 2.59 0.87 5.12 1.38 C10.06 2.72 11.4 4.55 14 9 C15.99 10.02 17.99 11.02 20 12 C21.03 13.65 22.03 15.32 23 17 C23.8 17.41 24.61 17.83 25.44 18.25 C28.83 20.57 29.53 23.05 31.02 26.79 C32.25 29.58 34.06 31.66 36 34 C37.05 37.13 37.12 40.05 37.12 43.34 C37.12 44.96 37.12 44.96 37.12 46.62 C37.12 47.8 37.12 48.99 37.11 50.2 C37.11 51.45 37.11 52.7 37.11 53.99 C37.11 57.41 37.11 60.83 37.1 64.25 C37.1 67.83 37.09 71.41 37.09 74.98 C37.09 81.75 37.08 88.53 37.07 95.3 C37.06 103.01 37.06 110.72 37.05 118.43 C37.04 134.28 37.02 150.14 37 166 C22.15 166 7.3 166 -8 166 C-10.3 149.92 -10.3 149.92 -10.29 141.77 C-10.29 140.85 -10.3 139.93 -10.31 138.98 C-10.32 137.01 -10.33 135.05 -10.34 133.08 C-10.34 129.96 -10.36 126.85 -10.39 123.73 C-10.44 116.01 -10.48 108.29 -10.52 100.57 C-10.55 94.01 -10.59 87.45 -10.64 80.89 C-10.66 77.82 -10.66 74.76 -10.67 71.69 C-10.69 69.82 -10.7 67.94 -10.71 66.07 C-10.71 65.22 -10.71 64.37 -10.71 63.5 C-10.75 59.26 -10.9 55.8 -13 52 C-13.83 51.34 -14.65 50.68 -15.5 50 C-18 48 -18 48 -18.69 45.44 C-20.26 42.52 -20.95 42.29 -24 41.19 C-34.4 38.53 -46.35 39.15 -56.74 41.56 C-59.21 42.04 -61.49 42.07 -64 42 C-64.1 42.74 -64.21 43.48 -64.31 44.25 C-65.05 47.2 -65.95 48.78 -68 51 C-68.66 51 -69.32 51 -70 51 C-71.26 55.88 -71.17 60.69 -71.19 65.7 C-71.2 66.67 -71.21 67.64 -71.21 68.64 C-71.23 70.75 -71.25 72.85 -71.26 74.96 C-71.28 78.3 -71.31 81.63 -71.34 84.97 C-71.4 92.07 -71.45 99.16 -71.5 106.25 C-71.56 114.46 -71.62 122.66 -71.69 130.87 C-71.72 134.15 -71.74 137.43 -71.76 140.71 C-71.78 142.74 -71.79 144.76 -71.81 146.79 C-71.81 147.69 -71.82 148.59 -71.82 149.53 C-71.83 150.38 -71.84 151.24 -71.85 152.12 C-71.85 152.85 -71.86 153.58 -71.86 154.33 C-72.06 158.23 -72.57 162.12 -73 166 C-87.52 166 -102.04 166 -117 166 C-118.41 160.35 -119.25 156.84 -119.27 151.34 C-119.28 150.06 -119.28 148.79 -119.29 147.48 C-119.29 146.09 -119.29 144.7 -119.29 143.31 C-119.3 141.83 -119.3 140.35 -119.31 138.87 C-119.33 134.87 -119.33 130.86 -119.33 126.86 C-119.34 124.36 -119.34 121.86 -119.35 119.36 C-119.36 110.62 -119.37 101.89 -119.37 93.16 C-119.37 85.02 -119.39 76.89 -119.42 68.75 C-119.45 61.76 -119.46 54.76 -119.46 47.77 C-119.46 43.6 -119.46 39.42 -119.48 35.25 C-119.5 31.33 -119.5 27.41 -119.49 23.49 C-119.49 22.05 -119.49 20.61 -119.5 19.17 C-119.52 17.21 -119.51 15.24 -119.49 13.28 C-119.5 12.18 -119.5 11.08 -119.5 9.95 C-118.88 6.3 -117.52 4.65 -115 2 C-108.33 -2.72 -100.75 -2.64 -92.88 -2.56 C-91.16 -2.6 -91.16 -2.6 -89.42 -2.63 C-82.29 -2.62 -78.21 -2.01 -73 3 C-72.09 5.73 -71.82 7.62 -71.68 10.45 C-71.64 11.3 -71.6 12.14 -71.56 13.02 C-71.52 13.9 -71.48 14.78 -71.44 15.69 C-71.39 16.58 -71.35 17.47 -71.31 18.39 C-71.2 20.59 -71.1 22.8 -71 25 C-70.56 23.87 -70.12 22.74 -69.66 21.57 C-67.73 17.42 -67.03 17.49 -63 16 C-62.33 13.56 -62.33 13.56 -62 11 C-60.44 9.19 -60.44 9.19 -59 8 C-58.34 8.33 -57.68 8.66 -57 9 C-56.67 8.01 -56.34 7.02 -56 6 C-52.83 3.51 -50.28 2.08 -46.38 1 C-42.96 0.28 -42.96 0.28 -41 -2 C-31.99 -11.01 -9.02 -6.31 0 0 Z M-53 38 C-49 39 -49 39 -49 39 Z M-35 38 C-31 39 -31 39 -31 39 Z " fill="#FAFCFC" transform="translate(1057,55)"/>
<path d="M0 0 C1.29 -0.03 1.29 -0.03 2.61 -0.06 C8.72 -0.1 13.66 0.96 19.31 3.25 C20.18 3.6 21.05 3.95 21.95 4.31 C24.07 5.28 26.19 6.27 28.31 7.25 C29.95 7.93 29.95 7.93 31.62 8.62 C34.96 10.64 36.22 13.01 38.31 16.25 C39.12 16.69 39.94 17.12 40.77 17.57 C44.01 19.71 44.58 21.5 45.88 25.12 C47.1 28.51 48.13 31.02 50.39 33.84 C56.5 41.5 55.03 55.87 54.31 65.25 C53.74 68.78 53.16 72.16 51.31 75.25 C50.64 75.57 49.98 75.89 49.29 76.23 C47.13 77.07 47.13 77.07 46.48 79.27 C46.21 80.44 46.21 80.44 45.94 81.62 C44.55 86.39 42.62 87.74 38.31 90.25 C37.88 91.07 37.45 91.9 37 92.75 C34.72 96.12 32.16 96.8 28.46 98.28 C25.82 99.47 24.27 101.15 22.31 103.25 C18.87 104.89 15.97 105.53 12.18 105.7 C10.72 105.76 10.72 105.76 9.23 105.83 C8.23 105.87 7.22 105.9 6.19 105.94 C5.21 105.98 4.22 106.03 3.21 106.08 C-17.03 106.89 -17.03 106.89 -25.12 100.25 C-27.69 98.06 -27.69 98.06 -31.25 96.81 C-35.01 95.1 -36.27 93.5 -38.69 90.25 C-39.34 89.95 -40 89.66 -40.68 89.35 C-43.75 87.67 -44.29 85.17 -45.56 82.03 C-46.71 79.75 -46.71 79.75 -50.69 79.25 C-50.69 61.76 -50.69 44.27 -50.69 26.25 C-49.04 25.92 -47.39 25.59 -45.69 25.25 C-43.99 23.6 -43.99 23.6 -42.69 21.5 C-40.28 18.05 -37.8 15.12 -34.69 12.25 C-34.01 11.55 -33.33 10.85 -32.62 10.12 C-28.78 7.67 -24.98 7.01 -20.53 6.16 C-17.26 5.11 -16.02 3.69 -13.69 1.25 C-9.24 -0.23 -4.64 0.03 0 0 Z " fill="#E9533B" transform="translate(50.6875,49.75)"/>
<path d="M0 0 C0.86 -0 1.72 -0.01 2.6 -0.02 C5.44 -0.03 8.27 -0.04 11.1 -0.04 C13.08 -0.05 15.05 -0.05 17.03 -0.06 C21.16 -0.07 25.3 -0.08 29.43 -0.08 C34.72 -0.08 40.02 -0.11 45.31 -0.14 C49.39 -0.16 53.46 -0.16 57.54 -0.16 C59.49 -0.17 61.44 -0.17 63.39 -0.19 C66.12 -0.2 68.85 -0.2 71.59 -0.2 C72.39 -0.2 73.19 -0.21 74.02 -0.22 C79.82 -0.18 84.11 0.92 88.36 5.16 C88.82 9.75 88.68 14.37 88.67 18.97 C88.69 20.26 88.7 21.54 88.72 22.87 C88.72 24.1 88.72 25.34 88.72 26.62 C88.72 27.75 88.73 28.89 88.73 30.05 C88.31 33.53 87.19 35.23 85.36 38.16 C85.03 40.14 84.7 42.12 84.36 44.16 C52.02 44.16 19.68 44.16 -13.64 44.16 C-13.64 29.97 -13.64 15.78 -13.64 1.16 C-8.98 0.23 -4.71 0.01 0 0 Z " fill="#563E8F" transform="translate(13.642333984375,176.8388671875)"/>
<path d="M0 0 C1.29 -0.03 1.29 -0.03 2.61 -0.06 C8.72 -0.1 13.66 0.96 19.31 3.25 C20.18 3.6 21.05 3.95 21.95 4.31 C24.07 5.28 26.19 6.27 28.31 7.25 C29.95 7.93 29.95 7.93 31.62 8.62 C34.96 10.64 36.22 13.01 38.31 16.25 C39.53 16.9 39.53 16.9 40.77 17.57 C44.01 19.71 44.58 21.5 45.88 25.12 C47.1 28.51 48.13 31.02 50.39 33.84 C56.5 41.5 55.03 55.87 54.31 65.25 C53.74 68.78 53.16 72.16 51.31 75.25 C50.64 75.57 49.98 75.89 49.29 76.23 C47.13 77.07 47.13 77.07 46.48 79.27 C46.3 80.05 46.12 80.83 45.94 81.62 C44.55 86.39 42.62 87.74 38.31 90.25 C37.88 91.07 37.45 91.9 37 92.75 C34.72 96.13 32.1 96.92 28.37 98.36 C26.14 99.17 26.14 99.17 24.31 101.25 C24.35 100.64 24.38 100.02 24.42 99.39 C24.46 98.17 24.46 98.17 24.5 96.94 C24.53 96.14 24.57 95.34 24.61 94.51 C24.25 91.73 23.48 90.96 21.31 89.25 C20.32 88.75 20.32 88.75 19.31 88.25 C19.6 82.45 22.24 78.25 26.31 74.25 C29.35 73.13 31.24 73.26 34.31 74.25 C34.31 73.59 34.31 72.93 34.31 72.25 C35.3 72.25 36.29 72.25 37.31 72.25 C37.31 71.26 37.31 70.27 37.31 69.25 C36.32 69.58 35.33 69.91 34.31 70.25 C31.63 67.47 30.35 66.01 30.14 62.09 C30.28 60.94 30.42 59.8 30.56 58.62 C31.03 54.12 31.43 49.71 31.44 45.19 C31.44 44.35 31.44 43.51 31.45 42.65 C31.3 40.11 30.82 37.75 30.31 35.25 C30.31 33.93 30.31 32.61 30.31 31.25 C28.15 29.76 28.15 29.76 25.31 28.25 C24.13 27.25 22.96 26.23 21.81 25.19 C19.13 22.82 16.79 21.3 13.31 20.25 C13.31 16.95 13.31 13.65 13.31 10.25 C14.96 9.92 16.61 9.59 18.31 9.25 C18.31 7.6 18.31 5.95 18.31 4.25 C7.42 3.92 -3.47 3.59 -14.69 3.25 C-13.69 1.25 -13.69 1.25 -11.9 0.64 C-7.95 -0.05 -4 0.02 0 0 Z " fill="#E6543B" transform="translate(50.6875,49.75)"/>
<path d="M0 0 C0.86 -0 1.72 -0.01 2.6 -0.02 C5.44 -0.03 8.27 -0.04 11.1 -0.04 C13.08 -0.05 15.05 -0.05 17.03 -0.06 C21.16 -0.07 25.3 -0.08 29.43 -0.08 C34.72 -0.08 40.02 -0.11 45.31 -0.14 C49.39 -0.16 53.46 -0.16 57.54 -0.16 C59.49 -0.17 61.44 -0.17 63.39 -0.19 C66.12 -0.2 68.85 -0.2 71.59 -0.2 C72.39 -0.2 73.19 -0.21 74.02 -0.22 C79.82 -0.18 84.11 0.92 88.36 5.16 C88.6 7.93 88.6 7.93 88.59 11.41 C88.59 12.66 88.58 13.91 88.58 15.19 C88.57 16.5 88.56 17.81 88.55 19.16 C88.54 21.13 88.54 21.13 88.54 23.13 C88.5 32.88 88.5 32.88 87.36 35.16 C85.04 35.57 82.7 35.91 80.36 36.16 C78.28 33.05 78.12 32.53 78.27 29.04 C78.29 28.25 78.31 27.46 78.33 26.65 C78.39 24.99 78.45 23.33 78.52 21.68 C78.54 20.89 78.56 20.1 78.58 19.29 C78.61 18.57 78.64 17.85 78.67 17.11 C78.26 14.55 77.43 13.67 75.36 12.16 C72.36 12.41 70.05 12.81 67.36 14.16 C64.66 14.19 62 14.16 59.31 14.08 C58.5 14.05 57.69 14.03 56.85 14.01 C55.13 13.96 53.41 13.92 51.69 13.86 C49.09 13.79 46.5 13.72 43.91 13.65 C36.66 13.46 29.43 13.22 22.2 12.6 C17.14 12.17 12.24 12.13 7.17 12.47 C6.43 12.51 5.7 12.54 4.94 12.58 C0.69 12.73 0.69 12.73 -2.64 15.16 C-6.78 15.36 -9.72 15.47 -13.64 14.16 C-13.64 9.87 -13.64 5.58 -13.64 1.16 C-8.98 0.23 -4.71 0.01 0 0 Z " fill="#573C93" transform="translate(13.642333984375,176.8388671875)"/>
<path d="M0 0 C1.14 0.34 1.14 0.34 2.31 0.69 C3 2.94 3 2.94 3.31 5.69 C1.87 7.81 1.87 7.81 0.31 9.69 C0.31 10.68 0.31 11.67 0.31 12.69 C0.93 12.86 1.54 13.03 2.18 13.2 C8.82 15.2 8.82 15.2 11.25 17.62 C12.29 19.64 13.3 21.66 14.31 23.69 C15.33 23.64 15.33 23.64 16.36 23.58 C17.25 23.55 18.14 23.53 19.06 23.5 C20.39 23.45 20.39 23.45 21.73 23.39 C24.76 23.74 26.07 24.69 28.31 26.69 C27.98 29 27.65 31.31 27.31 33.69 C24.34 33.69 21.37 33.69 18.31 33.69 C20.23 33.87 20.23 33.87 22.19 34.06 C26.06 34.44 26.06 34.44 28.31 36.69 C31.02 36.59 31.02 36.59 34.06 36.12 C39.03 35.62 42.17 35.55 46.31 38.69 C46.64 39.68 46.97 40.67 47.31 41.69 C52.26 42.35 57.21 43.01 62.31 43.69 C58.08 47.92 51.95 47.07 46.31 47.31 C45.32 47.36 44.33 47.42 43.31 47.47 C23.02 48.37 23.02 48.37 14.88 41.69 C12.31 39.5 12.31 39.5 8.75 38.25 C4.99 36.54 3.73 34.94 1.31 31.69 C0.26 31.16 0.26 31.16 -0.81 30.62 C-2.69 29.69 -2.69 29.69 -4 28 C-4.98 24.71 -4.31 22.03 -3.69 18.69 C-3.46 16.32 -3.46 16.32 -6.19 14.06 C-7.01 13.28 -7.84 12.5 -8.69 11.69 C-7.7 11.03 -6.71 10.37 -5.69 9.69 C-5.69 8.55 -5.69 7.42 -5.69 6.25 C-5.69 2.69 -5.69 2.69 -4.5 0.69 C-2.69 -0.31 -2.69 -0.31 0 0 Z " fill="#DF553D" transform="translate(10.6875,108.3125)"/>
<path d="M0 0 C5.13 10.95 4.6 27.89 1.05 39.25 C0 41 0 41 -2.02 41.98 C-4.18 42.82 -4.18 42.82 -4.84 45.02 C-5.01 45.8 -5.19 46.58 -5.38 47.38 C-6.76 52.14 -8.69 53.49 -13 56 C-13.43 56.82 -13.87 57.65 -14.31 58.5 C-16.6 61.88 -19.21 62.67 -22.94 64.11 C-25.17 64.92 -25.17 64.92 -27 67 C-26.95 66.08 -26.95 66.08 -26.89 65.14 C-26.85 63.92 -26.85 63.92 -26.81 62.69 C-26.78 61.89 -26.74 61.09 -26.71 60.26 C-27.07 57.48 -27.83 56.71 -30 55 C-30.66 54.67 -31.32 54.34 -32 54 C-31.71 48.2 -29.07 44 -25 40 C-21.96 38.88 -20.07 39.01 -17 40 C-17 39.34 -17 38.68 -17 38 C-16.01 38 -15.02 38 -14 38 C-13.75 37.07 -13.5 36.14 -13.25 35.19 C-12 32 -12 32 -9.88 30.44 C-9.26 29.96 -8.64 29.49 -8 29 C-7.58 26.42 -7.58 26.42 -8 24 C-8.33 23.67 -8.66 23.34 -9 23 C-9.25 19.88 -9.19 16.75 -9.19 13.62 C-9.2 12.75 -9.21 11.87 -9.22 10.97 C-9.23 10.13 -9.23 9.28 -9.23 8.41 C-9.23 7.64 -9.24 6.87 -9.24 6.07 C-9 4 -9 4 -7 1 C-4.59 0.34 -2.49 0 0 0 Z " fill="#DB563D" transform="translate(102,84)"/>
<path d="M0 0 C0.33 0.66 0.66 1.32 1 2 C0.29 2.55 -0.42 3.11 -1.15 3.68 C-2.07 4.4 -2.99 5.13 -3.94 5.88 C-4.85 6.59 -5.77 7.31 -6.71 8.05 C-9.06 9.79 -9.06 9.79 -10 12 C-10.66 12 -11.32 12 -12 12 C-12 12.99 -12 13.98 -12 15 C-11.48 14.59 -10.97 14.17 -10.44 13.75 C-8.46 12.33 -6.56 11.17 -4.44 10 C-1.11 8.32 -1.11 8.32 0.44 6.31 C3.13 4.05 6.59 3.87 10 4 C10.91 4.32 11.83 4.65 12.77 4.98 C16.54 6.17 19.97 6.22 23.88 6.12 C24.56 6.12 25.25 6.11 25.96 6.1 C27.64 6.07 29.32 6.04 31 6 C31.66 7.32 32.32 8.64 33 10 C29.67 14.13 27.12 14.35 22 15 C20.98 15.98 19.98 16.98 19 18 C16.68 18.7 14.34 19.37 12 20 C11.01 20.66 10.02 21.32 9 22 C7.87 22.12 6.73 22.25 5.56 22.38 C0.51 23.26 -0.95 25.51 -3.81 29.56 C-6.52 32.58 -9.3 33.43 -13 35 C-13.66 36.32 -14.32 37.64 -15 39 C-17.97 38.67 -20.94 38.34 -24 38 C-24 31.73 -24 25.46 -24 19 C-22.35 18.67 -20.7 18.34 -19 18 C-17.3 16.35 -17.3 16.35 -16 14.25 C-11.93 8.42 -6.92 2.31 0 0 Z " fill="#E6553C" transform="translate(24,57)"/>
<path d="M0 0 C5.13 10.95 4.73 28.11 0.75 39.35 C0 41 0 41 -1 42 C-4.44 42.19 -4.44 42.19 -8 42 C-10 40 -10 40 -10.25 36.62 C-10.01 33.22 -9.54 31.89 -8 29 C-7.75 26.37 -7.75 26.37 -8 24 C-8.33 23.67 -8.66 23.34 -9 23 C-9.25 19.88 -9.19 16.75 -9.19 13.62 C-9.2 12.75 -9.21 11.87 -9.22 10.97 C-9.23 10.13 -9.23 9.28 -9.23 8.41 C-9.23 7.64 -9.24 6.87 -9.24 6.07 C-9 4 -9 4 -7 1 C-4.59 0.34 -2.49 0 0 0 Z " fill="#EE513A" transform="translate(102,84)"/>
<path d="M0 0 C0.86 -0 1.72 -0.01 2.61 -0.01 C5.45 -0.02 8.28 -0.02 11.12 -0.02 C13.1 -0.03 15.08 -0.03 17.05 -0.03 C21.19 -0.04 25.33 -0.04 29.47 -0.04 C34.77 -0.04 40.07 -0.05 45.38 -0.07 C49.46 -0.08 53.54 -0.08 57.62 -0.08 C59.57 -0.08 61.53 -0.09 63.48 -0.1 C66.22 -0.11 68.95 -0.1 71.68 -0.1 C72.49 -0.1 73.3 -0.11 74.13 -0.11 C78.31 -0.09 81.59 0.26 85.34 2.15 C85.34 2.48 85.34 2.81 85.34 3.15 C75.89 5.58 66.61 5.38 56.93 5.31 C55.15 5.3 53.36 5.29 51.58 5.29 C46.91 5.28 42.24 5.25 37.57 5.22 C30.09 5.18 22.62 5.15 15.14 5.13 C12.54 5.12 9.94 5.1 7.34 5.08 C5.74 5.08 4.13 5.07 2.53 5.06 C1.46 5.05 1.46 5.05 0.37 5.04 C-4.4 5.03 -8.95 5.48 -13.66 6.15 C-13.66 4.5 -13.66 2.85 -13.66 1.15 C-9.12 0.01 -4.65 -0 0 0 Z " fill="#524C80" transform="translate(13.658203125,176.854736328125)"/>
<path d="M0 0 C0.33 0.99 0.66 1.98 1 3 C1.63 2.98 2.25 2.95 2.9 2.93 C3.72 2.91 4.53 2.89 5.38 2.88 C6.19 2.85 7 2.83 7.84 2.8 C10 3 10 3 12 5 C14.71 4.9 14.71 4.9 17.75 4.44 C22.71 3.93 25.85 3.86 30 7 C30.49 8.49 30.49 8.49 31 10 C38.42 10.99 38.42 10.99 46 12 C41.77 16.23 35.64 15.38 30 15.62 C29.01 15.68 28.02 15.73 27 15.78 C7.21 16.66 7.21 16.66 1 12 C-2.15 6.41 -2.15 6.41 -1.75 2.62 C-1 1 -1 1 0 0 Z " fill="#E7543B" transform="translate(27,140)"/>
<path d="M0 0 C0.69 0 1.38 0 2.09 0.01 C3.14 0 3.14 0 4.22 0 C5.71 0 7.2 0 8.7 0.01 C10.98 0.01 13.27 0.01 15.56 0 C17 0 18.45 0 19.9 0.01 C20.59 0 21.27 0 21.98 0 C26.83 0.02 26.83 0.02 29.06 1.14 C29.79 3.12 30.46 5.12 31.06 7.14 C21.66 8.31 12.54 8.03 3.11 7.46 C-3.97 7.01 -3.97 7.01 -10.94 8.14 C-11.27 8.8 -11.6 9.46 -11.94 10.14 C-13.27 10.81 -14.61 11.47 -15.94 12.14 C-16.72 12.78 -17.51 13.42 -18.32 14.08 C-21.06 16.23 -23.78 17.67 -26.94 19.14 C-27.6 19.47 -28.26 19.8 -28.94 20.14 C-28.61 18.82 -28.28 17.5 -27.94 16.14 C-27.28 16.14 -26.62 16.14 -25.94 16.14 C-25.68 15.55 -25.43 14.95 -25.16 14.34 C-23.84 11.96 -22.52 10.63 -20.44 8.89 C-19.83 8.37 -19.22 7.85 -18.6 7.31 C-16.94 6.14 -16.94 6.14 -14.94 6.14 C-14.94 5.48 -14.94 4.82 -14.94 4.14 C-14.3 3.93 -13.66 3.73 -13.01 3.52 C-12.18 3.25 -11.35 2.98 -10.5 2.7 C-9.68 2.43 -8.86 2.17 -8.01 1.89 C-2.86 0.01 -2.86 0.01 0 0 Z " fill="#EF513A" transform="translate(39.94090270996094,52.861053466796875)"/>
<path d="M0 0 C1.29 -0.03 1.29 -0.03 2.61 -0.06 C8.72 -0.1 13.66 0.96 19.31 3.25 C20.18 3.6 21.05 3.95 21.95 4.31 C24.07 5.28 26.19 6.27 28.31 7.25 C29.95 7.93 29.95 7.93 31.62 8.62 C34.96 10.64 36.22 13.01 38.31 16.25 C39.58 16.9 39.58 16.9 40.88 17.56 C44.64 20.17 45.2 23.95 46.31 28.25 C45.32 27.92 44.33 27.59 43.31 27.25 C42.35 27.5 42.35 27.5 41.38 27.75 C38.87 28.36 37.73 28.14 35.31 27.25 C33.57 25.58 33.57 25.58 31.88 23.5 C29.8 21 27.73 18.61 25.38 16.38 C23.31 14.25 23.31 14.25 23.31 12.25 C22.32 11.92 21.33 11.59 20.31 11.25 C20.31 10.59 20.31 9.93 20.31 9.25 C19.65 8.92 18.99 8.59 18.31 8.25 C18.31 6.93 18.31 5.61 18.31 4.25 C7.42 3.92 -3.47 3.59 -14.69 3.25 C-13.69 1.25 -13.69 1.25 -11.9 0.64 C-7.95 -0.05 -4 0.02 0 0 Z " fill="#C45743" transform="translate(50.6875,49.75)"/>
<path d="M0 0 C0.99 0.33 1.98 0.66 3 1 C3 36.64 3 72.28 3 109 C2.67 109 2.34 109 2 109 C-0.28 96.93 -0.26 85.09 -0.2 72.85 C-0.19 70.74 -0.19 68.63 -0.19 66.52 C-0.18 61.01 -0.16 55.51 -0.14 50 C-0.12 44.36 -0.11 38.72 -0.1 33.09 C-0.08 22.06 -0.04 11.03 0 0 Z " fill="#CCDFCF" transform="translate(1047,112)"/>
<path d="M0 0 C0.33 0 0.66 0 1 0 C1 0.63 1.01 1.26 1.01 1.91 C1.05 8.46 1.12 15.02 1.21 21.57 C1.24 24.02 1.26 26.46 1.27 28.91 C1.29 32.42 1.34 35.94 1.39 39.45 C1.39 40.55 1.39 41.64 1.39 42.77 C1.41 43.79 1.43 44.81 1.45 45.86 C1.46 46.76 1.47 47.66 1.48 48.58 C2.16 51.72 3.68 52.86 6 55 C6.46 57.47 6.46 57.47 6.38 60.06 C6.36 60.92 6.35 61.78 6.34 62.66 C6 65 6 65 4 68 C2.68 73.2 2.62 78.48 2.38 83.81 C2.32 84.77 2.27 85.73 2.22 86.72 C2.17 87.66 2.13 88.61 2.09 89.58 C2.05 90.43 2 91.28 1.96 92.15 C1.94 95.14 1.94 95.14 2.52 98.63 C3.22 103.87 2.92 109.02 2.66 114.28 C2.59 115.86 2.59 115.86 2.52 117.48 C2.37 120.82 2.22 124.16 2.06 127.5 C1.96 129.78 1.86 132.05 1.76 134.33 C1.51 139.89 1.26 145.44 1 151 C0.67 151 0.34 151 0 151 C0 101.17 0 51.34 0 0 Z " fill="#F0F9F5" transform="translate(938,62)"/>
<path d="M0 0 C0 0.66 0 1.32 0 2 C-35.97 2 -71.94 2 -109 2 C-109 1.34 -109 0.68 -109 0 C-99.08 -0.2 -89.17 -0.39 -79.25 -0.56 C-78.52 -0.58 -77.78 -0.59 -77.02 -0.6 C-51.33 -1.04 -25.69 -0.92 0 0 Z " fill="#CCDFD0" transform="translate(1280,153)"/>
<path d="M0 0 C0.66 0.66 1.32 1.32 2 2 C1.92 6.29 1.35 8.51 -1.19 12 C-4 14 -4 14 -7 14.06 C-10.43 12.85 -12.5 11.65 -15 9 C-15.13 6.36 -15.13 6.36 -15 4 C-13.44 3.32 -11.88 2.66 -10.31 2 C-9.44 1.63 -8.57 1.26 -7.68 0.88 C-4.9 -0.03 -2.9 -0.32 0 0 Z " fill="#E6553C" transform="translate(58,83)"/>
<path d="M0 0 C2.93 0.32 4.59 0.63 6.81 2.62 C8.49 5.98 8.46 8.29 8 12 C6.44 14.88 6.44 14.88 4 17 C0.38 17.94 0.38 17.94 -3 18 C-3.66 17.34 -4.32 16.68 -5 16 C-4.76 10.05 -2.58 5.3 0 0 Z " fill="#E6553C" transform="translate(67,107)"/>
<path d="M0 0 C0.33 0.66 0.66 1.32 1 2 C0.29 2.55 -0.42 3.11 -1.15 3.68 C-2.07 4.4 -2.99 5.13 -3.94 5.88 C-4.85 6.59 -5.77 7.31 -6.71 8.05 C-9.06 9.79 -9.06 9.79 -10 12 C-10.66 12 -11.32 12 -12 12 C-12 12.99 -12 13.98 -12 15 C-11.4 14.5 -10.8 14.01 -10.19 13.5 C-8 12 -8 12 -5 12 C-6.26 15.87 -7.4 17.99 -11 20 C-12.32 20 -13.64 20 -15 20 C-15.31 20.62 -15.62 21.24 -15.94 21.88 C-16.62 23.25 -17.31 24.62 -18 26 C-19.98 25.67 -21.96 25.34 -24 25 C-24 23.02 -24 21.04 -24 19 C-23.3 19 -22.6 19 -21.88 19 C-17.98 17.64 -16.78 15.37 -14.47 12.06 C-10.87 7.02 -5.94 1.98 0 0 Z " fill="#E4543C" transform="translate(24,57)"/>
<path d="M0 0 C0.66 0.33 1.32 0.66 2 1 C2 4.3 2 7.6 2 11 C0.02 11.99 0.02 11.99 -2 13 C-2.99 14.49 -2.99 14.49 -4 16 C-6.97 15.01 -9.94 14.02 -13 13 C-13 11.35 -13 9.7 -13 8 C-12.2 7.75 -11.39 7.5 -10.56 7.25 C-9.29 6.63 -9.29 6.63 -8 6 C-7.35 3.98 -7.35 3.98 -7 2 C-4 1 -4 1 -1 1 C-0.67 0.67 -0.34 0.34 0 0 Z " fill="#ED523B" transform="translate(91,127)"/>
<path d="M0 0 C0.56 0.25 1.11 0.49 1.69 0.75 C1.11 4.1 0.14 5.64 -2.37 7.91 C-2.98 8.48 -3.6 9.04 -4.23 9.62 C-4.88 10.2 -5.52 10.78 -6.19 11.38 C-6.83 11.96 -7.46 12.55 -8.12 13.15 C-10.78 15.57 -13.31 17.75 -16.31 19.75 C-18.5 19.38 -18.5 19.38 -20.31 18.75 C-19.13 14.6 -17.28 12.63 -13.89 10 C-12.08 8.61 -12.08 8.61 -9.75 6.19 C-3.21 -0.35 -3.21 -0.35 0 0 Z " fill="#F3F7F5" transform="translate(485.3125,62.25)"/>
<path d="M0 0 C2.96 2.76 5.04 5.47 7 9 C6.03 9.27 5.06 9.54 4.06 9.81 C3.05 10.2 2.04 10.6 1 11 C0.09 13.74 -0.13 15.37 -0.13 18.2 C-0.13 18.99 -0.14 19.79 -0.14 20.61 C-0.13 21.44 -0.13 22.27 -0.12 23.12 C-0.13 23.96 -0.13 24.8 -0.14 25.66 C-0.53 29.65 -0.53 29.65 1 33 C1.04 34.67 1.04 36.33 1 38 C-0.48 38.5 -0.48 38.5 -2 39 C-3.97 36.78 -4.95 35.5 -5.25 32.5 C-5 30 -5 30 -4.55 28.34 C-3.76 24.97 -3.36 21.56 -2.94 18.12 C-2.85 17.43 -2.76 16.74 -2.66 16.02 C-2.27 12.87 -2 9.82 -2 6.64 C-2 3.82 -1.46 2.37 0 0 Z " fill="#EA533B" transform="translate(94,75)"/>
<path d="M0 0 C5.55 5.55 4.31 16.98 4.31 24.41 C4.2 30.3 3.3 35.54 1 41 C0.67 41 0.34 41 0 41 C0 27.47 0 13.94 0 0 Z " fill="#876444" transform="translate(101,84)"/>
<path d="M0 0 C2.38 0.44 2.38 0.44 4.38 2.44 C5.05 9.38 5.05 9.38 2.75 13 C0.38 14.44 0.38 14.44 -2.81 14.25 C-5.62 13.44 -5.62 13.44 -6.62 12.44 C-7.02 8.37 -6.99 6.08 -4.94 2.5 C-2.62 0.44 -2.62 0.44 0 0 Z " fill="#E6553C" transform="translate(53.625,107.5625)"/>
<path d="M0 0 C3.6 0.31 4.99 0.99 7.81 3.38 C10 6 10 6 10 9 C10.58 9.25 11.17 9.5 11.77 9.75 C14.33 11.19 15.84 12.78 17.75 15 C18.67 16.05 18.67 16.05 19.61 17.12 C21 19 21 19 21 21 C15.81 19.58 12.34 16.08 9 12 C9 11.34 9 10.68 9 10 C8.3 9.94 7.6 9.88 6.88 9.81 C2.97 8.71 1 6.72 -2 4 C-1.34 2.68 -0.68 1.36 0 0 Z " fill="#F3F7F5" transform="translate(871,70)"/>
<path d="M0 0 C0.33 0.99 0.66 1.98 1 3 C1.66 3 2.32 3 3 3 C2.67 4.98 2.34 6.96 2 9 C-4.11 9.11 -9.95 8.9 -16 8 C-15.67 7.34 -15.34 6.68 -15 6 C-13.68 6 -12.36 6 -11 6 C-10.94 5.4 -10.88 4.8 -10.81 4.19 C-10 2 -10 2 -7.75 0.19 C-4.6 -1.17 -3.22 -1.01 0 0 Z " fill="#EF513A" transform="translate(73,143)"/>
<path d="M0 0 C-1.22 4.61 -3.63 6.64 -7.2 9.52 C-9.64 11.52 -11.8 13.74 -14 16 C-14.68 16.62 -15.36 17.24 -16.06 17.88 C-17.85 19.83 -18.72 21.35 -19.88 23.69 C-22 27 -22 27 -25.25 27.94 C-26.16 27.96 -27.07 27.98 -28 28 C-28 25.36 -28 22.72 -28 20 C-26.02 20.33 -24.04 20.66 -22 21 C-21.69 20.38 -21.38 19.76 -21.06 19.12 C-19 15 -19 15 -15.81 13.88 C-11.66 12.22 -9.84 9.54 -7.35 5.94 C-3.22 0 -3.22 0 0 0 Z " fill="#EA523B" transform="translate(28,62)"/>
<path d="M0 0 C2.12 0.94 2.12 0.94 4 2 C2.41 5.98 -0.21 8.41 -3.31 11.31 C-4.73 12.67 -4.73 12.67 -6.18 14.05 C-9 16 -9 16 -11.86 15.79 C-12.56 15.53 -13.27 15.27 -14 15 C-12.61 10.53 -10.51 8.29 -7 5.25 C-6.11 4.47 -5.23 3.69 -4.31 2.89 C-2 1 -2 1 0 0 Z " fill="#F6F9F8" transform="translate(577,70)"/>
<path d="M0 0 C3.1 0.01 6 0.19 9 1 C11.25 3.88 11.25 3.88 13 7 C14.33 7.74 14.33 7.74 15.69 8.5 C18 10 18 10 18.81 13.19 C18.87 14.12 18.94 15.04 19 16 C18.34 16.33 17.68 16.66 17 17 C12.42 14.9 10.09 11.82 7 8 C6.01 7.34 5.02 6.68 4 6 C4 5.34 4 4.68 4 4 C3.01 3.67 2.02 3.34 1 3 C0.67 2.01 0.34 1.02 0 0 Z " fill="#F15039" transform="translate(74,60)"/>
<path d="M0 0 C0.99 0 1.98 0 3 0 C2.67 1.65 2.34 3.3 2 5 C-0.31 5 -2.62 5 -5 5 C-5 5.66 -5 6.32 -5 7 C-6.65 8.55 -8.37 10.01 -10.12 11.44 C-11.08 12.22 -12.03 13 -13.01 13.81 C-15.91 15.93 -18.74 17.49 -22 19 C-22.66 19.33 -23.32 19.66 -24 20 C-23.67 18.68 -23.34 17.36 -23 16 C-22.34 16 -21.68 16 -21 16 C-20.74 15.41 -20.48 14.81 -20.22 14.2 C-18.9 11.82 -17.57 10.49 -15.5 8.75 C-14.89 8.23 -14.28 7.71 -13.66 7.17 C-12 6 -12 6 -10 6 C-10 5.34 -10 4.68 -10 4 C-9.36 3.8 -8.72 3.59 -8.07 3.38 C-7.24 3.11 -6.41 2.84 -5.56 2.56 C-4.74 2.3 -3.92 2.03 -3.07 1.75 C-1.04 1.18 -1.04 1.18 0 0 Z " fill="#F14F39" transform="translate(35,53)"/>
<path d="M0 0 C4.91 1.69 6.17 3.67 9 8 C9.85 8.43 10.69 8.87 11.56 9.31 C15.33 11.92 15.89 15.7 17 20 C16.01 19.67 15.02 19.34 14 19 C13.36 19.16 12.72 19.33 12.06 19.5 C9.55 20.11 8.42 19.89 6 19 C4.25 17.33 4.25 17.33 2.56 15.25 C0.48 12.75 -1.58 10.36 -3.94 8.12 C-6 6 -6 6 -6 4 C-6.66 4 -7.32 4 -8 4 C-7.67 3.34 -7.34 2.68 -7 2 C-2.96 4.94 0.14 8.31 3.35 12.1 C6.92 16.28 6.92 16.28 12 18 C11.89 15.1 11.89 15.1 11 12 C10.28 11.57 9.56 11.13 8.81 10.69 C4.56 8.14 2.54 4.17 0 0 Z " fill="#DA553E" transform="translate(80,58)"/>
<path d="M0 0 C0.99 0.33 1.98 0.66 3 1 C3.05 6.21 3.09 11.43 3.11 16.64 C3.12 18.42 3.13 20.19 3.15 21.97 C3.18 24.51 3.19 27.06 3.2 29.61 C3.21 30.41 3.22 31.2 3.23 32.02 C3.23 35.88 3.19 37.71 1 41 C-1.12 41.69 -1.12 41.69 -3 42 C-3 41.01 -3 40.02 -3 39 C-2.01 38.5 -2.01 38.5 -1 38 C0.37 30.03 0.11 22 0.06 13.94 C0.06 12.58 0.05 11.23 0.05 9.87 C0.04 6.58 0.02 3.29 0 0 Z " fill="#BDCEC1" transform="translate(868,120)"/>
<path d="M0 0 C0.66 0 1.32 0 2 0 C3.03 6.52 2.98 12.7 2.66 19.28 C2.61 20.34 2.57 21.39 2.52 22.48 C2.37 25.82 2.22 29.16 2.06 32.5 C1.96 34.78 1.86 37.05 1.76 39.33 C1.51 44.89 1.26 50.44 1 56 C0.67 56 0.34 56 0 56 C0 37.52 0 19.04 0 0 Z " fill="#F0FAF5" transform="translate(938,157)"/>
<path d="M0 0 C1.02 0.5 1.02 0.5 2.06 1 C1.17 4.4 0.51 5.72 -2.5 7.62 C-7.61 8.18 -10.77 5.76 -14.94 3 C-12.14 -2.59 -5.11 -1.74 0 0 Z " fill="#EB523B" transform="translate(22.9375,135)"/>
<path d="M0 0 C1.98 0.5 1.98 0.5 4 1 C3.93 6.23 3.84 11.47 3.74 16.7 C3.7 18.48 3.68 20.26 3.65 22.04 C3.62 24.6 3.57 27.15 3.51 29.71 C3.51 30.51 3.5 31.31 3.49 32.13 C3.43 34.38 3.43 34.38 3 38 C2.01 38.66 1.02 39.32 0 40 C-1.53 36.94 -0.59 34.47 -0.06 31.12 C1.46 20.63 1.16 10.53 0 0 Z " fill="#CEDDD3" transform="translate(296,120)"/>
<path d="M0 0 C3.44 1.24 6.25 2.56 9 5 C9 5.66 9 6.32 9 7 C9.58 7.26 10.17 7.52 10.77 7.79 C13.16 9.09 14.82 10.52 16.75 12.44 C17.67 13.33 17.67 13.33 18.61 14.25 C20 16 20 16 20 19 C15.51 17.63 13.83 15.65 11 12 C10.07 11.55 10.07 11.55 9.11 11.09 C6.55 9.77 5.13 8.18 3.25 6 C2.64 5.3 2.02 4.6 1.39 3.88 C0 2 0 2 0 0 Z " fill="#E2EBE7" transform="translate(300,72)"/>
<path d="M0 0 C13.2 0 26.4 0 40 0 C36.81 2.13 35.76 2.29 32.06 2.45 C30.59 2.51 30.59 2.51 29.1 2.58 C28.08 2.62 27.05 2.65 26 2.69 C24.51 2.76 24.51 2.76 23 2.83 C5.3 3.53 5.3 3.53 0 0 Z " fill="#6F6644" transform="translate(31,153)"/>
<path d="M0 0 C0.99 0.33 1.98 0.66 3 1 C3.06 1.59 3.12 2.18 3.18 2.79 C3.62 6.91 4.09 10.96 5 15 C5.78 15.12 6.57 15.25 7.38 15.38 C10 16 10 16 12 18 C12.27 20.69 12.09 23.29 12 26 C10 25 10 25 8.62 21.56 C6.84 17.66 6.55 17.66 3 16 C-0.59 10.87 -0.32 6.01 0 0 Z " fill="#C8D5CC" transform="translate(740,162)"/>
<path d="M0 0 C0.66 0 1.32 0 2 0 C2.05 4.48 2.09 8.97 2.11 13.45 C2.12 14.98 2.13 16.5 2.15 18.03 C2.18 20.22 2.19 22.41 2.2 24.61 C2.21 25.93 2.22 27.25 2.23 28.61 C2.02 31.73 1.67 33.41 0 36 C0.02 34.81 0.02 34.81 0.04 33.59 C0.08 28.23 -0.1 23.28 -1 18 C-1.24 11.9 -1.07 6.01 0 0 Z " fill="#F3FBF5" transform="translate(716,121)"/>
<path d="M0 0 C0.66 0.66 1.32 1.32 2 2 C1.55 2.38 1.1 2.76 0.64 3.14 C-5.56 8.45 -11.27 14.19 -17 20 C-18.66 21.67 -20.33 23.33 -22 25 C-22.66 24.67 -23.32 24.34 -24 24 C-19.33 18.41 -14.33 13.22 -9.19 8.06 C-8.52 7.39 -7.85 6.71 -7.16 6.02 C-6.52 5.38 -5.89 4.75 -5.23 4.1 C-4.66 3.53 -4.08 2.95 -3.49 2.36 C-2 1 -2 1 0 0 Z " fill="#DEEAE0" transform="translate(201,65)"/>
<path d="M0 0 C1.16 3.47 1.07 6.36 1 10 C3.31 10.66 5.62 11.32 8 12 C7.01 12.5 7.01 12.5 6 13 C5.17 15.08 5.17 15.08 4.5 17.5 C3.78 19.97 3.78 19.97 3 22 C2.34 22.33 1.68 22.66 1 23 C0.81 21.54 0.62 20.08 0.44 18.62 C0.33 17.81 0.23 17 0.12 16.16 C0 14 0 14 1 12 C-0.32 11.67 -1.64 11.34 -3 11 C-2.89 9.54 -2.76 8.08 -2.62 6.62 C-2.56 5.81 -2.49 5 -2.41 4.16 C-2 2 -2 2 0 0 Z " fill="#BF5A3F" transform="translate(92,114)"/>
<path d="M0 0 C0.33 0 0.66 0 1 0 C1.31 2.72 1.31 2.72 1 6 C-1.12 8.31 -1.12 8.31 -4 10.44 C-5 11.2 -5.99 11.96 -7.02 12.74 C-8 13.49 -8.99 14.23 -10 15 C-11.58 16.34 -13.14 17.69 -14.69 19.06 C-15.33 19.63 -15.97 20.2 -16.64 20.79 C-17.09 21.19 -17.54 21.59 -18 22 C-18 19 -18 19 -16.43 17.13 C-15.73 16.47 -15.03 15.81 -14.31 15.12 C-13.58 14.43 -12.85 13.73 -12.1 13 C-11.41 12.34 -10.71 11.68 -10 11 C-9.06 10.02 -8.12 9.05 -7.19 8.06 C-5 6 -5 6 -2 5 C-1.34 3.02 -1.34 3.02 -1 1 C-0.67 0.67 -0.34 0.34 0 0 Z " fill="#D1DED4" transform="translate(452,85)"/>
<path d="M0 0 C2.62 0.38 2.62 0.38 5 1 C2.93 5.67 0.26 9.16 -4 12 C-4.99 12 -5.98 12 -7 12 C-6.26 7.17 -3.39 3.39 0 0 Z " fill="#EEF4F1" transform="translate(446,105)"/>
<path d="M0 0 C2.93 0.37 3.86 0.86 6 3 C5.62 6.12 5.62 6.12 5 9 C2.62 9.62 2.62 9.62 0 10 C-2 8 -2 8 -2.25 5 C-2 2 -2 2 0 0 Z " fill="#F5F8F7" transform="translate(440,140)"/>
<path d="M0 0 C2.5 1.38 2.5 1.38 5 4 C5.83 8.94 5.8 12.8 3 17 C2.34 17 1.68 17 1 17 C-0.23 11.33 -0.09 5.76 0 0 Z " fill="#F6F9F8" transform="translate(939,113)"/>
<path d="M0 0 C0.66 0.33 1.32 0.66 2 1 C1.67 10.57 1.34 20.14 1 30 C0.34 29.67 -0.32 29.34 -1 29 C-1.23 24.54 -1.43 20.08 -1.62 15.62 C-1.69 14.35 -1.75 13.08 -1.82 11.77 C-1.87 10.56 -1.92 9.35 -1.98 8.1 C-2.03 6.98 -2.08 5.86 -2.14 4.71 C-2 2 -2 2 0 0 Z " fill="#CBDCCF" transform="translate(581,121)"/>
<path d="M0 0 C3.12 -0.03 6.25 -0.05 9.38 -0.06 C10.71 -0.08 10.71 -0.08 12.07 -0.09 C13.35 -0.09 13.35 -0.09 14.65 -0.1 C15.43 -0.1 16.22 -0.11 17.03 -0.11 C19 0 19 0 21 1 C21.62 3.06 21.62 3.06 22 5 C20 6 20 6 17.12 5.06 C16.09 4.71 15.06 4.36 14 4 C12.68 4 11.36 4 10 4 C6.46 2.97 3.27 1.68 0 0 Z " fill="#F44F39" transform="translate(48,53)"/>
<path d="M0 0 C0 0.66 0 1.32 0 2 C-1.93 1.98 -1.93 1.98 -3.9 1.96 C-5.58 1.96 -7.26 1.95 -8.94 1.94 C-9.79 1.93 -10.64 1.92 -11.51 1.91 C-12.32 1.91 -13.13 1.91 -13.96 1.9 C-14.71 1.9 -15.46 1.89 -16.23 1.89 C-18.03 1.81 -18.03 1.81 -19 3 C-22.44 3.25 -22.44 3.25 -26 3 C-26.66 2.01 -27.32 1.02 -28 0 C-18.65 -1.25 -9.32 -1.69 0 0 Z " fill="#BCD0C1" transform="translate(1216,185)"/>
<path d="M0 0 C1.65 0.33 3.3 0.66 5 1 C5.81 2.69 5.81 2.69 6 5 C3.81 7.81 3.81 7.81 1 10 C-1.31 9.81 -1.31 9.81 -3 9 C-3.75 7.31 -3.75 7.31 -4 5 C-2.06 2.25 -2.06 2.25 0 0 Z " fill="#F34F39" transform="translate(86,133)"/>
<path d="M0 0 C0.58 0.23 1.17 0.46 1.77 0.7 C0.36 3.91 -1.33 6.02 -3.86 8.45 C-4.8 9.37 -4.8 9.37 -5.77 10.31 C-6.25 10.77 -6.73 11.23 -7.23 11.7 C-8.22 11.37 -9.21 11.04 -10.23 10.7 C-9.65 7.19 -8.4 5.41 -5.92 2.89 C-5.32 2.26 -4.73 1.64 -4.12 0.99 C-2.23 -0.3 -2.23 -0.3 0 0 Z " fill="#F6F9F8" transform="translate(201.23046875,80.30078125)"/>
<path d="M0 0 C4.88 0.45 7.48 1.57 11 5 C11.41 5.89 11.83 6.77 12.25 7.69 C13.76 10.18 13.76 10.18 16.18 10.54 C18.46 10.79 20.71 10.95 23 11 C23 11.66 23 12.32 23 13 C17.63 13.27 14.38 13.43 10 10 C8.29 8.38 6.63 6.71 5 5 C4.07 4.07 3.14 3.14 2.19 2.19 C1.47 1.47 0.74 0.74 0 0 Z " fill="#DAE6DE" transform="translate(563,201)"/>
<path d="M0 0 C2.52 0.97 3.74 1.46 4.94 3.94 C5 6 5 6 3.88 7.81 C2 9 2 9 -0.69 8.69 C-1.45 8.46 -2.21 8.23 -3 8 C-3.75 6.25 -3.75 6.25 -4 4 C-2.06 1.75 -2.06 1.75 0 0 Z " fill="#E6553C" transform="translate(25,84)"/>
<path d="M0 0 C5.17 1.41 8.75 4.86 12 9 C12.7 11.23 12.7 11.23 13 13 C7.83 11.59 4.25 8.14 1 4 C0.3 1.77 0.3 1.77 0 0 Z " fill="#E4ECE7" transform="translate(879,78)"/>
<path d="M0 0 C0.58 0.23 1.17 0.46 1.77 0.7 C0.2 4.53 -2.15 6.98 -5.23 9.7 C-7.55 10.51 -7.55 10.51 -9.23 10.7 C-9.23 6.7 -9.23 6.7 -7.84 4.74 C-7.23 4.13 -6.62 3.52 -5.98 2.89 C-5.38 2.26 -4.78 1.64 -4.16 0.99 C-2.23 -0.3 -2.23 -0.3 0 0 Z " fill="#F6F9F8" transform="translate(773.234375,80.30078125)"/>
<path d="M0 0 C2.96 2.76 5.04 5.47 7 9 C5.02 9.66 3.04 10.32 1 11 C-0.56 9.88 -0.56 9.88 -2 8 C-1.76 5 -1.35 2.69 0 0 Z " fill="#EA4A45" transform="translate(94,75)"/>
<path d="M0 0 C3.14 0.34 4.05 1.05 6.31 3.38 C6.87 4.24 7.43 5.11 8 6 C7.67 6.99 7.34 7.98 7 9 C3.92 8.67 2.38 8.37 0.12 6.19 C-1 4 -1 4 -0.69 1.75 C-0.46 1.17 -0.23 0.59 0 0 Z " fill="#F6F9F8" transform="translate(478,154)"/>
<path d="M0 0 C0.99 0.33 1.98 0.66 3 1 C3.3 9.46 2.15 17.64 1 26 C0.67 26 0.34 26 0 26 C0 17.42 0 8.84 0 0 Z " fill="#BBCDBF" transform="translate(1047,112)"/>
<path d="M0 0 C0.33 0.66 0.66 1.32 1 2 C0.31 2.54 -0.37 3.09 -1.08 3.64 C-1.98 4.36 -2.88 5.08 -3.81 5.81 C-4.71 6.52 -5.6 7.23 -6.52 7.96 C-8.48 9.57 -10.25 11.17 -12 13 C-12.7 13.68 -13.4 14.36 -14.12 15.06 C-16.06 16.87 -16.06 16.87 -17 19 C-17.66 18.67 -18.32 18.34 -19 18 C-7.91 2.64 -7.91 2.64 0 0 Z " fill="#9B6142" transform="translate(24,57)"/>
<path d="M0 0 C4.29 0 8.58 0 13 0 C13 0.99 13 1.98 13 3 C9.87 4.56 6.42 4.4 3 4 C2.01 3.34 1.02 2.68 0 2 C0 1.34 0 0.68 0 0 Z " fill="#9BAC9E" transform="translate(249,184)"/>
<path d="M0 0 C0.99 0.66 1.98 1.32 3 2 C3.41 4.71 3.13 7.24 3 10 C0.03 9.5 0.03 9.5 -3 9 C-3.26 5.85 -3.25 4.38 -1.5 1.69 C-1 1.13 -0.51 0.57 0 0 Z " fill="#F34F39" transform="translate(97,115)"/>
<path d="M0 0 C3 1 3 1 4 3 C4.12 4.5 4.18 6 4.19 7.5 C4.2 8.29 4.22 9.09 4.23 9.91 C4 12 4 12 2 14 C-0.12 13.62 -0.12 13.62 -2 13 C-1.34 12.34 -0.68 11.68 0 11 C0.24 8.33 0.24 8.33 0.12 5.38 C0.11 4.37 0.09 3.37 0.07 2.34 C0.05 1.57 0.02 0.79 0 0 Z " fill="#B5C4B9" transform="translate(671,129)"/>
<path d="M0 0 C0.33 0 0.66 0 1 0 C1.05 1.42 1.09 2.83 1.12 4.25 C1.15 5.04 1.17 5.83 1.2 6.64 C0.98 9.21 0.29 10.79 -1 13 C-3.31 13 -5.62 13 -8 13 C-7.34 12.67 -6.68 12.34 -6 12 C-6 11.34 -6 10.68 -6 10 C-5.01 9.67 -4.02 9.34 -3 9 C-1.98 6.9 -1.98 6.9 -1.31 4.44 C-1.06 3.61 -0.81 2.78 -0.55 1.93 C-0.37 1.3 -0.19 0.66 0 0 Z " fill="#B5C6BA" transform="translate(665,158)"/>
<path d="M0 0 C1.65 0 3.3 0 5 0 C5.33 1.65 5.66 3.3 6 5 C5.01 5.66 4.02 6.32 3 7 C1.35 6.01 -0.3 5.02 -2 4 C-1.34 2.68 -0.68 1.36 0 0 Z " fill="#E6553C" transform="translate(59,136)"/>
<path d="M0 0 C2.38 1.44 2.38 1.44 3.19 4.56 C3.25 5.51 3.31 6.46 3.38 7.44 C-0.22 6.1 -3.38 4.48 -6.62 2.44 C-5.04 -0.73 -3.27 -0.7 0 0 Z " fill="#E94A46" transform="translate(14.625,135.5625)"/>
<path d="M0 0 C0.99 0.33 1.98 0.66 3 1 C2.34 1 1.68 1 1 1 C0.74 1.57 0.48 2.14 0.21 2.73 C-1.11 5.2 -2.62 7.13 -4.44 9.25 C-5.03 9.96 -5.63 10.66 -6.25 11.39 C-8 13 -8 13 -11 13 C-9.44 9.16 -6.97 6.83 -4 4 C-3.24 3.24 -2.47 2.47 -1.69 1.69 C-1.13 1.13 -0.57 0.57 0 0 Z " fill="#DEEAE1" transform="translate(759,78)"/>
<path d="M0 0 C3.44 1.24 6.25 2.56 9 5 C9 5.66 9 6.32 9 7 C9.66 7.33 10.32 7.66 11 8 C10.67 8.99 10.34 9.98 10 11 C6.59 9.86 5.62 8.74 3.31 6.06 C2.69 5.35 2.07 4.64 1.43 3.91 C0 2 0 2 0 0 Z " fill="#EDF4F0" transform="translate(300,72)"/>
<path d="M0 0 C1.71 2.97 2.25 5.08 2.19 8.5 C2.18 9.25 2.17 10.01 2.17 10.78 C2 13 2 13 1.43 15.11 C0.81 17.84 1.83 19.53 3 22 C2.34 22 1.68 22 1 22 C1 21.34 1 20.68 1 20 C0.34 20 -0.32 20 -1 20 C-1.03 18.4 -1.05 16.79 -1.06 15.19 C-1.07 14.29 -1.09 13.4 -1.1 12.48 C-1 10 -1 10 0 7 C0.04 4.67 0.04 2.33 0 0 Z " fill="#D7E5DB" transform="translate(341,105)"/>
<path d="M0 0 C4.96 1.38 6.26 3.81 9 8 C10.64 9.04 12.3 10.06 14 11 C14 11.66 14 12.32 14 13 C7.34 11.45 4.72 7.73 1.19 2.12 C0.8 1.42 0.4 0.72 0 0 Z " fill="#8F6343" transform="translate(80,58)"/>
<path d="M0 0 C-0.66 2.97 -1.32 5.94 -2 9 C-3.32 9 -4.64 9 -6 9 C-6.19 5.62 -6.19 5.62 -6 2 C-3 0 -3 0 0 0 Z " fill="#B64558" transform="translate(100,212)"/>
<path d="M0 0 C2.12 0.38 2.12 0.38 4 1 C4.62 2.88 4.62 2.88 5 5 C4.34 5.66 3.68 6.32 3 7 C0.88 6.62 0.88 6.62 -1 6 C-1.62 4.12 -1.62 4.12 -2 2 C-1.34 1.34 -0.68 0.68 0 0 Z " fill="#F5F8F7" transform="translate(431,123)"/>
<path d="M0 0 C-1 3 -1 3 -3 4 C-5.67 4.13 -8.32 4.04 -11 4 C-10.67 3.34 -10.34 2.68 -10 2 C-11.32 1.34 -12.64 0.68 -14 0 C-12.04 -0.19 -10.08 -0.38 -8.12 -0.56 C-6.49 -0.72 -6.49 -0.72 -4.82 -0.88 C-2 -1 -2 -1 0 0 Z " fill="#839787" transform="translate(835,184)"/>
<path d="M0 0 C0.66 0.33 1.32 0.66 2 1 C2 4.3 2 7.6 2 11 C1.67 11 1.34 11 1 11 C1 9.02 1 7.04 1 5 C-1.64 5 -4.28 5 -7 5 C-7 4.01 -7 3.02 -7 2 C-4 1 -4 1 -1 1 C-0.67 0.67 -0.34 0.34 0 0 Z " fill="#E4543B" transform="translate(91,127)"/>
<path d="M0 0 C-0.57 2.87 -0.86 3.86 -3 6 C-5.62 5.62 -5.62 5.62 -8 5 C-7.62 3.06 -7.62 3.06 -7 1 C-4.54 -0.23 -2.72 -0.07 0 0 Z " fill="#ECF2F0" transform="translate(1017,63)"/>
<path d="M0 0 C0.33 0 0.66 0 1 0 C1 11.55 1 23.1 1 35 C0.67 35 0.34 35 0 35 C0 23.45 0 11.9 0 0 Z " fill="#F4FCFA" transform="translate(936,130)"/>
<path d="M0 0 C3.24 0.35 4.62 0.56 6.81 3.06 C7.2 3.7 7.6 4.34 8 5 C3.25 3.12 3.25 3.12 1 2 C2.98 4.64 4.96 7.28 7 10 C3.95 8.48 1.64 7.07 -1 5 C-0.67 3.35 -0.34 1.7 0 0 Z " fill="#F6F9F8" transform="translate(299,70)"/>
<path d="M0 0 C2.06 0.44 2.06 0.44 4 1 C4 2.65 4 4.3 4 6 C2.12 6.62 2.12 6.62 0 7 C-0.66 6.34 -1.32 5.68 -2 5 C-1.46 1.46 -1.46 1.46 0 0 Z " fill="#F6F9F8" transform="translate(1140,175)"/>
<path d="M0 0 C0.66 0.66 1.32 1.32 2 2 C0.75 3.11 -0.5 4.21 -1.75 5.31 C-2.45 5.93 -3.14 6.54 -3.86 7.18 C-5.85 8.87 -7.89 10.45 -10 12 C-10 9 -10 9 -8.32 6.99 C-7.6 6.29 -6.87 5.59 -6.12 4.88 C-5.41 4.17 -4.69 3.47 -3.95 2.74 C-2 1 -2 1 0 0 Z " fill="#D2E1D5" transform="translate(201,65)"/>
<path d="M0 0 C0.66 0.33 1.32 0.66 2 1 C1.61 3.54 1.3 4.73 -0.63 6.48 C-1.27 6.9 -1.91 7.32 -2.56 7.75 C-3.2 8.18 -3.84 8.61 -4.5 9.05 C-5.24 9.52 -5.24 9.52 -6 10 C-6 6.07 -4.61 4.84 -2 2 C-1.34 2 -0.68 2 0 2 C0 1.34 0 0.68 0 0 Z " fill="#DFEAE2" transform="translate(293,159)"/>
<path d="M0 0 C0.33 0 0.66 0 1 0 C1.33 4.95 1.66 9.9 2 15 C1.01 15.66 0.02 16.32 -1 17 C-2.57 13.86 -1.56 10.73 -1.06 7.38 C-0.96 6.67 -0.86 5.96 -0.76 5.23 C-0.51 3.49 -0.26 1.74 0 0 Z " fill="#9AB1A0" transform="translate(297,143)"/>
<path d="M0 0 C0.66 0 1.32 0 2 0 C1.76 0.84 1.76 0.84 1.52 1.69 C0.96 4.16 0.79 6.46 0.68 8.98 C0.64 9.92 0.6 10.85 0.56 11.82 C0.52 12.78 0.48 13.75 0.44 14.75 C0.39 15.73 0.35 16.72 0.31 17.73 C0.2 20.15 0.1 22.58 0 25 C-0.33 25 -0.66 25 -1 25 C-1.03 21.02 -1.05 17.04 -1.06 13.06 C-1.07 11.93 -1.08 10.79 -1.09 9.62 C-1.09 8.54 -1.09 7.46 -1.1 6.35 C-1.1 5.35 -1.11 4.35 -1.11 3.32 C-1 1 -1 1 0 0 Z " fill="#DDE9E2" transform="translate(418,136)"/>
<path d="M0 0 C2.48 0.99 2.48 0.99 5 2 C5 3.32 5 4.64 5 6 C3.02 6 1.04 6 -1 6 C-1.62 4.12 -1.62 4.12 -2 2 C-1.34 1.34 -0.68 0.68 0 0 Z " fill="#F44F39" transform="translate(30,145)"/>
<path d="M0 0 C1.32 0.99 2.64 1.98 4 3 C4.25 5.69 4.25 5.69 4 8 C2.02 8.99 2.02 8.99 0 10 C0 6.7 0 3.4 0 0 Z " fill="#F6F9F8" transform="translate(734,132)"/>
<path d="M0 0 C0.66 1.32 1.32 2.64 2 4 C1.67 4.33 1.34 4.66 1 5 C0.76 7.55 0.62 10.1 0.48 12.65 C0 15 0 15 -3 17 C-2.34 13.04 -1.68 9.08 -1 5 C-1.66 4.67 -2.32 4.34 -3 4 C-2.01 3.67 -1.02 3.34 0 3 C0 2.01 0 1.02 0 0 Z " fill="#D5DFD8" transform="translate(741,104)"/>
<path d="M0 0 C1.65 0.33 3.3 0.66 5 1 C4.67 2.65 4.34 4.3 4 6 C2.35 5.67 0.7 5.34 -1 5 C-0.67 3.35 -0.34 1.7 0 0 Z " fill="#F6F9F8" transform="translate(1067,70)"/>
<path d="M0 0 C1.32 0.66 2.64 1.32 4 2 C1.36 4.31 -1.28 6.62 -4 9 C-4.66 8.34 -5.32 7.68 -6 7 C-4.02 4.69 -2.04 2.38 0 0 Z " fill="#EDF4EF" transform="translate(864,160)"/>
<path d="M0 0 C0.66 0 1.32 0 2 0 C1.53 4.26 -0.85 6.29 -4 9 C-6.17 9.64 -6.17 9.64 -8 10 C-7.59 9.53 -7.18 9.06 -6.76 8.57 C-6.22 7.95 -5.68 7.33 -5.12 6.69 C-4.59 6.07 -4.06 5.46 -3.51 4.82 C-1.84 2.87 -1.84 2.87 0 0 Z " fill="#D8E6DA" transform="translate(769,67)"/>
<path d="M0 0 C0.66 0 1.32 0 2 0 C2.66 1.98 3.32 3.96 4 6 C3.01 6.33 2.02 6.66 1 7 C-1.69 5.06 -1.69 5.06 -4 3 C-3.67 2.34 -3.34 1.68 -3 1 C-1.51 1.99 -1.51 1.99 0 3 C0 2.01 0 1.02 0 0 Z " fill="#F4F8F6" transform="translate(320,88)"/>
<path d="M0 0 C6.27 0 12.54 0 19 0 C19 0.33 19 0.66 19 1 C16.03 1 13.06 1 10 1 C10 1.99 10 2.98 10 4 C6.46 2.87 3.34 1.67 0 0 Z " fill="#F25039" transform="translate(48,53)"/>
<path d="M0 0 C4.75 0.43 6.92 1.33 10 5 C9.34 5.66 8.68 6.32 8 7 C6.66 6.02 5.33 5.04 4 4.06 C3.26 3.52 2.51 2.97 1.75 2.41 C1.17 1.94 0.6 1.48 0 1 C0 0.67 0 0.34 0 0 Z " fill="#E4F2EA" transform="translate(563,201)"/>
<path d="M0 0 C0.99 0.33 1.98 0.66 3 1 C1.74 2.32 0.46 3.63 -0.81 4.94 C-1.52 5.67 -2.23 6.4 -2.96 7.15 C-5 9 -5 9 -8 10 C-6.35 5.71 -3.26 3.12 0 0 Z " fill="#DAE6DD" transform="translate(441,97)"/>
<path d="M0 0 C2.48 0.5 2.48 0.5 5 1 C5 3.64 5 6.28 5 9 C2.39 7.69 2.32 6.64 1.38 3.94 C1.11 3.2 0.85 2.47 0.59 1.71 C0.39 1.15 0.2 0.58 0 0 Z " fill="#A8BAAC" transform="translate(747,179)"/>
<path d="M0 0 C1.94 0.75 1.94 0.75 4 2 C4.75 4.12 4.75 4.12 5 6 C4.01 6.33 3.02 6.66 2 7 C-0.19 5.56 -0.19 5.56 -2 4 C-1.67 3.34 -1.34 2.68 -1 2 C-0.34 2.33 0.32 2.66 1 3 C0.67 2.01 0.34 1.02 0 0 Z " fill="#F3F7F6" transform="translate(891,88)"/>
<path d="M0 0 C0.33 0 0.66 0 1 0 C0.67 4.95 0.34 9.9 0 15 C-0.66 14.67 -1.32 14.34 -2 14 C-2 11.03 -2 8.06 -2 5 C-1.34 5 -0.68 5 0 5 C0 3.35 0 1.7 0 0 Z " fill="#C8D8CD" transform="translate(914,110)"/>
<path d="M0 0 C1.65 0.33 3.3 0.66 5 1 C4.67 2.32 4.34 3.64 4 5 C2.35 4.67 0.7 4.34 -1 4 C-0.67 2.68 -0.34 1.36 0 0 Z " fill="#F6F9F8" transform="translate(1233,94)"/>
<path d="M0 0 C0.33 0 0.66 0 1 0 C1 6.93 1 13.86 1 21 C0.67 21 0.34 21 0 21 C0 14.07 0 7.14 0 0 Z " fill="#ECFBF3" transform="translate(936,167)"/>
<path d="M0 0 C0.33 0 0.66 0 1 0 C1 6.6 1 13.2 1 20 C0.67 20 0.34 20 0 20 C0 13.4 0 6.8 0 0 Z " fill="#DFE9E4" transform="translate(160,128)"/>
<path d="M0 0 C0.33 0 0.66 0 1 0 C1 3.3 1 6.6 1 10 C0.67 10 0.34 10 0 10 C0 6.7 0 3.4 0 0 Z " fill="#EEF5F2" transform="translate(936,190)"/>
<path d="M0 0 C0.33 0 0.66 0 1 0 C1 3.3 1 6.6 1 10 C0.67 10 0.34 10 0 10 C0 6.7 0 3.4 0 0 Z " fill="#ECFBF3" transform="translate(936,85)"/>
<path d="M0 0 C0.33 0 0.66 0 1 0 C1 2.97 1 5.94 1 9 C0.67 9 0.34 9 0 9 C0 6.03 0 3.06 0 0 Z " fill="#EEF5F2" transform="translate(936,75)"/>
<path d="M0 0 C0.33 0.66 0.66 1.32 1 2 C0.06 4.12 0.06 4.12 -1 6 C-1.04 4.33 -1.04 2.67 -1 1 C-0.67 0.67 -0.34 0.34 0 0 Z " fill="#56795E" transform="translate(343,156)"/>
<path d="M0 0 C0.33 0 0.66 0 1 0 C1 2.31 1 4.62 1 7 C0.67 7 0.34 7 0 7 C0 4.69 0 2.38 0 0 Z " fill="#F6FCF6" transform="translate(936,113)"/>
<path d="M0 0 C0.33 0 0.66 0 1 0 C1 2.31 1 4.62 1 7 C0.67 7 0.34 7 0 7 C0 4.69 0 2.38 0 0 Z " fill="#F6FCF6" transform="translate(936,99)"/>
<path d="M0 0 C0.33 0 0.66 0 1 0 C1 1.98 1 3.96 1 6 C0.67 6 0.34 6 0 6 C0 4.02 0 2.04 0 0 Z " fill="#E4F1E8" transform="translate(936,68)"/>
<path d="M0 0 C0.66 0.33 1.32 0.66 2 1 C1.01 1.99 0.02 2.98 -1 4 C-0.67 2.68 -0.34 1.36 0 0 Z " fill="#FCFEFE" transform="translate(1144,68)"/>
<path d="M0 0 C0.33 0 0.66 0 1 0 C1 1.98 1 3.96 1 6 C0.67 6 0.34 6 0 6 C0 4.02 0 2.04 0 0 Z " fill="#DFEDE2" transform="translate(936,61)"/>
<path d="M0 0 C0.33 0 0.66 0 1 0 C1 1.65 1 3.3 1 5 C0.67 5 0.34 5 0 5 C0 3.35 0 1.7 0 0 Z " fill="#587C5E" transform="translate(914,157)"/>
<path d="M0 0 C1 4 1 4 1 4 Z " fill="#CBDECF" transform="translate(1047,217)"/>
<path d="M0 0 C1 4 1 4 1 4 Z " fill="#283F2C" transform="translate(915,120)"/>
<path d="M0 0 C0.66 0 1.32 0 2 0 C1.67 0.99 1.34 1.98 1 3 C0.67 2.01 0.34 1.02 0 0 Z " fill="#405C44" transform="translate(700,87)"/>
<path d="" fill="#F4FCFA" transform="translate(0,0)"/>
<path d="" fill="#F4FCFA" transform="translate(0,0)"/>
<path d="" fill="#719178" transform="translate(0,0)"/>
<path d="M0 0 C3 1 3 1 3 1 Z " fill="#FCFEFE" transform="translate(1146,66)"/>
<path d="M0 0 C0.99 0.49 0.99 0.49 2 1 C1.01 1.49 1.01 1.49 0 2 C0 1.34 0 0.68 0 0 Z " fill="#FCFEFE" transform="translate(999,60)"/>
<path d="M0 0 C0.33 0.66 0.66 1.32 1 2 C0.34 1.67 -0.32 1.34 -1 1 C-0.67 0.67 -0.34 0.34 0 0 Z " fill="#FCFEFE" transform="translate(779,57)"/>
<path d="" fill="#5F7F66" transform="translate(0,0)"/>
<path d="" fill="#304B33" transform="translate(0,0)"/>
<path d="" fill="#F4FCFA" transform="translate(0,0)"/>
<path d="" fill="#FCFEFE" transform="translate(0,0)"/>
<path d="" fill="#FCFEFE" transform="translate(0,0)"/>
<path d="" fill="#FCFEFE" transform="translate(0,0)"/>
<path d="" fill="#CBDECF" transform="translate(0,0)"/>
<path d="" fill="#EEF5F2" transform="translate(0,0)"/>
<path d="" fill="#EEF5F2" transform="translate(0,0)"/>
<path d="" fill="#577C5D" transform="translate(0,0)"/>
<path d="" fill="#D4E1D7" transform="translate(0,0)"/>
<path d="" fill="#B8CBBF" transform="translate(0,0)"/>
<path d="" fill="#17301B" transform="translate(0,0)"/>
<path d="" fill="#FCFEFE" transform="translate(0,0)"/>
<path d="" fill="#D4E1D7" transform="translate(0,0)"/>
<path d="" fill="#D4E1D7" transform="translate(0,0)"/>
<path d="" fill="#FCFEFE" transform="translate(0,0)"/>
<path d="" fill="#FDFDFD" transform="translate(0,0)"/>
<path d="" fill="#3B553E" transform="translate(0,0)"/>
<path d="" fill="#D4E1D7" transform="translate(0,0)"/>
<path d="" fill="#3B553E" transform="translate(0,0)"/>
<path d="" fill="#F6FCF6" transform="translate(0,0)"/>
<path d="" fill="#3B553E" transform="translate(0,0)"/>
<path d="" fill="#DFE9E4" transform="translate(0,0)"/>
<path d="" fill="#F4FCFA" transform="translate(0,0)"/>
<path d="" fill="#F6FCF6" transform="translate(0,0)"/>
<path d="" fill="#F4FCFA" transform="translate(0,0)"/>
<path d="" fill="#FCFEFE" transform="translate(0,0)"/>
<path d="" fill="#FCFEFE" transform="translate(0,0)"/>
<path d="" fill="#FCFEFE" transform="translate(0,0)"/>
<path d="" fill="#496953" transform="translate(0,0)"/>
<path d="" fill="#FCFEFE" transform="translate(0,0)"/>
<path d="" fill="#FCFEFE" transform="translate(0,0)"/>
<path d="" fill="#FDFDFD" transform="translate(0,0)"/>
<path d="" fill="#D4E1D7" transform="translate(0,0)"/>
<path d="" fill="#F6FCF6" transform="translate(0,0)"/>
<path d="" fill="#C8D6CB" transform="translate(0,0)"/>
<path d="" fill="#FCFEFE" transform="translate(0,0)"/>
<path d="" fill="#FCFEFE" transform="translate(0,0)"/>
<path d="" fill="#99AE9B" transform="translate(0,0)"/>
<path d="" fill="#FCFEFE" transform="translate(0,0)"/>
<path d="" fill="#FCFEFE" transform="translate(0,0)"/>
</svg>
