<?xml version="1.0" encoding="UTF-8"?>
<!-- Generator: visioncortex VTracer 0.6.3 -->
<svg version="1.1" xmlns="http://www.w3.org/2000/svg" width="1280" height="306">
<path d="M0 0 C1.24 0.24 2.48 0.48 3.75 0.73 C9.33 1.9 14.26 3.28 19.25 6.04 C21.22 7.16 21.22 7.16 24.31 8.38 C38.4 14.35 49.82 23.31 60.44 34.19 C61.74 35.5 61.74 35.5 63.08 36.84 C68.39 42.22 73.23 47.35 76.88 54.02 C77.65 55.39 78.48 56.73 79.34 58.04 C88.29 71.85 92.12 87.05 94.63 103.13 C94.93 105.08 94.93 105.08 96 107 C97.09 121.56 96.27 135.08 92 149 C91.71 150.66 91.43 152.33 91.19 154 C89.1 164.95 83.11 175.82 77 185 C76.44 185.84 75.89 186.68 75.32 187.55 C69.72 195.77 63.62 202.71 56.02 209.14 C54.05 210.96 52.59 212.85 51 215 C49.35 216.03 47.68 217.03 46 218 C43.93 219.57 41.89 221.17 39.87 222.79 C38 224 38 224 35 224 C35 224.66 35 225.32 35 226 C34.46 226.08 33.93 226.16 33.38 226.25 C30.78 226.94 30.78 226.94 28.06 229 C25.03 230.98 23.45 231.34 20 232 C18.27 232.92 18.27 232.92 16.51 233.86 C-6.09 245.33 -36.66 243.19 -60.38 236.88 C-64.05 235.65 -67.39 233.97 -70.79 232.12 C-73.8 230.59 -76.73 229.78 -80 229 C-80 228.34 -80 227.68 -80 227 C-81.98 226.67 -83.96 226.34 -86 226 C-86 225.34 -86 224.68 -86 224 C-86.58 223.89 -87.17 223.78 -87.77 223.67 C-90.26 222.92 -91.71 221.92 -93.75 220.31 C-97.29 217.55 -100.88 214.91 -104.53 212.3 C-105.02 211.87 -105.5 211.44 -106 211 C-106 210.34 -106 209.68 -106 209 C-106.56 208.77 -107.11 208.55 -107.69 208.31 C-125.41 198.26 -138.46 171.2 -143.72 152.45 C-152.34 117.66 -146.58 84.4 -128.55 53.51 C-126.59 50.28 -124.71 47.64 -122 45 C-120.87 43.72 -119.74 42.42 -118.62 41.12 C-115.87 37.95 -112.98 34.98 -110 32 C-108.56 30.26 -107.13 28.52 -105.72 26.75 C-103.4 24.39 -100.78 22.78 -98 21 C-97.02 20.33 -96.04 19.66 -95.04 18.96 C-94.05 18.3 -93.07 17.63 -92.06 16.94 C-91.08 16.27 -90.11 15.59 -89.1 14.9 C-85.82 12.89 -82.56 11.46 -79 10 C-77.61 9.37 -76.22 8.74 -74.83 8.1 C-50.42 -2.87 -26.19 -5.17 0 0 Z M47 213 C48 215 48 215 48 215 Z M-39 239 C-35 240 -35 240 -35 240 Z " fill="#A4D03B" transform="translate(196,33)"/>
<path d="M0 0 C1.24 0.24 2.48 0.48 3.75 0.73 C9.33 1.9 14.26 3.28 19.25 6.04 C21.22 7.16 21.22 7.16 24.31 8.38 C38.4 14.35 49.82 23.31 60.44 34.19 C61.74 35.5 61.74 35.5 63.08 36.84 C68.39 42.22 73.23 47.35 76.88 54.02 C77.65 55.39 78.48 56.73 79.34 58.04 C88.29 71.85 92.12 87.05 94.63 103.13 C94.93 105.08 94.93 105.08 96 107 C97.09 121.56 96.27 135.08 92 149 C91.71 150.66 91.43 152.33 91.19 154 C89.1 164.95 83.11 175.82 77 185 C76.44 185.84 75.89 186.68 75.32 187.55 C69.46 196.15 63 203.35 55 210 C54.01 209.34 53.02 208.68 52 208 C51.63 205.92 51.63 205.92 51.63 203.3 C51.62 202.31 51.61 201.31 51.61 200.29 C51.62 199.2 51.62 198.11 51.63 196.98 C51.63 195.26 51.63 195.26 51.62 193.5 C51.61 191 51.61 188.5 51.62 185.99 C51.63 182.02 51.62 178.05 51.6 174.08 C51.57 164.21 51.56 154.34 51.56 144.47 C51.57 136.82 51.56 129.17 51.52 121.52 C51.5 116.96 51.51 112.39 51.53 107.83 C51.53 90.55 51.53 90.55 47 74 C46.66 73.13 46.32 72.27 45.96 71.38 C45.07 69.19 44.07 67.1 43 65 C42.64 64.28 42.29 63.55 41.92 62.8 C38.68 56.59 34.47 51.37 30 46 C29.39 45.18 28.78 44.36 28.15 43.51 C17.05 30.56 -1.61 23.18 -18.19 21.82 C-39.06 20.59 -59 25.82 -75.25 39.41 C-77.59 41.53 -79.83 43.71 -82 46 C-82.91 46.89 -83.81 47.77 -84.75 48.69 C-87.02 50.79 -87.02 50.79 -88 53 C-88.66 53 -89.32 53 -90 53 C-90.27 53.72 -90.54 54.45 -90.82 55.2 C-91.97 57.92 -93.31 60.33 -94.81 62.88 C-99.78 71.82 -104.13 82.75 -104.12 93.07 C-104.12 94.1 -104.12 95.12 -104.12 96.18 C-104.12 97.29 -104.12 98.41 -104.11 99.56 C-104.11 100.74 -104.11 101.92 -104.11 103.14 C-104.11 106.37 -104.11 109.61 -104.1 112.84 C-104.1 116.22 -104.09 119.6 -104.09 122.98 C-104.09 129.38 -104.08 135.78 -104.07 142.18 C-104.06 149.47 -104.06 156.75 -104.05 164.04 C-104.04 179.03 -104.02 194.01 -104 209 C-108.92 208.23 -110.65 206.74 -114 203 C-114.45 202.51 -114.91 202.02 -115.37 201.52 C-137.12 177.94 -149.44 147.39 -148.15 115.08 C-146.5 91.51 -139.42 61.99 -122 45 C-120.87 43.72 -119.74 42.42 -118.62 41.12 C-115.87 37.95 -112.98 34.98 -110 32 C-108.56 30.26 -107.13 28.52 -105.72 26.75 C-103.4 24.39 -100.78 22.78 -98 21 C-97.02 20.33 -96.04 19.66 -95.04 18.96 C-94.05 18.3 -93.07 17.63 -92.06 16.94 C-91.08 16.27 -90.11 15.59 -89.1 14.9 C-85.82 12.89 -82.56 11.46 -79 10 C-77.61 9.37 -76.22 8.74 -74.83 8.1 C-50.42 -2.87 -26.19 -5.17 0 0 Z " fill="#EEF4D5" transform="translate(196,33)"/>
<path d="M0 0 C1.3 -0.02 2.61 -0.04 3.95 -0.06 C5.38 -0.07 6.81 -0.08 8.24 -0.08 C9.71 -0.1 11.18 -0.11 12.65 -0.12 C15.75 -0.14 18.84 -0.15 21.93 -0.16 C25.86 -0.17 29.79 -0.22 33.72 -0.27 C36.77 -0.31 39.81 -0.32 42.86 -0.32 C44.3 -0.33 45.75 -0.35 47.2 -0.37 C58 -0.56 67.16 1.01 75.31 8.67 C83.47 17.43 85.06 24.14 84.97 35.94 C84.74 40.86 83.71 44.52 81.5 48.95 C80.49 51.4 80.49 51.4 82.13 53.76 C82.68 54.61 83.24 55.45 83.81 56.32 C85.73 65.25 86.44 76.26 81.63 84.31 C76.45 91.8 70.66 96.13 61.81 98.32 C58.4 98.58 58.4 98.58 54.81 98.6 C54.15 98.6 53.49 98.61 52.8 98.61 C50.64 98.63 48.48 98.63 46.32 98.62 C44.81 98.63 43.31 98.63 41.8 98.64 C38.64 98.64 35.49 98.64 32.34 98.64 C28.3 98.63 24.26 98.65 20.21 98.67 C17.1 98.69 13.99 98.69 10.88 98.68 C9.39 98.69 7.9 98.69 6.4 98.7 C4.33 98.71 2.25 98.71 0.17 98.69 C-1.01 98.7 -2.19 98.7 -3.41 98.7 C-4.79 98.51 -4.79 98.51 -6.19 98.32 C-8.81 94.39 -8.47 91.04 -8.45 86.48 C-8.45 85.57 -8.45 84.67 -8.46 83.74 C-8.47 80.74 -8.46 77.75 -8.45 74.76 C-8.45 72.68 -8.46 70.6 -8.46 68.53 C-8.46 64.18 -8.46 59.82 -8.45 55.47 C-8.44 49.88 -8.44 44.3 -8.45 38.71 C-8.46 34.42 -8.46 30.13 -8.45 25.85 C-8.45 23.79 -8.45 21.73 -8.46 19.67 C-8.46 16.79 -8.46 13.91 -8.45 11.04 C-8.45 10.18 -8.45 9.32 -8.46 8.44 C-8.41 1.14 -7.14 0.08 0 0 Z M17.81 27.32 C17.79 33.57 17.77 39.82 17.76 46.07 C17.75 48.19 17.75 50.32 17.74 52.45 C17.73 55.5 17.72 58.55 17.72 61.6 C17.71 62.56 17.71 63.51 17.7 64.5 C17.7 65.38 17.7 66.26 17.7 67.17 C17.7 67.95 17.7 68.73 17.69 69.53 C17.62 71.35 17.62 71.35 18.81 72.32 C21.76 72.42 24.68 72.46 27.63 72.46 C28.51 72.46 29.39 72.46 30.3 72.46 C32.18 72.46 34.05 72.46 35.92 72.45 C38.8 72.45 41.68 72.45 44.56 72.46 C46.37 72.46 48.19 72.46 50 72.46 C51.3 72.46 51.3 72.46 52.63 72.46 C56.53 72.83 56.53 72.83 59.81 71.32 C60.08 67.29 60.11 65.76 57.81 62.32 C55.2 61.81 55.2 61.81 52.15 61.81 C50.47 61.76 50.47 61.76 48.75 61.7 C47.57 61.68 46.4 61.66 45.19 61.63 C44 61.6 42.82 61.57 41.6 61.53 C38.67 61.45 35.74 61.38 32.81 61.32 C31.59 58.89 31.68 57.29 31.68 54.57 C31.68 53.63 31.68 52.7 31.68 51.73 C31.68 50.75 31.68 49.77 31.69 48.76 C31.68 47.78 31.68 46.79 31.68 45.78 C31.68 44.84 31.68 43.91 31.68 42.94 C31.68 42.08 31.68 41.22 31.68 40.33 C31.81 38.32 31.81 38.32 32.81 37.32 C34.73 37.18 36.64 37.09 38.56 37.04 C39.73 37 40.89 36.97 42.09 36.93 C44.57 36.86 47.05 36.79 49.53 36.72 C50.7 36.68 51.86 36.64 53.06 36.6 C54.68 36.56 54.68 36.56 56.33 36.51 C58.75 36.6 58.75 36.6 59.81 35.32 C60.06 31.18 60.06 31.18 58.81 27.32 C45.28 27.32 31.75 27.32 17.81 27.32 Z " fill="#A7D23D" transform="translate(729.18701171875,101.677734375)"/>
<path d="M0 0 C3.76 1.35 7.47 1.62 11.44 1.88 C12.34 1.94 13.23 2.01 14.16 2.07 C21.43 2.36 27.6 0.97 34.56 -1.04 C57.49 -7.63 57.49 -7.63 66.69 -3.44 C73.2 0.28 76.42 4.67 78.44 11.88 C78.87 14.85 78.96 17.75 78.94 20.75 C78.93 21.54 78.93 22.33 78.92 23.14 C78.73 29.68 77.32 34.52 73.44 39.88 C73.01 40.49 72.59 41.11 72.16 41.75 C66.44 49.21 57.7 54.6 49.44 58.88 C48.68 59.3 47.91 59.72 47.13 60.15 C33.23 67.28 16.67 66.44 1.44 65.88 C0.7 65.85 -0.04 65.82 -0.8 65.8 C-14.98 65.15 -29.66 59.01 -39.69 48.69 C-46.57 38.36 -49.26 28.23 -47.56 15.88 C-45.42 9.56 -42.16 3.74 -37.56 -1.12 C-35.14 -1.84 -35.14 -1.84 -32.56 -2.12 C-30.81 -2.66 -29.06 -3.2 -27.31 -3.75 C-17.83 -6.34 -8.86 -3.89 0 0 Z " fill="#FAFCFC" transform="translate(155.5625,144.125)"/>
<path d="M0 0 C1.15 -0.01 2.3 -0.01 3.49 -0.02 C4.73 -0.02 5.97 -0.02 7.24 -0.02 C8.52 -0.03 9.79 -0.03 11.1 -0.03 C13.8 -0.04 16.49 -0.04 19.19 -0.04 C22.64 -0.04 26.09 -0.05 29.54 -0.07 C32.84 -0.08 36.13 -0.08 39.43 -0.09 C41.29 -0.1 41.29 -0.1 43.19 -0.11 C44.91 -0.1 44.91 -0.1 46.67 -0.1 C47.68 -0.1 48.69 -0.1 49.73 -0.1 C52.27 0.15 52.27 0.15 55.27 2.15 C55.63 4.47 55.63 4.47 55.6 7.34 C55.59 8.36 55.59 9.39 55.58 10.45 C55.56 11.52 55.54 12.6 55.52 13.71 C55.51 14.79 55.51 15.87 55.5 16.98 C55.42 24.99 55.42 24.99 54.27 26.15 C52.44 26.27 50.61 26.33 48.77 26.37 C47.01 26.4 47.01 26.4 45.21 26.44 C43.93 26.46 42.65 26.48 41.34 26.5 C40.03 26.52 38.73 26.54 37.39 26.57 C34.62 26.62 31.86 26.66 29.1 26.7 C25.55 26.76 22.01 26.82 18.46 26.89 C15.09 26.95 11.71 27 8.34 27.06 C6.42 27.1 6.42 27.1 4.47 27.13 C2.7 27.16 2.7 27.16 0.9 27.18 C-0.14 27.2 -1.18 27.22 -2.26 27.23 C-4.73 27.15 -4.73 27.15 -6.73 26.15 C-6.4 26.81 -6.07 27.47 -5.73 28.15 C-5.69 30.48 -5.69 32.81 -5.73 35.15 C-4.55 35.15 -3.37 35.16 -2.16 35.17 C2.27 35.21 6.7 35.28 11.13 35.35 C13.03 35.38 14.94 35.4 16.85 35.42 C42.66 35.62 42.66 35.62 51.64 43.77 C52.89 45.2 54.1 46.66 55.27 48.15 C55.87 48.83 56.47 49.51 57.09 50.22 C62.58 57.53 62.58 66.12 61.66 74.9 C60.17 83.51 54.5 89.71 47.77 94.84 C40.15 98.81 32.04 98.45 23.65 98.45 C21.71 98.45 21.71 98.45 19.73 98.46 C17.01 98.47 14.29 98.47 11.57 98.46 C8.08 98.46 4.59 98.47 1.1 98.5 C-2.24 98.51 -5.57 98.51 -8.91 98.51 C-10.17 98.52 -11.42 98.53 -12.71 98.54 C-13.87 98.53 -15.02 98.52 -16.21 98.52 C-17.74 98.52 -17.74 98.52 -19.3 98.52 C-20.1 98.4 -20.91 98.27 -21.73 98.15 C-23.87 94.93 -23.99 94.03 -24 90.33 C-24 89.4 -24 88.47 -24 87.51 C-23.99 86.06 -23.99 86.06 -23.98 84.58 C-23.99 83.61 -24 82.64 -24 81.64 C-24 80.71 -24 79.78 -24 78.83 C-23.99 77.55 -23.99 77.55 -23.99 76.25 C-23.73 74.15 -23.73 74.15 -21.73 72.15 C-19.33 71.87 -19.33 71.87 -16.27 71.83 C-14.56 71.8 -14.56 71.8 -12.81 71.77 C-11.58 71.75 -10.34 71.74 -9.07 71.73 C-7.8 71.71 -6.54 71.69 -5.24 71.67 C-1.88 71.62 1.47 71.58 4.83 71.54 C8.25 71.5 11.68 71.45 15.11 71.4 C21.83 71.31 28.55 71.22 35.27 71.15 C35.48 67 35.48 67 34.27 63.15 C33.02 63.15 31.78 63.15 30.5 63.15 C25.83 63.14 21.17 63.1 16.5 63.05 C14.49 63.03 12.48 63.02 10.47 63.03 C-2.88 63.04 -11.99 62.43 -22.67 53.76 C-28.88 46.83 -31.12 40.81 -32.11 31.65 C-31.06 21.86 -28.35 13.65 -20.73 7.15 C-13.74 2.85 -8.25 0.03 0 0 Z " fill="#A7D23D" transform="translate(1154.730712890625,101.854736328125)"/>
<path d="M0 0 C0.69 0.09 1.37 0.18 2.08 0.27 C14.17 2.49 24.02 12.41 30.75 22.12 C39.09 36.46 38.54 50.78 38.36 66.93 C38.31 70.85 38.3 74.77 38.28 78.69 C38.27 81.17 38.25 83.66 38.24 86.14 C38.23 87.32 38.22 88.5 38.22 89.71 C38.2 90.78 38.19 91.86 38.18 92.97 C38.17 93.92 38.16 94.87 38.15 95.85 C38 98 38 98 37 99 C33.19 99.28 29.38 99.23 25.56 99.25 C24.49 99.27 23.41 99.29 22.3 99.31 C20.76 99.32 20.76 99.32 19.19 99.33 C18.24 99.34 17.3 99.35 16.32 99.36 C15.17 99.18 15.17 99.18 14 99 C12 96 12 96 11 79 C-8.8 78.5 -8.8 78.5 -29 78 C-29 84.6 -29 91.2 -29 98 C-31.54 100.54 -38.52 99.23 -41.94 99.25 C-43.06 99.27 -44.18 99.29 -45.34 99.31 C-46.41 99.32 -47.49 99.32 -48.59 99.33 C-49.58 99.34 -50.57 99.35 -51.59 99.36 C-52.38 99.24 -53.18 99.12 -54 99 C-56.14 95.78 -56.26 94.88 -56.31 91.17 C-56.32 90.19 -56.34 89.21 -56.35 88.19 C-56.36 86.6 -56.36 86.6 -56.37 84.96 C-56.38 83.86 -56.39 82.75 -56.4 81.61 C-56.41 79.25 -56.42 76.9 -56.43 74.55 C-56.44 71 -56.49 67.46 -56.54 63.92 C-56.68 44.82 -55.09 27.9 -42 13 C-39.51 10.58 -36.98 8.76 -34 7 C-33.17 6.47 -32.33 5.94 -31.48 5.39 C-21.37 -0.68 -11.53 -1.83 0 0 Z M-26.62 34.9 C-29.05 38.59 -29.14 42.43 -29.12 46.75 C-29.13 47.53 -29.13 48.31 -29.13 49.11 C-29.21 51.01 -29.21 51.01 -28 52 C-25.04 52.09 -22.11 52.12 -19.15 52.1 C-18.27 52.1 -17.38 52.09 -16.47 52.09 C-13.62 52.09 -10.78 52.08 -7.94 52.06 C-6.01 52.06 -4.09 52.05 -2.17 52.05 C2.55 52.04 7.28 52.02 12 52 C11.89 49.76 11.76 47.52 11.62 45.29 C11.52 43.42 11.52 43.42 11.41 41.51 C10.72 35.61 8.6 32.13 4.05 28.41 C-7.95 20.64 -18.05 25.24 -26.62 34.9 Z " fill="#A6D13D" transform="translate(975,101)"/>
<path d="M0 0 C0.94 -0 1.88 -0.01 2.85 -0.01 C4.83 -0.02 6.81 -0.02 8.79 -0.02 C11.83 -0.02 14.87 -0.04 17.91 -0.06 C19.83 -0.06 21.76 -0.06 23.69 -0.06 C25.05 -0.07 25.05 -0.07 26.44 -0.08 C27.71 -0.08 27.71 -0.08 29 -0.07 C29.74 -0.08 30.49 -0.08 31.25 -0.08 C33.21 0.17 33.21 0.17 36.21 2.17 C36.57 4.58 36.57 4.58 36.54 7.58 C36.53 8.65 36.53 9.72 36.52 10.83 C36.5 11.95 36.48 13.07 36.46 14.23 C36.46 15.36 36.45 16.49 36.45 17.65 C36.36 26.01 36.36 26.01 35.21 27.17 C33.8 27.27 32.38 27.31 30.97 27.33 C30.07 27.34 29.17 27.35 28.24 27.36 C27.26 27.36 26.27 27.37 25.26 27.38 C23.2 27.41 21.13 27.44 19.06 27.46 C15.8 27.51 12.53 27.54 9.26 27.57 C6.12 27.6 2.97 27.64 -0.18 27.69 C-1.15 27.69 -2.12 27.7 -3.12 27.7 C-8.39 27.8 -12.31 28.08 -16.79 31.17 C-19.13 33.72 -19.13 33.72 -20.79 36.17 C-19.74 36.16 -18.7 36.15 -17.62 36.14 C-13.75 36.1 -9.87 36.08 -6 36.06 C-4.32 36.05 -2.65 36.03 -0.97 36.02 C1.44 35.99 3.85 35.98 6.26 35.97 C7.39 35.96 7.39 35.96 8.53 35.94 C12.31 35.94 13.99 36.02 17.21 38.17 C17.57 40.49 17.57 40.49 17.54 43.36 C17.53 44.39 17.53 45.41 17.52 46.47 C17.5 47.55 17.48 48.62 17.46 49.73 C17.46 50.81 17.45 51.89 17.45 53 C17.36 61.01 17.36 61.01 16.21 62.17 C13.4 62.33 10.61 62.43 7.8 62.48 C6.54 62.52 6.54 62.52 5.25 62.55 C2.55 62.61 -0.15 62.67 -2.85 62.73 C-4.68 62.77 -6.5 62.82 -8.33 62.86 C-12.82 62.97 -17.3 63.07 -21.79 63.17 C-18.9 67.28 -16.54 69.47 -11.79 71.17 C-8.34 71.59 -4.93 71.61 -1.46 71.61 C-0.48 71.62 0.5 71.64 1.51 71.65 C4.64 71.69 7.77 71.71 10.9 71.73 C14.04 71.75 17.18 71.78 20.31 71.82 C22.26 71.85 24.21 71.86 26.16 71.87 C27.05 71.88 27.93 71.89 28.83 71.9 C30 71.9 30 71.9 31.18 71.91 C33.21 72.17 33.21 72.17 36.21 74.17 C36.57 76.49 36.57 76.49 36.54 79.36 C36.53 80.39 36.53 81.41 36.52 82.47 C36.5 83.55 36.48 84.62 36.46 85.73 C36.46 86.81 36.45 87.89 36.45 89 C36.36 97.01 36.36 97.01 35.21 98.17 C33.79 98.27 32.35 98.31 30.93 98.31 C30.01 98.32 29.1 98.33 28.16 98.33 C27.17 98.33 26.17 98.33 25.15 98.34 C24.13 98.34 23.11 98.34 22.06 98.35 C19.89 98.35 17.72 98.35 15.55 98.35 C12.25 98.36 8.96 98.37 5.66 98.39 C3.55 98.4 1.44 98.4 -0.66 98.4 C-1.64 98.41 -2.62 98.41 -3.63 98.42 C-12.16 98.39 -19.4 97.79 -26.24 92.39 C-27.88 91.03 -27.88 91.03 -30.29 89.73 C-41.2 82.91 -46.41 72.45 -51.16 60.79 C-53.69 46.12 -50.41 33.75 -42.79 21.17 C-31.91 6.63 -17.88 0.02 0 0 Z " fill="#A7D23D" transform="translate(874.7890625,101.83203125)"/>
<path d="M0 0 C1.08 -0.02 1.08 -0.02 2.17 -0.04 C14.98 -0.07 25.31 5.68 34.62 14.19 C36.84 16.73 38.74 19.4 40.62 22.19 C41.33 23.07 42.03 23.96 42.75 24.88 C50.22 38.07 51.03 54.86 47.06 69.38 C42.27 82.47 32.07 92.64 19.72 98.83 C13.05 101.79 6.9 101.96 -0.31 101.88 C-1.5 101.9 -2.68 101.93 -3.9 101.96 C-17.34 101.92 -26.36 96.09 -35.68 86.98 C-39.3 83.23 -42.59 79.6 -45.38 75.19 C-46.13 73.99 -46.13 73.99 -46.91 72.77 C-50.49 65.87 -50.86 59.19 -50.94 51.56 C-50.95 50.6 -50.97 49.63 -50.98 48.64 C-50.88 41.74 -49.31 36.4 -46.38 30.19 C-46.05 29.46 -45.73 28.74 -45.4 27.99 C-39.58 15.04 -29.67 7.85 -17.02 2.13 C-11.42 0.13 -5.87 0.01 0 0 Z M-21.2 35.21 C-25.09 41.74 -27.82 48.52 -26.38 56.19 C-23.69 64.7 -19.88 69.92 -12.28 74.43 C-5.93 77.67 0.2 78.5 7.08 76.46 C11.88 74.51 15.23 72.17 18.62 68.19 C19.37 67.36 20.11 66.54 20.88 65.69 C24.94 59.89 24.06 51.98 23.62 45.19 C22.47 38.67 19.7 33.48 14.62 29.19 C9.53 25.76 4.29 23.24 -1.95 23.64 C-9.33 25.31 -16.62 29.07 -21.2 35.21 Z " fill="#00A074" transform="translate(577.375,100.8125)"/>
<path d="M0 0 C0.63 0.24 1.27 0.49 1.92 0.74 C12.62 5.25 20.85 14.83 26 25 C26.53 26.04 26.53 26.04 27.06 27.09 C30.33 34.25 30.6 40.78 30.5 48.56 C30.52 50.31 30.52 50.31 30.55 52.1 C30.51 59.38 29.51 64.64 26 71 C25.51 72.07 25.02 73.14 24.52 74.25 C21.81 79.17 17.88 82.99 14 87 C13.43 87.59 12.86 88.19 12.28 88.8 C3.78 96.88 -7.04 98.91 -18.38 98.75 C-19.56 98.74 -20.75 98.73 -21.97 98.71 C-36.01 98.26 -45.59 92.73 -55.37 82.89 C-65.49 71.77 -70.09 59.25 -69.45 44.32 C-68.61 33.86 -64.52 24.19 -58 16 C-57.53 15.38 -57.05 14.75 -56.57 14.11 C-43.85 -1.77 -18.86 -9.07 0 0 Z M-38.56 30.81 C-43.47 38.42 -45.33 46.41 -43.53 55.32 C-41.59 62.13 -38.51 67 -32.29 70.54 C-24.91 73.93 -18.18 75.86 -10.33 73.04 C-2.91 69.59 2.18 65.34 5.26 57.64 C8 47.89 5.94 39.72 1.21 31.05 C-2.74 25.6 -7.73 23.09 -14 21 C-23.44 19.95 -32.48 23.26 -38.56 30.81 Z " fill="#00A074" transform="translate(486,104)"/>
<path d="M0 0 C11.81 10 18.94 23.68 20.27 39.15 C20.36 42.42 20.36 45.68 20.33 48.95 C20.33 50.13 20.32 51.31 20.32 52.52 C20.32 54.99 20.3 57.46 20.28 59.92 C20.25 63.72 20.24 67.51 20.23 71.3 C20.23 73.71 20.21 76.11 20.2 78.51 C20.2 79.65 20.19 80.79 20.19 81.96 C20.18 83 20.17 84.05 20.16 85.12 C20.15 86.04 20.15 86.96 20.14 87.91 C20 90 20 90 19 91 C15.19 91.28 11.38 91.23 7.56 91.25 C6.49 91.27 5.41 91.29 4.3 91.31 C2.76 91.32 2.76 91.32 1.19 91.33 C0.24 91.34 -0.7 91.35 -1.68 91.36 C-2.83 91.18 -2.83 91.18 -4 91 C-6.16 87.76 -6.25 86.87 -6.27 83.14 C-6.29 81.65 -6.29 81.65 -6.3 80.14 C-6.3 79.07 -6.31 78 -6.31 76.9 C-6.33 74.63 -6.36 72.36 -6.38 70.1 C-6.41 66.52 -6.44 62.95 -6.46 59.38 C-6.48 55.93 -6.52 52.48 -6.56 49.03 C-6.56 47.45 -6.56 47.45 -6.56 45.83 C-6.67 37.72 -7.65 28.5 -13 22 C-17.69 18.69 -22.12 16.7 -28 17 C-32.56 18.05 -36.91 19.71 -41 22 C-42.13 23.83 -42.13 23.83 -43 26 C-43.76 27.12 -43.76 27.12 -44.53 28.26 C-46.23 31.43 -46.39 33.4 -46.42 36.97 C-46.43 38.15 -46.45 39.32 -46.47 40.54 C-46.47 41.8 -46.47 43.06 -46.48 44.36 C-46.5 46.35 -46.52 48.33 -46.55 50.32 C-46.58 53.09 -46.59 55.86 -46.61 58.64 C-46.64 63.5 -46.69 68.37 -46.75 73.24 C-46.77 75.84 -46.8 78.43 -46.81 81.02 C-46.83 82.77 -46.83 82.77 -46.84 84.55 C-46.85 85.58 -46.86 86.61 -46.86 87.67 C-47 90 -47 90 -48 91 C-51.81 91.28 -55.62 91.23 -59.44 91.25 C-60.51 91.27 -61.59 91.29 -62.7 91.31 C-64.24 91.32 -64.24 91.32 -65.81 91.33 C-66.76 91.34 -67.7 91.35 -68.68 91.36 C-69.44 91.24 -70.21 91.12 -71 91 C-73.22 87.68 -73.26 86.6 -73.29 82.73 C-73.3 81.65 -73.32 80.57 -73.33 79.46 C-73.33 78.29 -73.33 77.12 -73.34 75.91 C-73.34 74.71 -73.35 73.5 -73.36 72.25 C-73.37 69.69 -73.37 67.13 -73.37 64.56 C-73.37 60.67 -73.41 56.79 -73.45 52.9 C-73.46 50.41 -73.46 47.91 -73.46 45.41 C-73.48 44.27 -73.49 43.12 -73.5 41.93 C-73.42 27.07 -68.47 14.61 -58.38 3.75 C-42.15 -11.74 -18.02 -13.45 0 0 Z M-46 25 C-45 27 -45 27 -45 27 Z " fill="#A7D23D" transform="translate(1095,109)"/>
<path d="M0 0 C6.24 5.15 11.17 11.52 15.7 18.19 C16.29 19.02 16.29 19.02 16.9 19.87 C20.04 24.68 20.15 28.33 19.64 33.82 C19.6 34.55 19.56 35.29 19.52 36.05 C19.11 41.5 17.89 45.09 13.85 48.98 C9.74 51.3 5.26 50.77 0.7 50.19 C-3.1 48.98 -5.61 47.16 -7.95 43.86 C-10.34 37.35 -9.77 30.45 -9.82 23.58 C-9.85 22.45 -9.87 21.32 -9.89 20.16 C-9.9 19.13 -9.91 18.11 -9.91 17.05 C-10.47 12.94 -12.16 10.29 -15.11 7.44 C-18.03 5.77 -19.9 5.26 -23.3 5.19 C-28.02 6.57 -30.61 8.24 -33.5 12.28 C-35.79 16.55 -35.86 20.55 -35.86 25.32 C-35.91 34.84 -35.91 34.84 -39.3 39.19 C-43.1 42.53 -46.91 42.77 -51.79 42.61 C-55.79 41.94 -58.64 40.23 -61.3 37.19 C-64.92 31.49 -64.73 26.34 -64.74 19.82 C-64.89 13.53 -66.63 9.86 -71.17 5.32 C-74.22 3.71 -75.87 3.67 -79.3 4.19 C-83.68 6.06 -86.51 7.89 -89 12.02 C-91.62 18.7 -90.77 26.45 -90.82 33.5 C-90.85 34.67 -90.87 35.84 -90.89 37.04 C-90.9 38.1 -90.91 39.16 -90.91 40.26 C-91.35 43.6 -92.33 45.48 -94.3 48.19 C-98.76 51.28 -104.11 50.89 -109.3 50.19 C-113.61 48.57 -116.51 46.63 -118.74 42.57 C-118.92 41.45 -119.11 40.34 -119.3 39.19 C-119.47 38.39 -119.65 37.58 -119.83 36.75 C-121.2 28.66 -118.67 23.89 -114.3 17.19 C-113.97 16.53 -113.64 15.87 -113.3 15.19 C-112.64 15.19 -111.98 15.19 -111.3 15.19 C-111.07 14.47 -110.84 13.75 -110.61 13 C-107.57 6.48 -100.95 2.38 -95.3 -1.81 C-94.61 -2.33 -93.92 -2.84 -93.21 -3.38 C-64.72 -23.64 -27.05 -20.93 0 0 Z " fill="#00A175" transform="translate(219.297607421875,70.808349609375)"/>
<path d="M0 0 C1.7 0.02 3.39 0.03 5.09 0.04 C17.29 0.18 17.29 0.18 19.69 1.38 C19.69 9.62 19.69 17.88 19.69 26.38 C15.82 26.43 15.82 26.43 11.88 26.49 C9.36 26.53 6.84 26.59 4.32 26.64 C2.58 26.67 0.84 26.7 -0.9 26.72 C-3.41 26.76 -5.93 26.81 -8.44 26.86 C-9.21 26.87 -9.97 26.88 -10.76 26.88 C-16.2 27.03 -20.35 28.14 -25.31 30.38 C-27.17 32.42 -27.17 32.42 -28.31 34.38 C-28.97 34.38 -29.63 34.38 -30.31 34.38 C-30.52 34.99 -30.72 35.6 -30.93 36.24 C-32.06 39.62 -33.19 43 -34.31 46.38 C-34.84 53.97 -33.15 60.76 -29.31 67.38 C-26.94 68.56 -26.94 68.56 -24.31 69.38 C-23.78 69.72 -23.24 70.06 -22.69 70.41 C-19.11 71.87 -15.49 71.71 -11.68 71.75 C-10.43 71.78 -10.43 71.78 -9.16 71.81 C-6.5 71.86 -3.84 71.9 -1.19 71.94 C1.48 71.98 4.14 72.03 6.8 72.08 C8.46 72.11 10.11 72.14 11.77 72.16 C17.46 72.26 17.46 72.26 19.69 73.38 C19.69 81.3 19.69 89.22 19.69 97.38 C13.87 97.42 8.05 97.46 2.24 97.48 C0.26 97.49 -1.71 97.51 -3.69 97.53 C-6.54 97.55 -9.39 97.56 -12.25 97.57 C-13.12 97.58 -13.99 97.59 -14.89 97.6 C-27.91 97.6 -37.27 93.5 -46.69 84.38 C-47.92 83.06 -49.13 81.73 -50.31 80.38 C-51.02 79.6 -51.02 79.6 -51.74 78.8 C-58.57 70.39 -61.8 58.07 -61.31 47.38 C-60.69 43.22 -59.64 39.36 -58.31 35.38 C-57.82 33.87 -57.82 33.87 -57.31 32.34 C-52.96 20.63 -45.29 11.38 -34.31 5.38 C-22.8 0.27 -12.42 -0.29 0 0 Z " fill="#00A074" transform="translate(387.3125,101.625)"/>
<path d="M0 0 C1.36 0.01 1.36 0.01 2.74 0.01 C3.72 0.01 4.71 0.02 5.72 0.02 C6.74 0.03 7.77 0.04 8.83 0.06 C9.86 0.06 10.9 0.06 11.96 0.06 C19.63 0.1 19.63 0.1 20.77 1.24 C20.86 3.42 20.89 5.6 20.88 7.78 C20.88 8.47 20.88 9.15 20.88 9.85 C20.88 12.12 20.87 14.39 20.87 16.65 C20.87 18.22 20.86 19.79 20.86 21.36 C20.86 25.49 20.85 29.63 20.84 33.76 C20.83 37.98 20.82 42.19 20.82 46.41 C20.81 54.69 20.79 62.96 20.77 71.24 C21.38 71.25 21.99 71.26 22.62 71.27 C28.94 71.38 35.27 71.5 41.59 71.62 C43.96 71.66 46.32 71.7 48.68 71.74 C52.07 71.8 55.46 71.86 58.86 71.93 C59.92 71.94 60.98 71.96 62.07 71.98 C63.05 72 64.03 72.02 65.04 72.04 C65.91 72.05 66.78 72.07 67.67 72.08 C69.77 72.24 69.77 72.24 71.77 73.24 C71.77 81.16 71.77 89.08 71.77 97.24 C64.24 97.33 56.72 97.41 49.19 97.46 C46.63 97.48 44.08 97.51 41.52 97.54 C37.83 97.59 34.15 97.62 30.46 97.63 C29.33 97.65 28.19 97.67 27.02 97.7 C18.76 97.7 12.73 96.18 6.06 91.24 C5.02 90.19 5.02 90.19 3.96 89.12 C3.25 88.43 2.54 87.75 1.81 87.05 C-4.83 77.92 -4.8 68.4 -4.69 57.59 C-4.69 55.99 -4.69 54.4 -4.69 52.8 C-4.69 49.48 -4.67 46.16 -4.64 42.84 C-4.61 38.57 -4.6 34.31 -4.6 30.05 C-4.6 26.77 -4.59 23.48 -4.58 20.2 C-4.57 18.63 -4.57 17.06 -4.56 15.48 C-4.56 13.3 -4.54 11.11 -4.52 8.92 C-4.51 7.68 -4.51 6.43 -4.5 5.15 C-4.18 1.64 -3.62 0.39 0 0 Z " fill="#00A175" transform="translate(640.230712890625,101.757080078125)"/>
<path d="M0 0 C2.91 2.35 3.84 4.34 5.25 7.81 C5.5 10.57 5.6 13.09 5.54 15.84 C5.54 16.58 5.53 17.33 5.53 18.1 C5.51 20.46 5.48 22.82 5.44 25.19 C5.42 26.8 5.41 28.41 5.4 30.02 C5.36 33.95 5.31 37.88 5.25 41.81 C0.6 44.14 -5.63 43.54 -10.75 43.81 C-12.27 43.9 -12.27 43.9 -13.83 43.98 C-14.71 44.01 -15.59 44.03 -16.5 44.06 C-17.28 44.09 -18.06 44.11 -18.86 44.14 C-19.48 44.03 -20.11 43.92 -20.75 43.81 C-23.93 39.04 -23.12 33.88 -23.12 28.26 C-23.12 26.21 -23.16 24.17 -23.2 22.12 C-23.22 14.7 -23.14 8.07 -18.75 1.81 C-13.08 -2.99 -6.6 -2.85 0 0 Z M-20.75 41.81 C-16.75 42.81 -16.75 42.81 -16.75 42.81 Z " fill="#01A174" transform="translate(177.75,230.1875)"/>
<path d="M0 0 C4.23 2.02 6.56 3.98 8.44 8.31 C8.62 9.2 8.81 10.09 9 11 C7.19 13 7.19 13 5 15 C4.01 15 3.02 15 2 15 C2 15.66 2 16.32 2 17 C1.2 17.12 1.2 17.12 0.38 17.25 C-2.22 17.94 -2.22 17.94 -4.94 20 C-7.89 21.93 -9.58 22.55 -13 23 C-14.08 23.34 -14.08 23.34 -15.19 23.69 C-15.79 23.79 -16.38 23.89 -17 24 C-19.33 21.67 -19.34 21.11 -19.44 17.94 C-19.29 12.42 -17.41 8.3 -14 4 C-9.83 0.32 -5.49 -0.88 0 0 Z " fill="#04A275" transform="translate(229,242)"/>
<path d="M0 0 C4.13 2.78 6.84 5.53 9 10 C9.29 13.55 9.29 13.55 9.19 17.31 C9.16 18.57 9.13 19.82 9.11 21.11 C9.07 22.07 9.04 23.02 9 24 C5 22.67 1 21.33 -3 20 C-3 19.34 -3 18.68 -3 18 C-4.98 17.67 -6.96 17.34 -9 17 C-9 16.34 -9 15.68 -9 15 C-9.58 14.94 -10.16 14.88 -10.75 14.81 C-13.89 13.68 -15.09 11.66 -17 9 C-14.13 2.18 -7.25 -1.34 0 0 Z " fill="#02A175" transform="translate(119,242)"/>
<path d="M0 0 C3.32 1.18 4.58 3.56 6.16 6.59 C6.94 8.69 6.94 8.69 7.07 11.38 C5.49 14.61 3.79 16.48 0.94 18.69 C-2.74 19.3 -4.52 18.95 -7.87 17.31 C-10.06 15.69 -10.06 15.69 -11.06 13.69 C-11.74 6.72 -11.74 6.72 -9.06 2.69 C-5.78 0.5 -3.89 -0.24 0 0 Z " fill="#403F24" transform="translate(141.05859375,162.3125)"/>
<path d="M0 0 C2.84 2.98 3.86 4.99 4.44 9.06 C3.94 12.39 3 14.31 1 17 C-1.9 18.45 -3.77 18.37 -7 18 C-10.27 15.84 -12.44 14.19 -14.12 10.62 C-13.93 6.6 -12.24 4.34 -10 1 C-6.77 -0.62 -3.48 -0.72 0 0 Z " fill="#424124" transform="translate(208,163)"/>
<path d="M0 0 C5.96 -0.02 11.93 -0.04 17.89 -0.05 C19.92 -0.06 21.95 -0.07 23.98 -0.08 C26.89 -0.09 29.8 -0.09 32.71 -0.1 C33.63 -0.1 34.54 -0.11 35.48 -0.11 C37.66 -0.11 39.83 -0.06 42 0 C43 1 43 1 43.11 2.95 C43.11 3.78 43.1 4.61 43.1 5.47 C43.09 6.37 43.09 7.27 43.09 8.2 C43.08 9.62 43.08 9.62 43.06 11.06 C43.06 12.01 43.05 12.96 43.05 13.94 C43.04 16.29 43.02 18.65 43 21 C41 19 41 19 40 2 C20.2 1.5 20.2 1.5 0 1 C0 0.67 0 0.34 0 0 Z " fill="#D5F158" transform="translate(946,178)"/>
<path d="" fill="#464527" transform="translate(0,0)"/>
</svg>
